<?xml version="1.0" encoding="UTF-8" standalone="no"?>
<!-- Created with Inkscape (http://www.inkscape.org/) -->

<svg
   width="512"
   height="512"
   viewBox="0 0 135.46666 135.46667"
   version="1.1"
   id="svg5"
   inkscape:version="1.2.2 (b0a8486541, 2022-12-01)"
   sodipodi:docname="ans.svg"
   xml:space="preserve"
   xmlns:inkscape="http://www.inkscape.org/namespaces/inkscape"
   xmlns:sodipodi="http://sodipodi.sourceforge.net/DTD/sodipodi-0.dtd"
   xmlns="http://www.w3.org/2000/svg"
   xmlns:svg="http://www.w3.org/2000/svg"><sodipodi:namedview
     id="namedview7"
     pagecolor="#ffffff"
     bordercolor="#000000"
     borderopacity="0.25"
     inkscape:showpageshadow="2"
     inkscape:pageopacity="0.0"
     inkscape:pagecheckerboard="0"
     inkscape:deskcolor="#d1d1d1"
     inkscape:document-units="mm"
     showgrid="false"
     inkscape:zoom="0.74208053"
     inkscape:cx="396.8572"
     inkscape:cy="346.99738"
     inkscape:window-width="1920"
     inkscape:window-height="1009"
     inkscape:window-x="0"
     inkscape:window-y="35"
     inkscape:window-maximized="1"
     inkscape:current-layer="g1422" /><defs
     id="defs2" /><g
     inkscape:label="Layer 1"
     inkscape:groupmode="layer"
     id="layer1"><g
       aria-label="tan⁻¹"
       id="text644"
       style="font-weight:bold;font-size:52.9167px;-inkscape-font-specification:'sans-serif Bold';text-align:center;text-anchor:middle;stroke-width:0.264583"><g
         style="fill:#e3e3e3"
         id="g1422"
         transform="matrix(0.07132139,0,0,0.05246367,30.732886,90.938089)"><g
           aria-label="ANS"
           transform="scale(0.85766846,1.1659517)"
           id="text1517"
           style="font-size:865.074px;fill:#1a1a1a;stroke-width:1.14442"><path
             d="M 189.64233,-70.516571 144.65848,-217.57915 H -80.260749 L -125.2446,-70.516571 H -266.25165 L -48.253012,-690.77461 H 111.78567 L 330.64939,-70.516571 Z M 68.531974,-471.04582 q -4.32537,-14.70626 -11.245962,-37.19818 -6.920591,-22.49193 -13.841183,-45.84892 -6.920592,-23.357 -11.245962,-40.65848 -4.32537,17.30148 -12.111035,43.2537 -6.920592,25.08714 -13.841184,48.44414 -6.05551784,22.49192 -9.5158137,32.00774 L -47.387938,-327.44354 H 113.51582 Z"
             id="path1569" /><path
             d="M 956.09832,-70.516571 H 790.00412 L 520.96611,-537.65652 h -3.4603 q 1.73015,44.11878 3.4603,88.23755 2.59522,44.11877 4.32537,88.23754 V -70.516571 H 408.50649 V -688.17939 h 165.22913 l 268.17293,462.81458 h 2.59523 q -0.86508,-43.2537 -2.59523,-85.64233 -1.73014,-42.38862 -3.46029,-84.77725 v -292.395 h 117.65006 z"
             id="path1571" /><path
             d="m 1476.0076,-241.80122 q 0,82.18203 -59.6901,131.49125 -58.8251,48.444139 -167.8244,48.444139 -97.7533,0 -174.7449,-37.198181 V -221.03944 q 44.1187,19.03162 90.8327,35.46803 47.5791,15.57133 94.2931,15.57133 48.4441,0 68.3408,-18.16655 20.7618,-19.03163 20.7618,-47.57907 0,-23.357 -16.4364,-39.7934 -15.5713,-16.43641 -42.3886,-30.27759 -26.8173,-14.70626 -61.4203,-31.14267 -21.6268,-10.38088 -46.714,-24.22207 -25.0871,-14.70625 -48.4441,-35.46803 -22.4919,-21.62685 -37.1982,-51.90444 -14.7062,-30.27759 -14.7062,-72.66621 0,-83.0471 56.2298,-128.89602 56.2298,-46.714 153.1181,-46.714 48.4441,0 91.6978,11.24596 44.1188,11.24596 91.6978,32.00774 l -42.3886,102.07873 q -42.3886,-17.30148 -76.1265,-26.81729 -33.7379,-9.51582 -69.2059,-9.51582 -37.1982,0 -57.0949,17.30148 -19.8967,17.30148 -19.8967,44.98385 0,32.87281 29.4125,51.90444 29.4125,19.03162 87.3725,46.71399 47.5791,22.49192 80.4519,46.714 33.7379,24.22207 51.9044,57.09488 18.1666,32.87281 18.1666,81.31695 z"
             id="path1573" /></g></g></g></g></svg>
