<?xml version="1.0" encoding="UTF-8" standalone="no"?>
<!-- Created with Inkscape (http://www.inkscape.org/) -->

<svg
   width="512"
   height="512"
   viewBox="0 0 135.46666 135.46667"
   version="1.1"
   id="svg5"
   inkscape:version="1.2.2 (b0a8486541, 2022-12-01)"
   sodipodi:docname="back.svg"
   xml:space="preserve"
   xmlns:inkscape="http://www.inkscape.org/namespaces/inkscape"
   xmlns:sodipodi="http://sodipodi.sourceforge.net/DTD/sodipodi-0.dtd"
   xmlns="http://www.w3.org/2000/svg"
   xmlns:svg="http://www.w3.org/2000/svg"><sodipodi:namedview
     id="namedview7"
     pagecolor="#ffffff"
     bordercolor="#000000"
     borderopacity="0.25"
     inkscape:showpageshadow="2"
     inkscape:pageopacity="0.0"
     inkscape:pagecheckerboard="0"
     inkscape:deskcolor="#d1d1d1"
     inkscape:document-units="mm"
     showgrid="false"
     inkscape:zoom="0.74208053"
     inkscape:cx="396.8572"
     inkscape:cy="346.99738"
     inkscape:window-width="1920"
     inkscape:window-height="1009"
     inkscape:window-x="0"
     inkscape:window-y="35"
     inkscape:window-maximized="1"
     inkscape:current-layer="g1422" /><defs
     id="defs2" /><g
     inkscape:label="Layer 1"
     inkscape:groupmode="layer"
     id="layer1"><g
       aria-label="tan⁻¹"
       id="text644"
       style="font-weight:bold;font-size:52.9167px;-inkscape-font-specification:'sans-serif Bold';text-align:center;text-anchor:middle;stroke-width:0.264583"><g
         style="fill:#e3e3e3"
         id="g1422"
         transform="matrix(0.07132139,0,0,0.05246367,30.732886,90.938089)"><path
           d="m 492.76927,-225.06142 112.7336,-141.206 112.7336,141.206 60.7027,-76.034 -112.7336,-141.206 112.7336,-141.206 -60.7027,-76.034 -112.7336,141.206 -112.7336,-141.206 -60.70269,76.034 112.73359,141.206 -112.73359,141.206 z M 388.70748,-7.8214176 q -20.5955,0 -39.0231,-11.5410004 -18.4276,-11.54 -30.3514,-31.907 L 85.193974,-442.30142 319.33298,-833.33342 q 11.9238,-20.367 30.3514,-31.907 18.4276,-11.541 39.0231,-11.541 h 476.94989 q 35.7712,0 61.2447,31.907 25.4734,31.907 25.4734,76.713 v 651.72 q 0,44.806002 -25.4734,76.713002 -25.4735,31.9070004 -61.2447,31.9070004 z m -195.1158,-434.4800024 195.1158,325.86 h 476.94989 v -651.72 H 388.70748 Z m 433.59079,0 z"
           id="path1413"
           style="font-weight:bold;font-size:52.9167px;-inkscape-font-specification:'sans-serif Bold';text-align:center;text-anchor:middle;fill:#1a1a1a;stroke-width:0.320984" /></g></g></g></svg>
