<?xml version="1.0" encoding="UTF-8" standalone="no"?>
<!-- Created with Inkscape (http://www.inkscape.org/) -->

<svg
   width="512"
   height="512"
   viewBox="0 0 135.46666 135.46667"
   version="1.1"
   id="svg1852"
   inkscape:export-filename="three.svg"
   inkscape:export-xdpi="96"
   inkscape:export-ydpi="96"
   inkscape:version="1.2.2 (b0a8486541, 2022-12-01)"
   sodipodi:docname="clear.svg"
   xmlns:inkscape="http://www.inkscape.org/namespaces/inkscape"
   xmlns:sodipodi="http://sodipodi.sourceforge.net/DTD/sodipodi-0.dtd"
   xmlns="http://www.w3.org/2000/svg"
   xmlns:svg="http://www.w3.org/2000/svg">
  <sodipodi:namedview
     id="namedview1854"
     pagecolor="#ffffff"
     bordercolor="#000000"
     borderopacity="0.25"
     inkscape:showpageshadow="2"
     inkscape:pageopacity="0.0"
     inkscape:pagecheckerboard="0"
     inkscape:deskcolor="#d1d1d1"
     inkscape:document-units="mm"
     showgrid="false"
     inkscape:zoom="1.1253621"
     inkscape:cx="266.13655"
     inkscape:cy="151.50679"
     inkscape:window-width="1920"
     inkscape:window-height="1009"
     inkscape:window-x="0"
     inkscape:window-y="35"
     inkscape:window-maximized="1"
     inkscape:current-layer="text9915" />
  <defs
     id="defs1849" />
  <g
     inkscape:label="Layer 1"
     inkscape:groupmode="layer"
     id="layer1">
    <g
       aria-label="1"
       id="text3068"
       style="font-weight:bold;font-size:123.472px;-inkscape-font-specification:'sans-serif Bold';text-align:center;text-anchor:middle;stroke-width:0.264583">
      <g
         aria-label="2"
         id="text9665"
         style="stroke-width:0.0700042">
        <g
           aria-label="4"
           id="text9852"
           style="font-size:123.472px;stroke-width:0.0185219">
          <g
             aria-label="6"
             id="text9915"
             style="stroke-width:0.00490059">
            <g
               aria-label="C"
               id="text10211"
               style="font-size:123.472px;stroke-width:0.00129661">
              <path
                 d="m 75.512072,37.976587 q -10.742064,0 -16.421776,8.02568 -5.679712,8.02568 -5.679712,21.978016 0,14.075808 5.185824,21.854544 5.309296,7.655264 16.915664,7.655264 5.432768,0 10.742064,-1.23472 5.432768,-1.23472 11.72984,-3.457216 V 108.4791 q -5.803184,2.34597 -11.482896,3.45722 -5.679712,1.11124 -12.717616,1.11124 -13.58192,0 -22.471904,-5.55624 Q 42.545048,101.81161 38.347,91.686907 34.148952,81.438731 34.148952,67.856811 q 0,-13.334976 4.815408,-23.583152 4.815408,-10.248176 13.952336,-16.05136 9.2604,-5.803184 22.595376,-5.803184 6.544016,0 13.088032,1.728608 6.667488,1.605136 12.717616,4.444992 L 95.267592,43.779771 Q 90.328712,41.433803 85.26636,39.705195 80.32748,37.976587 75.512072,37.976587 Z"
                 id="path10213" />
            </g>
          </g>
        </g>
      </g>
    </g>
  </g>
</svg>
