<?xml version="1.0" encoding="UTF-8" standalone="no"?>
<!-- Created with Inkscape (http://www.inkscape.org/) -->

<svg
   width="512"
   height="512"
   viewBox="0 0 135.46666 135.46667"
   version="1.1"
   id="svg5"
   inkscape:version="1.2.2 (b0a8486541, 2022-12-01)"
   sodipodi:docname="m+.svg"
   xml:space="preserve"
   xmlns:inkscape="http://www.inkscape.org/namespaces/inkscape"
   xmlns:sodipodi="http://sodipodi.sourceforge.net/DTD/sodipodi-0.dtd"
   xmlns="http://www.w3.org/2000/svg"
   xmlns:svg="http://www.w3.org/2000/svg"><sodipodi:namedview
     id="namedview7"
     pagecolor="#ffffff"
     bordercolor="#000000"
     borderopacity="0.25"
     inkscape:showpageshadow="2"
     inkscape:pageopacity="0.0"
     inkscape:pagecheckerboard="0"
     inkscape:deskcolor="#d1d1d1"
     inkscape:document-units="mm"
     showgrid="false"
     inkscape:zoom="0.74208053"
     inkscape:cx="396.8572"
     inkscape:cy="346.99738"
     inkscape:window-width="1920"
     inkscape:window-height="1009"
     inkscape:window-x="0"
     inkscape:window-y="35"
     inkscape:window-maximized="1"
     inkscape:current-layer="g1422" /><defs
     id="defs2" /><g
     inkscape:label="Layer 1"
     inkscape:groupmode="layer"
     id="layer1"><g
       aria-label="tan⁻¹"
       id="text644"
       style="font-weight:bold;font-size:52.9167px;-inkscape-font-specification:'sans-serif Bold';text-align:center;text-anchor:middle;stroke-width:0.264583"><g
         style="fill:#e3e3e3"
         id="g1422"
         transform="matrix(0.07132139,0,0,0.05246367,30.732886,90.938089)"><g
           aria-label="M+"
           transform="scale(0.85766846,1.1659517)"
           id="text1614"
           style="font-size:865.074px;fill:#1a1a1a;stroke-width:1.14442"><path
             d="M 268.79635,-70.516571 120.00362,-554.958 h -3.46029 q 0.86507,17.30148 2.59522,51.90444 1.73015,34.60296 3.46029,74.39636 1.73015,38.92833 1.73015,70.93607 V -70.516571 H 7.5440063 V -688.17939 H 185.74925 l 146.1975,472.33039 h 2.59522 L 489.39021,-688.17939 H 667.59545 V -70.516571 H 545.62002 V -362.91157 q 0,-29.41252 0.86507,-67.47577 1.73015,-38.06326 2.59522,-71.80114 1.73015,-34.60296 2.59523,-51.90444 h -3.4603 L 389.04163,-70.516571 Z"
             id="path1616" /><path
             d="m 1038.7129,-421.7366 h 163.4989 v 92.56291 h -163.4989 v 162.63391 H 946.14995 V -329.17369 H 782.65097 v -92.56291 h 163.49898 v -164.36406 h 92.56295 z"
             id="path1618" /></g></g></g></g></svg>
