<?xml version="1.0" encoding="UTF-8" standalone="no"?>
<!-- Created with Inkscape (http://www.inkscape.org/) -->

<svg
   width="512"
   height="512"
   viewBox="0 0 135.46666 135.46667"
   version="1.1"
   id="svg5"
   inkscape:version="1.2.2 (b0a8486541, 2022-12-01)"
   sodipodi:docname="m-.svg"
   xml:space="preserve"
   xmlns:inkscape="http://www.inkscape.org/namespaces/inkscape"
   xmlns:sodipodi="http://sodipodi.sourceforge.net/DTD/sodipodi-0.dtd"
   xmlns="http://www.w3.org/2000/svg"
   xmlns:svg="http://www.w3.org/2000/svg"><sodipodi:namedview
     id="namedview7"
     pagecolor="#ffffff"
     bordercolor="#000000"
     borderopacity="0.25"
     inkscape:showpageshadow="2"
     inkscape:pageopacity="0.0"
     inkscape:pagecheckerboard="0"
     inkscape:deskcolor="#d1d1d1"
     inkscape:document-units="mm"
     showgrid="false"
     inkscape:zoom="0.74208053"
     inkscape:cx="396.8572"
     inkscape:cy="346.99738"
     inkscape:window-width="1920"
     inkscape:window-height="1009"
     inkscape:window-x="0"
     inkscape:window-y="35"
     inkscape:window-maximized="1"
     inkscape:current-layer="g1422" /><defs
     id="defs2" /><g
     inkscape:label="Layer 1"
     inkscape:groupmode="layer"
     id="layer1"><g
       aria-label="tan⁻¹"
       id="text644"
       style="font-weight:bold;font-size:52.9167px;-inkscape-font-specification:'sans-serif Bold';text-align:center;text-anchor:middle;stroke-width:0.264583"><g
         style="fill:#e3e3e3"
         id="g1422"
         transform="matrix(0.07132139,0,0,0.05246367,30.732886,90.938089)"><g
           aria-label="M-"
           transform="scale(0.85766846,1.1659517)"
           id="text1648"
           style="font-size:865.074px;fill:#1a1a1a;stroke-width:1.14442"><path
             d="M 370.87505,-70.516571 222.08233,-554.958 h -3.4603 q 0.86508,17.30148 2.59522,51.90444 1.73015,34.60296 3.4603,74.39636 1.73015,38.92833 1.73015,70.93607 V -70.516571 H 109.62271 V -688.17939 h 178.20524 l 146.1975,472.33039 h 2.59522 L 591.46891,-688.17939 H 769.67415 V -70.516571 H 647.69872 V -362.91157 q 0,-29.41252 0.86508,-67.47577 1.73015,-38.06326 2.59522,-71.80114 1.73015,-34.60296 2.59522,-51.90444 h -3.46029 L 491.12033,-70.516571 Z"
             id="path1650" /><path
             d="m 873.48371,-249.58688 v -105.53903 h 226.64939 v 105.53903 z"
             id="path1652" /></g></g></g></g></svg>
