<?xml version="1.0" encoding="UTF-8" standalone="no"?>
<!-- Created with Inkscape (http://www.inkscape.org/) -->

<svg
   width="512"
   height="512"
   viewBox="0 0 135.46666 135.46667"
   version="1.1"
   id="svg5"
   inkscape:version="1.2.2 (b0a8486541, 2022-12-01)"
   sodipodi:docname="mr.svg"
   xml:space="preserve"
   xmlns:inkscape="http://www.inkscape.org/namespaces/inkscape"
   xmlns:sodipodi="http://sodipodi.sourceforge.net/DTD/sodipodi-0.dtd"
   xmlns="http://www.w3.org/2000/svg"
   xmlns:svg="http://www.w3.org/2000/svg"><sodipodi:namedview
     id="namedview7"
     pagecolor="#ffffff"
     bordercolor="#000000"
     borderopacity="0.25"
     inkscape:showpageshadow="2"
     inkscape:pageopacity="0.0"
     inkscape:pagecheckerboard="0"
     inkscape:deskcolor="#d1d1d1"
     inkscape:document-units="mm"
     showgrid="false"
     inkscape:zoom="0.74208053"
     inkscape:cx="396.8572"
     inkscape:cy="346.99738"
     inkscape:window-width="1920"
     inkscape:window-height="1009"
     inkscape:window-x="0"
     inkscape:window-y="35"
     inkscape:window-maximized="1"
     inkscape:current-layer="g1422" /><defs
     id="defs2" /><g
     inkscape:label="Layer 1"
     inkscape:groupmode="layer"
     id="layer1"><g
       aria-label="tan⁻¹"
       id="text644"
       style="font-weight:bold;font-size:52.9167px;-inkscape-font-specification:'sans-serif Bold';text-align:center;text-anchor:middle;stroke-width:0.264583"><g
         style="fill:#e3e3e3"
         id="g1422"
         transform="matrix(0.07132139,0,0,0.05246367,30.732886,90.938089)"><g
           aria-label="MR"
           transform="scale(0.85766846,1.1659517)"
           id="text1682"
           style="font-size:865.074px;fill:#1a1a1a;stroke-width:1.14442"><path
             d="M 211.70145,-70.516571 62.90873,-554.958 h -3.460295 q 0.865074,17.30148 2.595222,51.90444 1.730147,34.60296 3.460295,74.39636 1.730148,38.92833 1.730148,70.93607 V -70.516571 H -49.550886 V -688.17939 H 128.65435 l 146.1975,472.33039 h 2.59523 L 432.29532,-688.17939 H 610.50056 V -70.516571 H 488.52513 V -362.91157 q 0,-29.41252 0.86507,-67.47577 1.73015,-38.06326 2.59522,-71.80114 1.73015,-34.60296 2.59522,-51.90444 h -3.46029 L 331.94674,-70.516571 Z"
             id="path1684" /><path
             d="m 946.14994,-688.17939 q 126.30076,0 185.99086,45.84892 60.5552,45.84892 60.5552,139.27691 0,42.38863 -16.4364,74.39636 -15.5713,31.14267 -42.3886,53.63459 -25.9522,21.62685 -56.2298,35.46803 l 181.6655,269.038009 H 1113.9743 L 966.91172,-307.54684 H 896.84073 V -70.516571 H 766.21456 V -688.17939 Z m -9.51581,107.26917 h -39.7934 v 166.95928 h 42.38862 q 64.88055,0 92.56295,-21.62685 28.5474,-21.62685 28.5474,-64.01547 0,-44.11878 -30.2776,-62.28533 -29.4125,-19.03163 -93.42797,-19.03163 z"
             id="path1686" /></g></g></g></g></svg>
