<?xml version="1.0" encoding="UTF-8" standalone="no"?>
<!-- Created with Inkscape (http://www.inkscape.org/) -->

<svg
   width="24"
   height="24"
   viewBox="0 0 6.3499999 6.35"
   version="1.1"
   id="svg5"
   inkscape:version="1.2.2 (b0a8486541, 2022-12-01)"
   sodipodi:docname="sym_ans].svg"
   xmlns:inkscape="http://www.inkscape.org/namespaces/inkscape"
   xmlns:sodipodi="http://sodipodi.sourceforge.net/DTD/sodipodi-0.dtd"
   xmlns="http://www.w3.org/2000/svg"
   xmlns:svg="http://www.w3.org/2000/svg">
  <sodipodi:namedview
     id="namedview7"
     pagecolor="#ffffff"
     bordercolor="#000000"
     borderopacity="0.25"
     inkscape:showpageshadow="2"
     inkscape:pageopacity="0.0"
     inkscape:pagecheckerboard="0"
     inkscape:deskcolor="#d1d1d1"
     inkscape:document-units="mm"
     showgrid="false"
     inkscape:zoom="23.746577"
     inkscape:cx="13.075569"
     inkscape:cy="13.075569"
     inkscape:window-width="1920"
     inkscape:window-height="1009"
     inkscape:window-x="0"
     inkscape:window-y="35"
     inkscape:window-maximized="1"
     inkscape:current-layer="layer1" />
  <defs
     id="defs2" />
  <g
     inkscape:label="Layer 1"
     inkscape:groupmode="layer"
     id="layer1">
    <g
       aria-label="ANS"
       id="text582"
       style="font-weight:bold;font-size:2.82222px;-inkscape-font-specification:'sans-serif Bold';text-align:center;text-anchor:middle;fill:#1a1a1a;stroke-width:0.264583">
      <path
         d="M 1.8203341,4.1825328 1.6735786,3.7027554 H 0.9398014 L 0.79304595,4.1825328 H 0.33302408 L 1.0442235,2.159001 H 1.5663343 L 2.2803559,4.1825328 Z M 1.4252233,2.8758449 Q 1.4111122,2.8278671 1.3885344,2.7544894 1.3659566,2.6811117 1.3433789,2.6049118 1.3208011,2.5287118 1.30669,2.4722674 q -0.014111,0.056444 -0.039511,0.141111 -0.022578,0.081844 -0.045155,0.1580443 -0.019756,0.073378 -0.031044,0.1044222 L 1.0470458,3.3443334 h 0.5249329 z"
         id="path584" />
      <path
         d="M 4.3208225,4.1825328 H 3.7789563 L 2.9012458,2.6585339 H 2.889957 q 0.00564,0.1439333 0.011289,0.2878665 0.00847,0.1439332 0.014111,0.2878664 v 0.948266 H 2.5343572 V 2.1674676 h 0.5390441 l 0.8748882,1.5098878 h 0.00847 Q 3.9539339,3.5362444 3.9482895,3.3979556 3.942645,3.2596668 3.9370006,3.121378 V 2.1674676 h 0.3838219 z"
         id="path586" />
      <path
         d="m 6.016976,3.6237332 q 0,0.2681109 -0.1947332,0.4289775 -0.191911,0.1580443 -0.5475107,0.1580443 -0.3189109,0 -0.5700885,-0.1213555 v -0.397933 q 0.1439333,0.062089 0.2963332,0.115711 0.1552221,0.0508 0.3076219,0.0508 0.1580444,0 0.2229554,-0.059267 0.067733,-0.062089 0.067733,-0.1552221 0,-0.0762 -0.053622,-0.1298222 -0.0508,-0.053622 -0.1382887,-0.098778 Q 5.3198876,3.3669112 5.2069988,3.313289 5.1364433,3.2794224 5.0545989,3.2342668 4.9727546,3.1862891 4.8965546,3.1185558 4.8231769,3.0480003 4.7751992,2.9492226 4.7272214,2.8504449 4.7272214,2.7121561 q 0,-0.2709331 0.1834443,-0.4205108 0.1834443,-0.1523999 0.499533,-0.1523999 0.1580443,0 0.2991553,0.036689 0.1439332,0.036689 0.2991553,0.1044221 L 5.8702205,2.6133784 Q 5.7319318,2.556934 5.6218652,2.5258896 5.5117986,2.4948452 5.3960876,2.4948452 q -0.1213555,0 -0.1862666,0.056444 Q 5.14491,2.607734 5.14491,2.698045 q 0,0.1072444 0.095955,0.1693332 0.095955,0.062089 0.2850442,0.1523999 0.1552221,0.073378 0.2624665,0.1523999 0.1100665,0.079022 0.1693332,0.1862665 0.059267,0.1072444 0.059267,0.2652887 z"
         id="path588" />
    </g>
  </g>
</svg>
