<?xml version="1.0" encoding="UTF-8" standalone="no"?>
<!-- Created with Inkscape (http://www.inkscape.org/) -->

<svg
   width="24"
   height="24"
   viewBox="0 0 6.3499999 6.35"
   version="1.1"
   id="svg5"
   inkscape:version="1.2.2 (b0a8486541, 2022-12-01)"
   sodipodi:docname="eight.svg"
   xmlns:inkscape="http://www.inkscape.org/namespaces/inkscape"
   xmlns:sodipodi="http://sodipodi.sourceforge.net/DTD/sodipodi-0.dtd"
   xmlns="http://www.w3.org/2000/svg"
   xmlns:svg="http://www.w3.org/2000/svg">
  <sodipodi:namedview
     id="namedview7"
     pagecolor="#ffffff"
     bordercolor="#000000"
     borderopacity="0.25"
     inkscape:showpageshadow="2"
     inkscape:pageopacity="0.0"
     inkscape:pagecheckerboard="0"
     inkscape:deskcolor="#d1d1d1"
     inkscape:document-units="mm"
     showgrid="false"
     inkscape:zoom="23.746577"
     inkscape:cx="13.075569"
     inkscape:cy="11.643784"
     inkscape:window-width="1920"
     inkscape:window-height="1009"
     inkscape:window-x="0"
     inkscape:window-y="35"
     inkscape:window-maximized="1"
     inkscape:current-layer="text646" />
  <defs
     id="defs2" />
  <g
     inkscape:label="Layer 1"
     inkscape:groupmode="layer"
     id="layer1">
    <g
       aria-label="+/-"
       id="text646"
       style="font-weight:bold;font-size:3.52778px;-inkscape-font-specification:'sans-serif Bold';text-align:center;text-anchor:middle;fill:#1a1a1a;stroke-width:0.264583">
      <g
         aria-label="8"
         id="text968"
         style="font-size:6.35px;stroke-width:0.0700042">
        <path
           d="m 3.178175,0.84772513 q 0.3937,0 0.71755,0.12065 0.3302,0.12064997 0.52705,0.36194997 0.2032,0.2413 0.2032,0.6096 0,0.4064 -0.23495,0.6731 -0.2286,0.26035 -0.57785,0.4318 0.2413,0.127 0.4572,0.29845 0.22225,0.1651 0.3556,0.3937 0.1397,0.22225 0.1397,0.52705 0,0.37465 -0.2032,0.65405 -0.19685,0.2794 -0.5588,0.4318 -0.3556,0.1524 -0.8255,0.1524 -0.7619999,0 -1.1810999,-0.32385 -0.41275,-0.32385 -0.41275,-0.889 0,-0.4699 0.254,-0.75565 0.254,-0.28575 0.61595,-0.46355 -0.3048,-0.1905 -0.5207,-0.4572 -0.20955,-0.27305 -0.20955,-0.67945 0,-0.36195 0.2032,-0.60325 0.2032,-0.2413 0.5334,-0.36194997 0.3365499,-0.12065 0.7175499,-0.12065 z M 3.171825,1.5462251 q -0.23495,0 -0.3937,0.12065 -0.1523999,0.12065 -0.1523999,0.3429 0,0.23495 0.1650999,0.381 0.1651,0.14605 0.38735,0.254 0.2159,-0.1016 0.381,-0.2413 0.1651,-0.14605 0.1651,-0.3937 0,-0.22225 -0.15875,-0.3429 -0.1524,-0.12065 -0.3937,-0.12065 z m -0.6984999,2.68605 q 0,0.24765 0.17145,0.4064 0.1777999,0.15875 0.5206999,0.15875 0.3556,0 0.5334,-0.1524 0.1778,-0.1524 0.1778,-0.4064 0,-0.17145 -0.1016,-0.29845 -0.1016,-0.13335 -0.254,-0.23495 -0.14605,-0.10795 -0.3048,-0.19685 l -0.08255,-0.04445 q -0.2921,0.1397 -0.4762499,0.32385 -0.18415,0.18415 -0.18415,0.4445 z"
           id="path970" />
      </g>
    </g>
  </g>
</svg>
