<?xml version="1.0" encoding="UTF-8" standalone="no"?>
<!-- Created with Inkscape (http://www.inkscape.org/) -->

<svg
   width="512"
   height="512"
   viewBox="0 0 135.46666 135.46667"
   version="1.1"
   id="svg1852"
   inkscape:export-filename="three.svg"
   inkscape:export-xdpi="96"
   inkscape:export-ydpi="96"
   inkscape:version="1.2.2 (b0a8486541, 2022-12-01)"
   sodipodi:docname="eight.svg"
   xmlns:inkscape="http://www.inkscape.org/namespaces/inkscape"
   xmlns:sodipodi="http://sodipodi.sourceforge.net/DTD/sodipodi-0.dtd"
   xmlns="http://www.w3.org/2000/svg"
   xmlns:svg="http://www.w3.org/2000/svg">
  <sodipodi:namedview
     id="namedview1854"
     pagecolor="#ffffff"
     bordercolor="#000000"
     borderopacity="0.25"
     inkscape:showpageshadow="2"
     inkscape:pageopacity="0.0"
     inkscape:pagecheckerboard="0"
     inkscape:deskcolor="#d1d1d1"
     inkscape:document-units="mm"
     showgrid="false"
     inkscape:zoom="1.1253621"
     inkscape:cx="266.13655"
     inkscape:cy="259.91633"
     inkscape:window-width="1920"
     inkscape:window-height="1009"
     inkscape:window-x="0"
     inkscape:window-y="35"
     inkscape:window-maximized="1"
     inkscape:current-layer="text9915" />
  <defs
     id="defs1849" />
  <g
     inkscape:label="Layer 1"
     inkscape:groupmode="layer"
     id="layer1">
    <g
       aria-label="1"
       id="text3068"
       style="font-weight:bold;font-size:123.472px;-inkscape-font-specification:'sans-serif Bold';text-align:center;text-anchor:middle;stroke-width:0.264583">
      <g
         aria-label="2"
         id="text9665"
         style="stroke-width:0.0700042">
        <g
           aria-label="4"
           id="text9852"
           style="font-size:123.472px;stroke-width:0.0185219">
          <g
             aria-label="6"
             id="text9915"
             style="stroke-width:0.00490059">
            <g
               aria-label="8"
               id="text9980"
               style="font-size:123.472px;stroke-width:0.00129661">
              <path
                 d="m 67.795066,22.480843 q 7.655264,0 13.952336,2.345968 6.420544,2.345968 10.248176,7.037904 3.951104,4.691936 3.951104,11.853312 0,7.902208 -4.568464,13.088032 -4.444992,5.062352 -11.235952,8.396096 4.691936,2.46944 8.889984,5.803184 4.32152,3.210272 6.914432,7.655264 2.716384,4.32152 2.716384,10.248176 0,7.284848 -3.951104,12.717611 -3.827632,5.43277 -10.865536,8.3961 -6.914432,2.96333 -16.05136,2.96333 -14.81664,0 -22.965792,-6.29707 -8.02568,-6.29708 -8.02568,-17.286083 0,-9.136928 4.93888,-14.693168 4.93888,-5.55624 11.976784,-9.013456 -5.926656,-3.70416 -10.124704,-8.889984 -4.074576,-5.309296 -4.074576,-13.211504 0,-7.037904 3.951104,-11.72984 3.951104,-4.691936 10.371648,-7.037904 6.544016,-2.345968 13.952336,-2.345968 z m -0.123472,13.58192 q -4.568464,0 -7.655264,2.345968 -2.963328,2.345968 -2.963328,6.667488 0,4.568464 3.210272,7.40832 3.210272,2.839856 7.531792,4.93888 4.198048,-1.975552 7.40832,-4.691936 3.210272,-2.839856 3.210272,-7.655264 0,-4.32152 -3.0868,-6.667488 -2.963328,-2.345968 -7.655264,-2.345968 z m -13.58192,52.228656 q 0,4.815408 3.333744,7.902208 3.457216,3.0868 10.124704,3.0868 6.914432,0 10.371648,-2.963328 3.457216,-2.963328 3.457216,-7.902208 0,-3.333744 -1.975552,-5.803184 -1.975552,-2.592912 -4.93888,-4.568464 -2.839856,-2.099024 -5.926656,-3.827632 l -1.605136,-0.864304 q -5.679712,2.716384 -9.2604,6.297072 -3.580688,3.580688 -3.580688,8.64304 z"
                 id="path9982" />
            </g>
          </g>
        </g>
      </g>
    </g>
  </g>
</svg>
