<?xml version="1.0" encoding="UTF-8" standalone="no"?>
<!-- Created with Inkscape (http://www.inkscape.org/) -->

<svg
   width="24"
   height="24"
   viewBox="0 0 6.3499999 6.35"
   version="1.1"
   id="svg5"
   inkscape:version="1.2.2 (b0a8486541, 2022-12-01)"
   sodipodi:docname="five.svg"
   xmlns:inkscape="http://www.inkscape.org/namespaces/inkscape"
   xmlns:sodipodi="http://sodipodi.sourceforge.net/DTD/sodipodi-0.dtd"
   xmlns="http://www.w3.org/2000/svg"
   xmlns:svg="http://www.w3.org/2000/svg">
  <sodipodi:namedview
     id="namedview7"
     pagecolor="#ffffff"
     bordercolor="#000000"
     borderopacity="0.25"
     inkscape:showpageshadow="2"
     inkscape:pageopacity="0.0"
     inkscape:pagecheckerboard="0"
     inkscape:deskcolor="#d1d1d1"
     inkscape:document-units="mm"
     showgrid="false"
     inkscape:zoom="23.746577"
     inkscape:cx="13.075569"
     inkscape:cy="11.643784"
     inkscape:window-width="1920"
     inkscape:window-height="1009"
     inkscape:window-x="0"
     inkscape:window-y="35"
     inkscape:window-maximized="1"
     inkscape:current-layer="text646" />
  <defs
     id="defs2" />
  <g
     inkscape:label="Layer 1"
     inkscape:groupmode="layer"
     id="layer1">
    <g
       aria-label="+/-"
       id="text646"
       style="font-weight:bold;font-size:3.52778px;-inkscape-font-specification:'sans-serif Bold';text-align:center;text-anchor:middle;fill:#1a1a1a;stroke-width:0.264583">
      <g
         aria-label="5"
         id="text878"
         style="font-size:6.35px;stroke-width:0.0700042">
        <path
           d="m 3.254375,2.5146002 q 0.41275,0 0.7365999,0.15875 0.32385,0.15875 0.508,0.46355 0.1905,0.3047999 0.1905,0.7556499 0,0.7366 -0.4572,1.16205 -0.4571999,0.4191 -1.3525499,0.4191 -0.3556,0 -0.6731,-0.0635 -0.31115,-0.0635 -0.5461,-0.18415 v -0.8255 q 0.23495,0.12065 0.56515,0.20955 0.3302,0.08255 0.6223,0.08255 0.42545,0 0.6477,-0.17145 0.2286,-0.1778 0.2286,-0.5461 0,-0.6857999 -0.90805,-0.6857999 -0.1778,0 -0.3683,0.0381 -0.1905,0.03175 -0.3175,0.0635 l -0.381,-0.2031999 0.17145,-2.31140001 H 4.3783249 V 1.6891002 H 2.759075 l -0.08255,0.889 q 0.10795,-0.01905 0.2286,-0.0381 0.127,-0.0254 0.34925,-0.0254 z"
           id="path880" />
      </g>
    </g>
  </g>
</svg>
