<?xml version="1.0" encoding="UTF-8" standalone="no"?>
<!-- Created with Inkscape (http://www.inkscape.org/) -->

<svg
   width="24"
   height="24"
   viewBox="0 0 6.3499999 6.35"
   version="1.1"
   id="svg5"
   inkscape:version="1.2.2 (b0a8486541, 2022-12-01)"
   sodipodi:docname="nine.svg"
   xmlns:inkscape="http://www.inkscape.org/namespaces/inkscape"
   xmlns:sodipodi="http://sodipodi.sourceforge.net/DTD/sodipodi-0.dtd"
   xmlns="http://www.w3.org/2000/svg"
   xmlns:svg="http://www.w3.org/2000/svg">
  <sodipodi:namedview
     id="namedview7"
     pagecolor="#ffffff"
     bordercolor="#000000"
     borderopacity="0.25"
     inkscape:showpageshadow="2"
     inkscape:pageopacity="0.0"
     inkscape:pagecheckerboard="0"
     inkscape:deskcolor="#d1d1d1"
     inkscape:document-units="mm"
     showgrid="false"
     inkscape:zoom="23.746577"
     inkscape:cx="13.075569"
     inkscape:cy="11.643784"
     inkscape:window-width="1920"
     inkscape:window-height="1009"
     inkscape:window-x="0"
     inkscape:window-y="35"
     inkscape:window-maximized="1"
     inkscape:current-layer="text646" />
  <defs
     id="defs2" />
  <g
     inkscape:label="Layer 1"
     inkscape:groupmode="layer"
     id="layer1">
    <g
       aria-label="+/-"
       id="text646"
       style="font-weight:bold;font-size:3.52778px;-inkscape-font-specification:'sans-serif Bold';text-align:center;text-anchor:middle;fill:#1a1a1a;stroke-width:0.264583">
      <g
         aria-label="9"
         id="text998"
         style="font-size:6.35px;stroke-width:0.0700042">
        <path
           d="m 4.7752001,2.8384498 q 0,0.38735 -0.05715,0.7747 -0.05715,0.381 -0.2032,0.7239 -0.1397,0.33655 -0.40005,0.60325 -0.254,0.26035 -0.65405,0.41275 -0.3937,0.14605 -0.95885,0.14605 -0.13335,0 -0.31115,-0.0127 -0.1778,-0.00635 -0.29845,-0.03175 v -0.76835 q 0.127,0.0254 0.2667,0.04445 0.1397,0.01905 0.2794,0.01905 0.56515,0 0.86995,-0.1778 0.31115,-0.18415 0.43815,-0.50165 0.127,-0.3175 0.14605,-0.7366 h -0.0381 q -0.13335,0.22225 -0.3556,0.37465 -0.2159,0.1524 -0.6477,0.1524 -0.57785,0 -0.9271,-0.37465 -0.34925,-0.37465 -0.34925,-1.06045 0,-0.7365999 0.41275,-1.1556999 0.4191,-0.41910003 1.1303,-0.41910003 0.46355,0 0.8382,0.21590003 0.37465,0.20955 0.5969,0.65405 0.22225,0.43815 0.22225,1.1175999 z m -1.6383,-1.2191999 q -0.2794,0 -0.4572,0.1905 -0.1778,0.1905 -0.1778,0.6032499 0,0.3302 0.1524,0.5207 0.1524,0.1905 0.46355,0.1905 0.2159,0 0.3683,-0.09525 0.15875,-0.09525 0.24765,-0.23495 0.0889,-0.14605 0.0889,-0.29845 0,-0.2095499 -0.0762,-0.4127499 -0.0762,-0.2032 -0.2286,-0.3302 -0.1524,-0.13335 -0.381,-0.13335 z"
           id="path1000" />
      </g>
    </g>
  </g>
</svg>
