<?xml version="1.0" encoding="UTF-8" standalone="no"?>
<!-- Created with Inkscape (http://www.inkscape.org/) -->

<svg
   width="512"
   height="512"
   viewBox="0 0 135.46666 135.46667"
   version="1.1"
   id="svg1852"
   inkscape:export-filename="three.svg"
   inkscape:export-xdpi="96"
   inkscape:export-ydpi="96"
   inkscape:version="1.2.2 (b0a8486541, 2022-12-01)"
   sodipodi:docname="six.svg"
   xmlns:inkscape="http://www.inkscape.org/namespaces/inkscape"
   xmlns:sodipodi="http://sodipodi.sourceforge.net/DTD/sodipodi-0.dtd"
   xmlns="http://www.w3.org/2000/svg"
   xmlns:svg="http://www.w3.org/2000/svg">
  <sodipodi:namedview
     id="namedview1854"
     pagecolor="#ffffff"
     bordercolor="#000000"
     borderopacity="0.25"
     inkscape:showpageshadow="2"
     inkscape:pageopacity="0.0"
     inkscape:pagecheckerboard="0"
     inkscape:deskcolor="#d1d1d1"
     inkscape:document-units="mm"
     showgrid="false"
     inkscape:zoom="1.1253621"
     inkscape:cx="266.13655"
     inkscape:cy="177.27627"
     inkscape:window-width="1920"
     inkscape:window-height="1009"
     inkscape:window-x="0"
     inkscape:window-y="35"
     inkscape:window-maximized="1"
     inkscape:current-layer="text9915" />
  <defs
     id="defs1849" />
  <g
     inkscape:label="Layer 1"
     inkscape:groupmode="layer"
     id="layer1">
    <g
       aria-label="1"
       id="text3068"
       style="font-weight:bold;font-size:123.472px;-inkscape-font-specification:'sans-serif Bold';text-align:center;text-anchor:middle;stroke-width:0.264583">
      <g
         aria-label="2"
         id="text9665"
         style="stroke-width:0.0700042">
        <g
           aria-label="4"
           id="text9852"
           style="font-size:123.472px;stroke-width:0.0185219">
          <g
             aria-label="6"
             id="text9915"
             style="stroke-width:0.00490059">
            <path
               d="m 36.618391,74.277346 q 0,-7.655264 1.111248,-15.063584 1.111248,-7.40832 3.827632,-13.952336 2.839856,-6.667488 7.778736,-11.729841 5.062352,-5.185824 12.717616,-8.02568 7.778736,-2.963328 18.767744,-2.963328 2.592912,0 6.050128,0.246944 3.457216,0.123472 5.803184,0.61736 v 14.940112 q -2.345968,-0.61736 -5.185824,-0.864304 -2.716384,-0.370416 -5.432768,-0.370416 -10.989008,0 -17.039136,3.457217 -5.926656,3.457216 -8.396096,9.754288 -2.46944,6.1736 -2.839856,14.322752 h 0.740832 q 2.46944,-4.32152 7.037904,-7.284848 4.691936,-2.963328 12.100256,-2.963328 11.606368,0 18.397328,7.284848 6.79096,7.284848 6.79096,20.619824 0,14.322752 -8.149152,22.471904 -8.02568,8.14915 -21.854544,8.14915 -9.013456,0 -16.298304,-4.07457 -7.284848,-4.19805 -11.606368,-12.71762 -4.32152,-8.64304 -4.32152,-21.854544 z M 68.474167,97.98397 q 5.432768,0 8.889984,-3.70416 3.457216,-3.827632 3.457216,-11.72984 0,-6.420544 -2.963328,-10.124704 -2.963328,-3.70416 -9.013456,-3.70416 -4.074576,0 -7.161376,1.85208 -3.0868,1.728608 -4.815408,4.568464 -1.728608,2.839856 -1.728608,5.803184 0,4.074576 1.481664,8.02568 1.481664,3.827632 4.444992,6.420544 3.0868,2.592912 7.40832,2.592912 z"
               id="path9917" />
          </g>
        </g>
      </g>
    </g>
  </g>
</svg>
