<?xml version="1.0" encoding="UTF-8" standalone="no"?>
<!-- Created with Inkscape (http://www.inkscape.org/) -->

<svg
   width="512"
   height="512"
   viewBox="0 0 135.46666 135.46667"
   version="1.1"
   id="svg1852"
   inkscape:export-filename="three.svg"
   inkscape:export-xdpi="96"
   inkscape:export-ydpi="96"
   xmlns:inkscape="http://www.inkscape.org/namespaces/inkscape"
   xmlns:sodipodi="http://sodipodi.sourceforge.net/DTD/sodipodi-0.dtd"
   xmlns="http://www.w3.org/2000/svg"
   xmlns:svg="http://www.w3.org/2000/svg">
  <sodipodi:namedview
     id="namedview1854"
     pagecolor="#ffffff"
     bordercolor="#000000"
     borderopacity="0.25"
     inkscape:showpageshadow="2"
     inkscape:pageopacity="0.0"
     inkscape:pagecheckerboard="0"
     inkscape:deskcolor="#d1d1d1"
     inkscape:document-units="mm"
     showgrid="false" />
  <defs
     id="defs1849" />
  <g
     inkscape:label="Layer 1"
     inkscape:groupmode="layer"
     id="layer1">
    <g
       aria-label="1"
       id="text3068"
       style="font-weight:bold;font-size:123.472px;-inkscape-font-specification:'sans-serif Bold';text-align:center;text-anchor:middle;stroke-width:0.264583">
      <g
         aria-label="2"
         id="text9665"
         style="stroke-width:0.0700042">
        <g
           aria-label="3"
           id="text9769"
           style="font-size:123.472px;stroke-width:0.0185219">
          <path
             d="m 95.638003,43.409355 q 0,9.136928 -5.55624,14.569696 -5.432768,5.432768 -13.458448,7.40832 v 0.370416 q 10.618592,1.23472 16.05136,6.420544 5.55624,5.185824 5.55624,13.952336 0,7.655264 -3.827632,13.828864 -3.70416,6.050129 -11.606368,9.630819 -7.778736,3.45721 -20.125936,3.45721 -14.322752,0 -25.435232,-4.8154 V 92.427739 q 5.679712,2.839856 11.853312,4.32152 6.297072,1.481664 11.606368,1.481664 10.001232,0 13.952336,-3.457216 4.074576,-3.457216 4.074576,-9.754288 0,-3.70416 -1.85208,-6.1736 -1.85208,-2.592912 -6.544016,-3.827632 -4.568464,-1.358192 -12.841088,-1.358192 H 50.817667 V 59.337243 h 6.79096 q 8.149152,0 12.3472,-1.481664 4.32152,-1.605136 5.803184,-4.198048 1.605136,-2.716384 1.605136,-6.1736 0,-4.691936 -2.963328,-7.284848 -2.839856,-2.716384 -9.630816,-2.716384 -6.297072,0 -10.989008,2.222496 -4.568464,2.099024 -7.778736,4.198048 l -8.64304,-12.841088 q 5.185824,-3.70416 12.100256,-6.1736 7.037904,-2.46944 16.66872,-2.46944 13.58192,0 21.484128,5.55624 8.02568,5.432768 8.02568,15.434 z"
             id="path9771" />
        </g>
      </g>
    </g>
  </g>
</svg>
