<?xml version="1.0" encoding="UTF-8" standalone="no"?>
<!-- Created with Inkscape (http://www.inkscape.org/) -->

<svg
   width="24"
   height="24"
   viewBox="0 0 6.3499999 6.35"
   version="1.1"
   id="svg5"
   inkscape:version="1.2.2 (b0a8486541, 2022-12-01)"
   sodipodi:docname="trhee.svg"
   xmlns:inkscape="http://www.inkscape.org/namespaces/inkscape"
   xmlns:sodipodi="http://sodipodi.sourceforge.net/DTD/sodipodi-0.dtd"
   xmlns="http://www.w3.org/2000/svg"
   xmlns:svg="http://www.w3.org/2000/svg">
  <sodipodi:namedview
     id="namedview7"
     pagecolor="#ffffff"
     bordercolor="#000000"
     borderopacity="0.25"
     inkscape:showpageshadow="2"
     inkscape:pageopacity="0.0"
     inkscape:pagecheckerboard="0"
     inkscape:deskcolor="#d1d1d1"
     inkscape:document-units="mm"
     showgrid="false"
     inkscape:zoom="23.746577"
     inkscape:cx="13.075569"
     inkscape:cy="11.643784"
     inkscape:window-width="1920"
     inkscape:window-height="1009"
     inkscape:window-x="0"
     inkscape:window-y="35"
     inkscape:window-maximized="1"
     inkscape:current-layer="text646" />
  <defs
     id="defs2" />
  <g
     inkscape:label="Layer 1"
     inkscape:groupmode="layer"
     id="layer1">
    <g
       aria-label="+/-"
       id="text646"
       style="font-weight:bold;font-size:3.52778px;-inkscape-font-specification:'sans-serif Bold';text-align:center;text-anchor:middle;fill:#1a1a1a;stroke-width:0.264583">
      <g
         aria-label="3"
         id="text818"
         style="font-size:6.35px;stroke-width:0.0700042">
        <path
           d="m 4.6101,1.9240499 q 0,0.4699 -0.28575,0.7493 -0.2794,0.2794 -0.6921499,0.381 v 0.01905 q 0.5460999,0.0635 0.8254999,0.3302 0.28575,0.2667 0.28575,0.71755 0,0.3937 -0.19685,0.7112 -0.1905,0.3111499 -0.5968999,0.4952999 -0.40005,0.1778 -1.03505,0.1778 -0.7366,0 -1.3081,-0.24765 V 4.4449999 q 0.2921,0.14605 0.6096,0.22225 0.32385,0.0762 0.5969,0.0762 0.51435,0 0.71755,-0.1778 0.20955,-0.1778 0.20955,-0.50165 0,-0.1905 -0.09525,-0.3175 -0.09525,-0.13335 -0.33655,-0.19685 -0.23495,-0.06985 -0.6604,-0.06985 h -0.3429 v -0.7366 h 0.34925 q 0.4191,0 0.635,-0.0762 0.22225,-0.08255 0.29845,-0.2159 0.08255,-0.1397 0.08255,-0.3175 0,-0.2413 -0.1524,-0.37465 -0.14605,-0.1397 -0.4953,-0.1397 -0.32385,0 -0.56515,0.1143 -0.23495,0.10795 -0.40005,0.2159 l -0.4445,-0.6604 q 0.2667,-0.1905 0.6223,-0.31749999 0.36195,-0.127 0.85725,-0.127 0.6985,0 1.1048999,0.28574999 0.41275,0.2794 0.41275,0.79375 z"
           id="path820" />
      </g>
    </g>
  </g>
</svg>
