<?xml version="1.0" encoding="UTF-8" standalone="no"?>
<!-- Created with Inkscape (http://www.inkscape.org/) -->

<svg
   width="512"
   height="512"
   viewBox="0 0 135.46666 135.46667"
   version="1.1"
   id="svg1852"
   inkscape:export-filename="two.svg"
   inkscape:export-xdpi="96"
   inkscape:export-ydpi="96"
   xmlns:inkscape="http://www.inkscape.org/namespaces/inkscape"
   xmlns:sodipodi="http://sodipodi.sourceforge.net/DTD/sodipodi-0.dtd"
   xmlns="http://www.w3.org/2000/svg"
   xmlns:svg="http://www.w3.org/2000/svg">
  <sodipodi:namedview
     id="namedview1854"
     pagecolor="#ffffff"
     bordercolor="#000000"
     borderopacity="0.25"
     inkscape:showpageshadow="2"
     inkscape:pageopacity="0.0"
     inkscape:pagecheckerboard="0"
     inkscape:deskcolor="#d1d1d1"
     inkscape:document-units="mm"
     showgrid="false" />
  <defs
     id="defs1849" />
  <g
     inkscape:label="Layer 1"
     inkscape:groupmode="layer"
     id="layer1">
    <g
       aria-label="1"
       id="text3068"
       style="font-weight:bold;font-size:123.472px;-inkscape-font-specification:'sans-serif Bold';text-align:center;text-anchor:middle;stroke-width:0.264583">
      <g
         aria-label="2"
         id="text9665"
         style="stroke-width:0.0700042">
        <path
           d="M 98.663068,112.4302 H 37.05054 V 99.465639 L 59.152028,77.117207 q 6.667488,-6.914432 10.742064,-11.482896 4.074576,-4.691936 5.926656,-8.396096 1.85208,-3.827632 1.85208,-8.149152 0,-5.309296 -2.963328,-7.902208 -2.839856,-2.592912 -7.778736,-2.592912 -5.062352,0 -9.87776,2.345968 -4.815408,2.345968 -10.124704,6.667488 L 36.803596,35.630615 q 3.827632,-3.333744 8.02568,-6.1736 4.32152,-2.839856 9.87776,-4.568464 5.679712,-1.85208 13.58192,-1.85208 8.64304,0 14.81664,3.210272 6.297072,3.0868 9.630816,8.519568 3.457216,5.309296 3.457216,12.100256 0,7.284848 -2.963328,13.334976 -2.839856,6.050128 -8.396096,11.976784 Q 79.401436,78.104983 71.6227,85.266359 L 60.263276,95.884951 v 0.864304 h 38.399792 z"
           id="path9667" />
      </g>
    </g>
  </g>
</svg>
