<?xml version="1.0" encoding="UTF-8" standalone="no"?>
<!-- Created with Inkscape (http://www.inkscape.org/) -->

<svg
   width="24"
   height="24"
   viewBox="0 0 6.3499999 6.35"
   version="1.1"
   id="svg5"
   inkscape:version="1.2.2 (b0a8486541, 2022-12-01)"
   sodipodi:docname="two.svg"
   xmlns:inkscape="http://www.inkscape.org/namespaces/inkscape"
   xmlns:sodipodi="http://sodipodi.sourceforge.net/DTD/sodipodi-0.dtd"
   xmlns="http://www.w3.org/2000/svg"
   xmlns:svg="http://www.w3.org/2000/svg">
  <sodipodi:namedview
     id="namedview7"
     pagecolor="#ffffff"
     bordercolor="#000000"
     borderopacity="0.25"
     inkscape:showpageshadow="2"
     inkscape:pageopacity="0.0"
     inkscape:pagecheckerboard="0"
     inkscape:deskcolor="#d1d1d1"
     inkscape:document-units="mm"
     showgrid="false"
     inkscape:zoom="23.746577"
     inkscape:cx="13.075569"
     inkscape:cy="12.317565"
     inkscape:window-width="1920"
     inkscape:window-height="1009"
     inkscape:window-x="0"
     inkscape:window-y="35"
     inkscape:window-maximized="1"
     inkscape:current-layer="text646" />
  <defs
     id="defs2" />
  <g
     inkscape:label="Layer 1"
     inkscape:groupmode="layer"
     id="layer1">
    <g
       aria-label="+/-"
       id="text646"
       style="font-weight:bold;font-size:3.52778px;-inkscape-font-specification:'sans-serif Bold';text-align:center;text-anchor:middle;fill:#1a1a1a;stroke-width:0.264583">
      <g
         aria-label="2"
         id="text788"
         style="font-size:6.35px;stroke-width:0.0700042">
        <path
           d="m 4.7656749,5.4737 h -3.16865 V 4.8069501 l 1.13665,-1.14935 q 0.3429,-0.3556 0.55245,-0.59055 0.20955,-0.2413 0.3048,-0.4318 0.09525,-0.19685 0.09525,-0.4191 0,-0.27305 -0.1524,-0.4064 -0.14605,-0.13335 -0.40005,-0.13335 -0.26035,0 -0.508,0.12065 -0.24765,0.12065 -0.5207,0.3429 l -0.5207,-0.61595 q 0.19685,-0.17145 0.41275,-0.3175 0.22225,-0.14605 0.508,-0.23494999 0.2921,-0.09525 0.6985,-0.09525 0.4445,0 0.762,0.16509998 0.32385,0.15875 0.4953,0.43815 0.1778,0.27305 0.1778,0.6223 0,0.37465 -0.1524,0.6858 -0.14605,0.31115 -0.4318,0.61595 -0.2794,0.3048 -0.67945,0.6731 l -0.5842,0.5461 v 0.04445 h 1.97485 z"
           id="path790" />
      </g>
    </g>
  </g>
</svg>
