<?xml version="1.0" encoding="UTF-8" standalone="no"?>
<!-- Created with Inkscape (http://www.inkscape.org/) -->

<svg
   width="24"
   height="24"
   viewBox="0 0 6.3499999 6.35"
   version="1.1"
   id="svg5"
   inkscape:version="1.2.2 (b0a8486541, 2022-12-01)"
   sodipodi:docname="zero.svg"
   xmlns:inkscape="http://www.inkscape.org/namespaces/inkscape"
   xmlns:sodipodi="http://sodipodi.sourceforge.net/DTD/sodipodi-0.dtd"
   xmlns="http://www.w3.org/2000/svg"
   xmlns:svg="http://www.w3.org/2000/svg">
  <sodipodi:namedview
     id="namedview7"
     pagecolor="#ffffff"
     bordercolor="#000000"
     borderopacity="0.25"
     inkscape:showpageshadow="2"
     inkscape:pageopacity="0.0"
     inkscape:pagecheckerboard="0"
     inkscape:deskcolor="#d1d1d1"
     inkscape:document-units="mm"
     showgrid="false"
     inkscape:zoom="23.746577"
     inkscape:cx="13.075569"
     inkscape:cy="12.317565"
     inkscape:window-width="1920"
     inkscape:window-height="1009"
     inkscape:window-x="0"
     inkscape:window-y="35"
     inkscape:window-maximized="1"
     inkscape:current-layer="text646" />
  <defs
     id="defs2" />
  <g
     inkscape:label="Layer 1"
     inkscape:groupmode="layer"
     id="layer1">
    <g
       aria-label="+/-"
       id="text646"
       style="font-weight:bold;font-size:3.52778px;-inkscape-font-specification:'sans-serif Bold';text-align:center;text-anchor:middle;fill:#1a1a1a;stroke-width:0.264583">
      <g
         aria-label="0"
         id="text728"
         style="font-size:6.35px;font-family:'AvantGarde LT Medium';-inkscape-font-specification:'AvantGarde LT Medium,  Bold';stroke-width:0.0700042">
        <path
           d="m 4.759325,3.1781751 q 0,0.73025 -0.15875,1.25095 -0.1524,0.5207 -0.50165,0.8001 -0.3429,0.2794 -0.9271,0.2794 -0.8191499,0 -1.2001499,-0.61595 -0.381,-0.6223 -0.381,-1.7145 0,-0.7366 0.1524,-1.2572999 0.1524,-0.5207 0.50165,-0.8001 0.34925,-0.27940003 0.9270999,-0.27940003 0.8128,0 1.20015,0.61595003 0.38735,0.61595 0.38735,1.7208499 z m -2.2161499,0 q 0,0.7747 0.13335,1.1684 0.1333499,0.38735 0.4952999,0.38735 0.3556,0 0.4953,-0.38735 0.1397,-0.38735 0.1397,-1.1684 0,-0.7747 -0.1397,-1.1683999 -0.1397,-0.3937 -0.4953,-0.3937 -0.36195,0 -0.4952999,0.3937 -0.13335,0.3936999 -0.13335,1.1683999 z"
           style="font-family:sans-serif;-inkscape-font-specification:'sans-serif Bold'"
           id="path730" />
      </g>
    </g>
  </g>
</svg>
