<?xml version="1.0" encoding="UTF-8" standalone="no"?>
<!-- Created with Inkscape (http://www.inkscape.org/) -->

<svg
   width="512"
   height="512"
   viewBox="0 0 135.46666 135.46667"
   version="1.1"
   id="svg1852"
   inkscape:export-filename="three.svg"
   inkscape:export-xdpi="96"
   inkscape:export-ydpi="96"
   inkscape:version="1.2.2 (b0a8486541, 2022-12-01)"
   sodipodi:docname="zero.svg"
   xmlns:inkscape="http://www.inkscape.org/namespaces/inkscape"
   xmlns:sodipodi="http://sodipodi.sourceforge.net/DTD/sodipodi-0.dtd"
   xmlns="http://www.w3.org/2000/svg"
   xmlns:svg="http://www.w3.org/2000/svg">
  <sodipodi:namedview
     id="namedview1854"
     pagecolor="#ffffff"
     bordercolor="#000000"
     borderopacity="0.25"
     inkscape:showpageshadow="2"
     inkscape:pageopacity="0.0"
     inkscape:pagecheckerboard="0"
     inkscape:deskcolor="#d1d1d1"
     inkscape:document-units="mm"
     showgrid="false"
     inkscape:zoom="1.1253621"
     inkscape:cx="266.13655"
     inkscape:cy="259.91633"
     inkscape:window-width="1920"
     inkscape:window-height="1009"
     inkscape:window-x="0"
     inkscape:window-y="35"
     inkscape:window-maximized="1"
     inkscape:current-layer="text9915" />
  <defs
     id="defs1849" />
  <g
     inkscape:label="Layer 1"
     inkscape:groupmode="layer"
     id="layer1">
    <g
       aria-label="1"
       id="text3068"
       style="font-weight:bold;font-size:123.472px;-inkscape-font-specification:'sans-serif Bold';text-align:center;text-anchor:middle;stroke-width:0.264583">
      <g
         aria-label="2"
         id="text9665"
         style="stroke-width:0.0700042">
        <g
           aria-label="4"
           id="text9852"
           style="font-size:123.472px;stroke-width:0.0185219">
          <g
             aria-label="6"
             id="text9915"
             style="stroke-width:0.00490059">
            <g
               aria-label="0"
               id="text10046"
               style="font-size:123.472px;stroke-width:0.00129661">
              <path
                 d="m 98.539594,67.795069 q 0,14.19928 -3.0868,24.323984 -2.963328,10.124707 -9.754288,15.557467 -6.667488,5.43277 -18.026912,5.43277 -15.927888,0 -23.336208,-11.97678 -7.40832,-12.100257 -7.40832,-33.337441 0,-14.322752 2.963328,-24.447456 2.963328,-10.124704 9.754288,-15.557472 6.79096,-5.432768 18.026912,-5.432768 15.804416,0 23.336208,11.976784 7.531792,11.976784 7.531792,33.460912 z m -43.091728,0 q 0,15.063584 2.592912,22.718848 2.592912,7.531792 9.630816,7.531792 6.914432,0 9.630816,-7.531792 2.716384,-7.531792 2.716384,-22.718848 0,-15.063584 -2.716384,-22.718848 -2.716384,-7.655264 -9.630816,-7.655264 -7.037904,0 -9.630816,7.655264 -2.592912,7.655264 -2.592912,22.718848 z"
                 id="path10048" />
            </g>
          </g>
        </g>
      </g>
    </g>
  </g>
</svg>
