<?xml version="1.0" encoding="UTF-8" standalone="no"?>
<!-- Created with Inkscape (http://www.inkscape.org/) -->

<svg
   width="24"
   height="24"
   viewBox="0 0 6.3499999 6.35"
   version="1.1"
   id="svg5"
   inkscape:version="1.2.2 (b0a8486541, 2022-12-01)"
   sodipodi:docname="acos.svg"
   xmlns:inkscape="http://www.inkscape.org/namespaces/inkscape"
   xmlns:sodipodi="http://sodipodi.sourceforge.net/DTD/sodipodi-0.dtd"
   xmlns="http://www.w3.org/2000/svg"
   xmlns:svg="http://www.w3.org/2000/svg">
  <sodipodi:namedview
     id="namedview7"
     pagecolor="#ffffff"
     bordercolor="#000000"
     borderopacity="0.25"
     inkscape:showpageshadow="2"
     inkscape:pageopacity="0.0"
     inkscape:pagecheckerboard="0"
     inkscape:deskcolor="#d1d1d1"
     inkscape:document-units="mm"
     showgrid="false"
     inkscape:zoom="23.7505"
     inkscape:cx="12.105008"
     inkscape:cy="10.841877"
     inkscape:window-width="1920"
     inkscape:window-height="1009"
     inkscape:window-x="0"
     inkscape:window-y="35"
     inkscape:window-maximized="1"
     inkscape:current-layer="layer1" />
  <defs
     id="defs2" />
  <g
     inkscape:label="Layer 1"
     inkscape:groupmode="layer"
     id="layer1">
    <g
       aria-label="acos⁻¹"
       id="text429"
       style="font-weight:bold;font-size:2.11667px;-inkscape-font-specification:'sans-serif Bold';text-align:center;text-anchor:middle;fill:#1a1a1a;stroke-width:0.264583">
      <path
         d="m 0.72389766,2.8786664 q 0.23283368,0 0.35560054,0.1016001 0.1248835,0.099484 0.1248835,0.3069172 V 4.0576515 H 0.98424805 L 0.92286463,3.9010179 h -0.008467 q -0.0740835,0.093133 -0.15663358,0.1354669 -0.0825501,0.042333 -0.22648367,0.042333 -0.15451691,0 -0.25611706,-0.0889 -0.10160016,-0.091017 -0.10160016,-0.2772838 0,-0.1841503 0.12911687,-0.2709337 0.12911686,-0.0889 0.38735059,-0.097367 l 0.20108364,-0.00635 v -0.0508 q 0,-0.091017 -0.0486834,-0.1333502 -0.0465667,-0.042333 -0.13123353,-0.042333 -0.0846668,0 -0.16510025,0.0254 -0.0804335,0.023283 -0.16086692,0.059267 L 0.28151365,2.9823832 q 0.0931335,-0.048683 0.20531698,-0.0762 0.11430017,-0.027517 0.23706703,-0.027517 z m 0.0444501,0.647701 q -0.15240023,0.00423 -0.21166698,0.055033 -0.0592668,0.0508 -0.0592668,0.1333502 0,0.071967 0.0423334,0.1037168 0.0423334,0.029633 0.11006683,0.029633 0.10160016,0 0.17145026,-0.059267 0.0698501,-0.061383 0.0698501,-0.1714502 v -0.09525 z"
         id="path431" />
      <path
         d="m 1.9981332,4.0788182 q -0.2582338,0 -0.4000506,-0.1418169 -0.1397003,-0.1439335 -0.1397003,-0.4508507 0,-0.2116669 0.071967,-0.3450171 0.071967,-0.1333502 0.198967,-0.1968503 0.1291169,-0.0635 0.2963338,-0.0635 0.1185335,0 0.205317,0.023283 0.0889,0.023283 0.1545169,0.055033 l -0.093133,0.2434171 q -0.074083,-0.029633 -0.1397002,-0.048683 -0.0635,-0.01905 -0.1270002,-0.01905 -0.2455337,0 -0.2455337,0.3492506 0,0.1735669 0.0635,0.256117 0.065617,0.08255 0.1820336,0.08255 0.099484,0 0.1756836,-0.0254 0.0762,-0.027517 0.1481669,-0.074083 v 0.2688171 q -0.071967,0.046567 -0.1524003,0.065617 -0.078317,0.021167 -0.1989669,0.021167 z"
         id="path433" />
      <path
         d="m 3.6660688,3.477684 q 0,0.2878671 -0.1524002,0.4445006 -0.1502836,0.1566336 -0.410634,0.1566336 -0.1608669,0 -0.2878671,-0.06985 Q 2.690284,3.939118 2.6183172,3.8057678 2.5463505,3.6703009 2.5463505,3.477684 q 0,-0.2878671 0.1502835,-0.442384 0.1502836,-0.1545169 0.4127506,-0.1545169 0.1629836,0 0.2878671,0.06985 0.1248836,0.06985 0.1968503,0.2032003 0.071967,0.1312335 0.071967,0.3238505 z m -0.7979845,0 q 0,0.1714502 0.055033,0.2603504 0.05715,0.086783 0.1841503,0.086783 0.1248835,0 0.1799169,-0.086783 0.05715,-0.0889 0.05715,-0.2603504 0,-0.1714503 -0.05715,-0.2561171 -0.055033,-0.086784 -0.1820336,-0.086784 -0.1248835,0 -0.1820336,0.086784 -0.055033,0.084667 -0.055033,0.2561171 z"
         id="path435" />
      <path
         d="m 4.7328696,3.714751 q 0,0.1756836 -0.1248835,0.2709337 -0.1227668,0.093133 -0.3683005,0.093133 -0.1206502,0 -0.2074337,-0.016933 -0.086784,-0.014817 -0.1735669,-0.0508 V 3.7507344 q 0.093133,0.042333 0.2010836,0.06985 0.1079502,0.027517 0.1905003,0.027517 0.093134,0 0.1312335,-0.027517 0.040217,-0.027517 0.040217,-0.071967 0,-0.029633 -0.016933,-0.052917 -0.014817,-0.023283 -0.067733,-0.052917 -0.052917,-0.029633 -0.1651003,-0.0762 Q 4.064002,3.5200174 3.9941519,3.4755673 3.9243017,3.4290006 3.890435,3.3655005 3.8565683,3.2998837 3.8565683,3.2025169 q 0,-0.1608669 0.1248835,-0.2413004 0.1248836,-0.080433 0.3323172,-0.080433 0.1079502,0 0.205317,0.021167 0.097367,0.021167 0.2010836,0.06985 l -0.09525,0.2264836 q -0.084667,-0.035983 -0.1608669,-0.059267 -0.0762,-0.0254 -0.1545169,-0.0254 -0.1397002,0 -0.1397002,0.0762 0,0.027517 0.016933,0.0508 0.01905,0.021167 0.06985,0.046567 0.052917,0.0254 0.1545169,0.067733 0.099483,0.040217 0.1714503,0.084667 0.071967,0.042333 0.1100668,0.1079502 0.040217,0.0635 0.040217,0.1672169 z"
         id="path437" />
      <path
         d="M 4.8873859,2.8638497 V 2.7199161 h 0.6117176 v 0.1439336 z"
         id="path439" />
      <path
         d="M 6.1764363,2.2711821 V 3.1771168 H 5.9309026 v -0.461434 q 0,-0.027517 0,-0.071967 0.00212,-0.04445 0.00423,-0.084667 0.00212,-0.042333 0.00423,-0.05715 -0.0127,0.016933 -0.0381,0.042333 -0.023283,0.023283 -0.040217,0.0381 l -0.080433,0.0635 L 5.6684355,2.5145992 5.979586,2.2711821 Z"
         id="path441" />
    </g>
  </g>
</svg>
