<?xml version="1.0" encoding="UTF-8" standalone="no"?>
<!-- Created with Inkscape (http://www.inkscape.org/) -->

<svg
   width="24"
   height="24"
   viewBox="0 0 6.3499999 6.35"
   version="1.1"
   id="svg5"
   inkscape:version="1.2.2 (b0a8486541, 2022-12-01)"
   sodipodi:docname="arcsin.svg"
   xmlns:inkscape="http://www.inkscape.org/namespaces/inkscape"
   xmlns:sodipodi="http://sodipodi.sourceforge.net/DTD/sodipodi-0.dtd"
   xmlns="http://www.w3.org/2000/svg"
   xmlns:svg="http://www.w3.org/2000/svg">
  <sodipodi:namedview
     id="namedview7"
     pagecolor="#ffffff"
     bordercolor="#000000"
     borderopacity="0.25"
     inkscape:showpageshadow="2"
     inkscape:pageopacity="0.0"
     inkscape:pagecheckerboard="0"
     inkscape:deskcolor="#d1d1d1"
     inkscape:document-units="mm"
     showgrid="false"
     inkscape:zoom="23.7505"
     inkscape:cx="12.105008"
     inkscape:cy="10.841877"
     inkscape:window-width="1920"
     inkscape:window-height="1009"
     inkscape:window-x="0"
     inkscape:window-y="35"
     inkscape:window-maximized="1"
     inkscape:current-layer="layer1" />
  <defs
     id="defs2" />
  <g
     inkscape:label="Layer 1"
     inkscape:groupmode="layer"
     id="layer1">
    <g
       aria-label="sinh⁻¹"
       id="text385"
       style="font-weight:bold;font-size:2.11667px;-inkscape-font-specification:'sans-serif Bold';text-align:center;text-anchor:middle;fill:#1a1a1a;stroke-width:0.264583">
      <path
         d="m 1.1779236,3.714751 q 0,0.1756836 -0.1248835,0.2709337 -0.12276687,0.093133 -0.36830058,0.093133 -0.12065018,0 -0.20743365,-0.016933 -0.0867835,-0.014817 -0.17356693,-0.0508 V 3.7507344 q 0.0931335,0.042333 0.20108364,0.06985 0.10795016,0.027517 0.19050029,0.027517 0.0931335,0 0.13123353,-0.027517 0.0402167,-0.027517 0.0402167,-0.071967 0,-0.029633 -0.0169334,-0.052917 -0.0148167,-0.023283 -0.0677334,-0.052917 -0.0529167,-0.029633 -0.16510025,-0.0762 Q 0.50905592,3.5200174 0.43920581,3.4755673 0.3693557,3.4290006 0.33548899,3.3655005 0.30162227,3.2998837 0.30162227,3.2025169 q 0,-0.1608669 0.12488352,-0.2413004 0.12488353,-0.080433 0.33231718,-0.080433 0.10795016,0 0.20531697,0.021167 0.0973669,0.021167 0.20108366,0.06985 l -0.09525,0.2264836 q -0.0846668,-0.035983 -0.16086687,-0.059267 -0.0762001,-0.0254 -0.1545169,-0.0254 -0.13970022,0 -0.13970022,0.0762 0,0.027517 0.0169334,0.0508 0.01905,0.021167 0.0698501,0.046567 0.0529167,0.0254 0.1545169,0.067733 0.0994835,0.040217 0.17145022,0.084667 0.071967,0.042333 0.1100669,0.1079502 0.040217,0.0635 0.040217,0.1672169 z"
         id="path387" />
      <path
         d="m 1.582207,2.4489824 q 0.06985,0 0.1206502,0.033867 0.0508,0.03175 0.0508,0.1206502 0,0.086783 -0.0508,0.1206502 -0.0508,0.033867 -0.1206502,0.033867 -0.071967,0 -0.1227668,-0.033867 -0.048683,-0.033867 -0.048683,-0.1206502 0,-0.0889 0.048683,-0.1206502 0.0508,-0.033867 0.1227668,-0.033867 z M 1.7388406,2.9019498 V 4.0576515 H 1.4234568 V 2.9019498 Z"
         id="path389" />
      <path
         d="m 2.7252094,2.8807831 q 0.186267,0 0.2984505,0.1016001 0.1121835,0.099483 0.1121835,0.3217338 V 4.0576515 H 2.8204596 V 3.3824338 q 0,-0.1248835 -0.04445,-0.1862669 -0.04445,-0.0635 -0.1418169,-0.0635 -0.1439335,0 -0.1968503,0.099483 -0.052917,0.097367 -0.052917,0.2815171 V 4.0576515 H 2.0690417 V 2.9019498 h 0.2413004 l 0.042333,0.1481669 h 0.016933 q 0.055033,-0.0889 0.1502835,-0.1291169 0.097367,-0.040217 0.205317,-0.040217 z"
         id="path391" />
      <path
         d="m 3.7750768,2.7770662 q 0,0.084667 -0.00635,0.1629836 -0.00423,0.078317 -0.00847,0.1100669 h 0.016933 q 0.055033,-0.0889 0.1418168,-0.1291169 0.086784,-0.040217 0.192617,-0.040217 0.1883836,0 0.3005671,0.1016001 0.1143002,0.099483 0.1143002,0.3217338 V 4.0576515 H 4.2111108 V 3.3824338 q 0,-0.249767 -0.186267,-0.249767 -0.1418169,0 -0.1968503,0.099483 -0.052917,0.097367 -0.052917,0.2815171 V 4.0576515 H 3.459693 V 2.4489824 h 0.3153838 z"
         id="path393" />
      <path
         d="M 4.7593274,2.8638497 V 2.7199161 H 5.371045 v 0.1439336 z"
         id="path395" />
      <path
         d="M 6.0483778,2.2711821 V 3.1771168 H 5.8028441 v -0.461434 q 0,-0.027517 0,-0.071967 0.00212,-0.04445 0.00423,-0.084667 0.00212,-0.042333 0.00423,-0.05715 -0.0127,0.016933 -0.0381,0.042333 -0.023283,0.023283 -0.040217,0.0381 l -0.080433,0.0635 L 5.540377,2.5145992 5.8515275,2.2711821 Z"
         id="path397" />
    </g>
  </g>
</svg>
