<?xml version="1.0" encoding="UTF-8" standalone="no"?>
<!-- Created with Inkscape (http://www.inkscape.org/) -->

<svg
   width="24"
   height="24"
   viewBox="0 0 6.3499999 6.35"
   version="1.1"
   id="svg5"
   inkscape:version="1.2.2 (b0a8486541, 2022-12-01)"
   sodipodi:docname="atanh.svg"
   xmlns:inkscape="http://www.inkscape.org/namespaces/inkscape"
   xmlns:sodipodi="http://sodipodi.sourceforge.net/DTD/sodipodi-0.dtd"
   xmlns="http://www.w3.org/2000/svg"
   xmlns:svg="http://www.w3.org/2000/svg">
  <sodipodi:namedview
     id="namedview7"
     pagecolor="#ffffff"
     bordercolor="#000000"
     borderopacity="0.25"
     inkscape:showpageshadow="2"
     inkscape:pageopacity="0.0"
     inkscape:pagecheckerboard="0"
     inkscape:deskcolor="#d1d1d1"
     inkscape:document-units="mm"
     showgrid="false"
     inkscape:zoom="23.7505"
     inkscape:cx="12.105008"
     inkscape:cy="10.841877"
     inkscape:window-width="1920"
     inkscape:window-height="1009"
     inkscape:window-x="0"
     inkscape:window-y="35"
     inkscape:window-maximized="1"
     inkscape:current-layer="layer1" />
  <defs
     id="defs2" />
  <g
     inkscape:label="Layer 1"
     inkscape:groupmode="layer"
     id="layer1">
    <g
       aria-label="atanh"
       id="text473"
       style="font-weight:bold;font-size:1.76389px;-inkscape-font-specification:'sans-serif Bold';text-align:center;text-anchor:middle;fill:#1a1a1a;stroke-width:0.264583">
      <path
         d="m 1.1297696,2.8539719 q 0.1940279,0 0.2963335,0.084667 0.1040695,0.082903 0.1040695,0.255764 v 0.642056 H 1.3467281 L 1.2955752,3.7059308 h -0.00706 q -0.061736,0.077611 -0.1305279,0.112889 -0.068792,0.035278 -0.18873621,0.035278 -0.12876397,0 -0.21343069,-0.074083 -0.0846667,-0.075847 -0.0846667,-0.2310696 0,-0.1534584 0.10759729,-0.2257779 0.10759729,-0.074083 0.32279183,-0.081139 l 0.1675696,-0.00529 v -0.042333 q 0,-0.075847 -0.040569,-0.1111251 -0.038806,-0.035278 -0.1093612,-0.035278 -0.070556,0 -0.13758338,0.021167 -0.0670278,0.019403 -0.13405564,0.049389 L 0.76111657,2.9404025 q 0.0776112,-0.040569 0.17109733,-0.0635 0.0952501,-0.022931 0.1975557,-0.022931 z m 0.037042,0.5397504 q -0.1270001,0.00353 -0.17638903,0.045861 -0.0493889,0.042333 -0.0493889,0.1111251 0,0.059972 0.0352778,0.086431 0.0352779,0.024694 0.0917223,0.024694 0.084667,0 0.1428751,-0.049389 0.058208,-0.051153 0.058208,-0.142875 v -0.079375 z"
         id="path475" />
      <path
         d="m 2.2057427,3.6441947 q 0.044097,0 0.084667,-0.00882 0.040569,-0.00882 0.081139,-0.021167 v 0.1957918 q -0.042333,0.017639 -0.1058334,0.029986 -0.061736,0.014111 -0.1358195,0.014111 -0.086431,0 -0.1552223,-0.028222 Q 1.9076453,3.7976531 1.8670758,3.7288614 1.8282702,3.6583058 1.8282702,3.5348335 V 3.0709304 H 1.703034 V 2.9598053 L 1.847673,2.8716108 1.9235203,2.6687635 H 2.0910898 V 2.8733747 H 2.360965 V 3.0709304 H 2.0910898 v 0.4639031 q 0,0.054681 0.03175,0.082903 0.03175,0.026458 0.082903,0.026458 z"
         id="path477" />
      <path
         d="m 2.9606877,2.8539719 q 0.1940279,0 0.2963335,0.084667 0.1040695,0.082903 0.1040695,0.255764 v 0.642056 H 3.1776461 L 3.1264933,3.7059308 h -0.00706 q -0.061736,0.077611 -0.1305279,0.112889 -0.068792,0.035278 -0.1887362,0.035278 -0.128764,0 -0.2134307,-0.074083 -0.084667,-0.075847 -0.084667,-0.2310696 0,-0.1534584 0.1075972,-0.2257779 0.1075973,-0.074083 0.3227919,-0.081139 l 0.1675696,-0.00529 v -0.042333 q 0,-0.075847 -0.04057,-0.1111251 -0.038806,-0.035278 -0.1093612,-0.035278 -0.070556,0 -0.1375834,0.021167 -0.067028,0.019403 -0.1340556,0.049389 L 2.5920346,2.9404025 q 0.077611,-0.040569 0.1710974,-0.0635 0.09525,-0.022931 0.1975557,-0.022931 z m 0.037042,0.5397504 q -0.1270001,0.00353 -0.1763891,0.045861 -0.049389,0.042333 -0.049389,0.1111251 0,0.059972 0.035278,0.086431 0.035278,0.024694 0.091722,0.024694 0.084667,0 0.1428751,-0.049389 0.058208,-0.051153 0.058208,-0.142875 v -0.079375 z"
         id="path479" />
      <path
         d="m 4.1777721,2.8557358 q 0.1552223,0 0.2487085,0.084667 0.093486,0.082903 0.093486,0.2681113 V 3.8364587 H 4.2571471 V 3.2737778 q 0,-0.1040695 -0.037042,-0.1552224 -0.037042,-0.052917 -0.1181806,-0.052917 -0.1199445,0 -0.1640418,0.082903 -0.044097,0.081139 -0.044097,0.2345973 V 3.8364587 H 3.6309662 v -0.963084 h 0.2010834 l 0.035278,0.1234723 h 0.014111 q 0.045861,-0.074083 0.1252361,-0.1075973 0.081139,-0.033514 0.1710974,-0.033514 z"
         id="path481" />
      <path
         d="m 5.0526608,2.7693052 q 0,0.070556 -0.00529,0.1358195 -0.00353,0.065264 -0.00706,0.091722 h 0.014111 q 0.045861,-0.074083 0.1181806,-0.1075973 0.072319,-0.033514 0.160514,-0.033514 0.1569862,0 0.2504724,0.084667 0.09525,0.082903 0.09525,0.2681113 V 3.8364587 H 5.4160221 V 3.2737778 q 0,-0.2081391 -0.1552223,-0.2081391 -0.1181806,0 -0.1640418,0.082903 -0.044097,0.081139 -0.044097,0.2345973 V 3.8364587 H 4.7898412 V 2.4959023 h 0.2628196 z"
         id="path483" />
    </g>
  </g>
</svg>
