<?xml version="1.0" encoding="UTF-8" standalone="no"?>
<!-- Created with Inkscape (http://www.inkscape.org/) -->

<svg
   width="512"
   height="512"
   viewBox="0 0 135.46666 135.46667"
   version="1.1"
   id="svg5"
   inkscape:version="1.2.2 (b0a8486541, 2022-12-01)"
   sodipodi:docname="cos-1.svg"
   xmlns:inkscape="http://www.inkscape.org/namespaces/inkscape"
   xmlns:sodipodi="http://sodipodi.sourceforge.net/DTD/sodipodi-0.dtd"
   xmlns="http://www.w3.org/2000/svg"
   xmlns:svg="http://www.w3.org/2000/svg">
  <sodipodi:namedview
     id="namedview7"
     pagecolor="#ffffff"
     bordercolor="#000000"
     borderopacity="0.25"
     inkscape:showpageshadow="2"
     inkscape:pageopacity="0.0"
     inkscape:pagecheckerboard="0"
     inkscape:deskcolor="#d1d1d1"
     inkscape:document-units="mm"
     showgrid="false"
     inkscape:zoom="0.74208053"
     inkscape:cx="396.8572"
     inkscape:cy="346.99738"
     inkscape:window-width="1920"
     inkscape:window-height="1009"
     inkscape:window-x="0"
     inkscape:window-y="35"
     inkscape:window-maximized="1"
     inkscape:current-layer="layer1" />
  <defs
     id="defs2" />
  <g
     inkscape:label="Layer 1"
     inkscape:groupmode="layer"
     id="layer1">
    <g
       aria-label="cos⁻¹"
       id="text470"
       style="font-weight:bold;font-size:56.4444px;-inkscape-font-specification:'sans-serif Bold';text-align:center;text-anchor:middle;stroke-width:0.264583">
      <path
         d="m 19.305847,93.306181 q -6.886217,0 -10.6679917,-3.781774 -3.7253305,-3.83822 -3.7253305,-12.022658 0,-5.64444 1.9191096,-9.200437 1.9191097,-3.555997 5.3057736,-5.249329 3.443109,-1.693332 7.902216,-1.693332 3.160887,0 5.475107,0.620888 2.370665,0.620888 4.120441,1.467554 l -2.483553,6.491106 q -1.975554,-0.790221 -3.725331,-1.298221 -1.693332,-0.507999 -3.386664,-0.507999 -6.54755,0 -6.54755,9.313326 0,4.628441 1.693332,6.829772 1.749776,2.201332 4.854218,2.201332 2.652887,0 4.684885,-0.677333 2.031999,-0.733777 3.951109,-1.975554 v 7.168439 q -1.91911,1.241777 -4.063997,1.749776 -2.088443,0.564444 -5.305774,0.564444 z"
         id="path605" />
      <path
         d="m 63.784032,77.275972 q 0,7.676438 -4.063997,11.853324 -4.007553,4.176885 -10.950214,4.176885 -4.289774,0 -7.676439,-1.862665 -3.330219,-1.862665 -5.249329,-5.418662 -1.919109,-3.612442 -1.919109,-8.748882 0,-7.676439 4.007552,-11.79688 4.007552,-4.120441 11.006658,-4.120441 4.346219,0 7.676439,1.862665 3.330219,1.862665 5.249329,5.418662 1.91911,3.499553 1.91911,8.635994 z m -21.27954,0 q 0,4.571996 1.467555,6.942661 1.523999,2.31422 4.910663,2.31422 3.330219,0 4.797774,-2.31422 1.523999,-2.370665 1.523999,-6.942661 0,-4.571997 -1.523999,-6.829773 -1.467555,-2.31422 -4.854219,-2.31422 -3.330219,0 -4.854218,2.31422 -1.467555,2.257776 -1.467555,6.829773 z"
         id="path607" />
      <path
         d="m 92.231984,83.597744 q 0,4.684886 -3.33022,7.224884 -3.273775,2.483553 -9.821326,2.483553 -3.21733,0 -5.531551,-0.451555 -2.31422,-0.395111 -4.628441,-1.354665 v -6.942662 q 2.483554,1.128888 5.362218,1.862665 2.878665,0.733778 5.079996,0.733778 2.483554,0 3.499553,-0.733778 1.072444,-0.733777 1.072444,-1.919109 0,-0.790222 -0.451555,-1.41111 -0.395111,-0.620889 -1.806221,-1.41111 -1.41111,-0.790222 -4.402663,-2.031999 -2.878665,-1.241776 -4.74133,-2.427109 -1.862665,-1.241777 -2.765776,-2.935109 -0.90311,-1.749776 -0.90311,-4.346219 0,-4.289774 3.33022,-6.434661 3.330219,-2.144887 8.86177,-2.144887 2.878665,0 5.475107,0.564444 2.596443,0.564444 5.362218,1.862665 l -2.539998,6.039551 q -2.257776,-0.959555 -4.289774,-1.580444 -2.031999,-0.677332 -4.120441,-0.677332 -3.725331,0 -3.725331,2.031998 0,0.733777 0.451555,1.354666 0.508,0.564444 1.862666,1.241776 1.41111,0.677333 4.120441,1.806221 2.652887,1.072444 4.571996,2.257776 1.91911,1.128888 2.935109,2.878665 1.072444,1.693332 1.072444,4.459107 z"
         id="path609" />
      <path
         d="m 96.352407,60.907095 v -3.838219 h 16.312433 v 3.838219 z"
         id="path611" />
      <path
         d="m 130.727,45.102663 v 24.158204 h -6.54755 v -12.30488 q 0,-0.733777 0,-1.919109 0.0564,-1.185333 0.11289,-2.257776 0.0564,-1.128888 0.11289,-1.523999 -0.33867,0.451555 -1.016,1.128888 -0.62089,0.620888 -1.07244,1.015999 l -2.14489,1.693332 -2.99155,-3.499553 8.29732,-6.491106 z"
         id="path613" />
    </g>
  </g>
</svg>
