<?xml version="1.0" encoding="UTF-8" standalone="no"?>
<!-- Created with Inkscape (http://www.inkscape.org/) -->

<svg
   width="512"
   height="512"
   viewBox="0 0 135.46666 135.46667"
   version="1.1"
   id="svg5"
   inkscape:version="1.2.2 (b0a8486541, 2022-12-01)"
   sodipodi:docname="cos.svg"
   xmlns:inkscape="http://www.inkscape.org/namespaces/inkscape"
   xmlns:sodipodi="http://sodipodi.sourceforge.net/DTD/sodipodi-0.dtd"
   xmlns="http://www.w3.org/2000/svg"
   xmlns:svg="http://www.w3.org/2000/svg">
  <sodipodi:namedview
     id="namedview7"
     pagecolor="#ffffff"
     bordercolor="#000000"
     borderopacity="0.25"
     inkscape:showpageshadow="2"
     inkscape:pageopacity="0.0"
     inkscape:pagecheckerboard="0"
     inkscape:deskcolor="#d1d1d1"
     inkscape:document-units="mm"
     showgrid="false"
     inkscape:zoom="0.74208053"
     inkscape:cx="396.8572"
     inkscape:cy="346.99738"
     inkscape:window-width="1920"
     inkscape:window-height="1009"
     inkscape:window-x="0"
     inkscape:window-y="35"
     inkscape:window-maximized="1"
     inkscape:current-layer="layer1" />
  <defs
     id="defs2" />
  <g
     inkscape:label="Layer 1"
     inkscape:groupmode="layer"
     id="layer1">
    <g
       aria-label="cos"
       id="text427"
       style="font-weight:bold;font-size:81.139px;-inkscape-font-specification:'sans-serif Bold';text-align:center;text-anchor:middle;stroke-width:0.264583">
      <path
         d="m 25.66279,90.695667 q -9.898958,0 -15.335271,-5.436313 -5.3551741,-5.517452 -5.3551741,-17.282607 0,-8.1139 2.758726,-13.225657 2.7587261,-5.111757 7.6270661,-7.545927 4.949479,-2.43417 11.35946,-2.43417 4.543784,0 7.870483,0.892529 3.407838,0.892529 5.923147,2.109614 l -3.570116,9.330985 q -2.839865,-1.135946 -5.355174,-1.866197 -2.43417,-0.730251 -4.86834,-0.730251 -9.412124,0 -9.412124,13.387935 0,6.653398 2.43417,9.817819 2.515309,3.164421 6.977954,3.164421 3.813533,0 6.734537,-0.973668 2.921004,-1.054807 5.67973,-2.839865 v 10.304653 q -2.758726,1.785058 -5.842008,2.515309 -3.002143,0.81139 -7.627066,0.81139 z"
         id="path429" />
      <path
         d="m 89.600316,67.652191 q 0,11.034904 -5.842008,17.03919 -5.760869,6.004286 -15.740966,6.004286 -6.166564,0 -11.034904,-2.677587 -4.787201,-2.677587 -7.545927,-7.789344 -2.758726,-5.192896 -2.758726,-12.576545 0,-11.034904 5.760869,-16.958051 5.760869,-5.923147 15.822105,-5.923147 6.247703,0 11.034904,2.677587 4.787201,2.677587 7.545927,7.789344 2.758726,5.030618 2.758726,12.414267 z m -30.589403,0 q 0,6.572259 2.109614,9.980097 2.190753,3.326699 7.059093,3.326699 4.787201,0 6.896815,-3.326699 2.190753,-3.407838 2.190753,-9.980097 0,-6.572259 -2.190753,-9.817819 -2.109614,-3.326699 -6.977954,-3.326699 -4.787201,0 -6.977954,3.326699 -2.109614,3.24556 -2.109614,9.817819 z"
         id="path431" />
      <path
         d="m 130.49433,76.739759 q 0,6.734537 -4.7872,10.385792 -4.70607,3.570116 -14.11819,3.570116 -4.62492,0 -7.95162,-0.649112 -3.3267,-0.567973 -6.653401,-1.947336 v -9.980097 q 3.570121,1.62278 7.708201,2.677587 4.13809,1.054807 7.30251,1.054807 3.57012,0 5.03062,-1.054807 1.54164,-1.054807 1.54164,-2.758726 0,-1.135946 -0.64911,-2.028475 -0.56797,-0.892529 -2.59645,-2.028475 -2.02847,-1.135946 -6.32884,-2.921004 -4.13809,-1.785058 -6.81567,-3.488977 -2.677592,-1.785058 -3.975816,-4.219228 -1.298224,-2.515309 -1.298224,-6.247703 0,-6.166564 4.7872,-9.249846 4.7872,-3.083282 12.73882,-3.083282 4.13809,0 7.87049,0.81139 3.73239,0.81139 7.7082,2.677587 l -3.65125,8.681873 q -3.24556,-1.379363 -6.16657,-2.271892 -2.921,-0.973668 -5.92314,-0.973668 -5.35518,0 -5.35518,2.921004 0,1.054807 0.64911,1.947336 0.73026,0.81139 2.67759,1.785058 2.02848,0.973668 5.92315,2.596448 3.81353,1.541641 6.57226,3.24556 2.75872,1.62278 4.21923,4.138089 1.54164,2.43417 1.54164,6.409981 z"
         id="path433" />
    </g>
  </g>
</svg>
