<?xml version="1.0" encoding="UTF-8" standalone="no"?>
<!-- Created with Inkscape (http://www.inkscape.org/) -->

<svg
   width="24"
   height="24"
   viewBox="0 0 6.3499999 6.35"
   version="1.1"
   id="svg5"
   inkscape:version="1.2.2 (b0a8486541, 2022-12-01)"
   sodipodi:docname="cosh.svg"
   xmlns:inkscape="http://www.inkscape.org/namespaces/inkscape"
   xmlns:sodipodi="http://sodipodi.sourceforge.net/DTD/sodipodi-0.dtd"
   xmlns="http://www.w3.org/2000/svg"
   xmlns:svg="http://www.w3.org/2000/svg">
  <sodipodi:namedview
     id="namedview7"
     pagecolor="#ffffff"
     bordercolor="#000000"
     borderopacity="0.25"
     inkscape:showpageshadow="2"
     inkscape:pageopacity="0.0"
     inkscape:pagecheckerboard="0"
     inkscape:deskcolor="#d1d1d1"
     inkscape:document-units="mm"
     showgrid="false"
     inkscape:zoom="23.7505"
     inkscape:cx="12.105008"
     inkscape:cy="10.841877"
     inkscape:window-width="1920"
     inkscape:window-height="1009"
     inkscape:window-x="0"
     inkscape:window-y="35"
     inkscape:window-maximized="1"
     inkscape:current-layer="layer1" />
  <defs
     id="defs2" />
  <g
     inkscape:label="Layer 1"
     inkscape:groupmode="layer"
     id="layer1">
    <g
       aria-label="cosh"
       id="text309"
       style="font-weight:bold;font-size:2.11667px;-inkscape-font-specification:'sans-serif Bold';text-align:center;text-anchor:middle;fill:#1a1a1a;stroke-width:0.264583">
      <path
         d="m 1.4213397,3.9899179 q -0.2582337,0 -0.4000506,-0.1418169 -0.13970021,-0.1439335 -0.13970021,-0.4508507 0,-0.211667 0.0719668,-0.3450172 0.0719667,-0.1333502 0.19896694,-0.1968503 0.1291169,-0.0635 0.2963338,-0.0635 0.1185335,0 0.205317,0.023283 0.0889,0.023283 0.1545169,0.055033 l -0.093133,0.2434171 q -0.074083,-0.029633 -0.1397002,-0.048683 -0.0635,-0.01905 -0.1270002,-0.01905 -0.2455337,0 -0.2455337,0.3492506 0,0.1735669 0.0635,0.256117 0.065617,0.08255 0.1820336,0.08255 0.099484,0 0.1756836,-0.0254 0.0762,-0.027517 0.1481669,-0.074083 v 0.2688171 q -0.071967,0.046567 -0.1524002,0.065617 -0.078317,0.021167 -0.198967,0.021167 z"
         id="path311" />
      <path
         d="m 3.0892755,3.3887836 q 0,0.2878671 -0.1524002,0.4445007 -0.1502836,0.1566336 -0.410634,0.1566336 -0.1608669,0 -0.2878671,-0.06985 -0.1248835,-0.06985 -0.1968503,-0.2032003 -0.071967,-0.1354669 -0.071967,-0.3280839 0,-0.2878671 0.1502836,-0.442384 0.1502835,-0.1545169 0.4127506,-0.1545169 0.1629836,0 0.2878671,0.06985 0.1248835,0.06985 0.1968503,0.2032003 0.071967,0.1312336 0.071967,0.3238505 z m -0.7979846,0 q 0,0.1714503 0.055033,0.2603504 0.05715,0.086783 0.1841502,0.086783 0.1248836,0 0.179917,-0.086783 0.05715,-0.0889 0.05715,-0.2603504 0,-0.1714502 -0.05715,-0.256117 -0.055033,-0.086783 -0.1820336,-0.086783 -0.1248836,0 -0.1820336,0.086783 -0.055033,0.084667 -0.055033,0.256117 z"
         id="path313" />
      <path
         d="m 4.156076,3.6258507 q 0,0.1756836 -0.1248836,0.2709337 -0.1227668,0.093133 -0.3683005,0.093133 -0.1206502,0 -0.2074337,-0.016933 -0.086783,-0.014817 -0.1735669,-0.0508 V 3.6618341 q 0.093133,0.042333 0.2010836,0.06985 0.1079502,0.027517 0.1905003,0.027517 0.093133,0 0.1312335,-0.027517 0.040217,-0.027517 0.040217,-0.071967 0,-0.029633 -0.016933,-0.052917 -0.014817,-0.023283 -0.067733,-0.052917 -0.052917,-0.029633 -0.1651003,-0.0762 Q 3.4872083,3.431117 3.4173582,3.386667 3.3475081,3.3401002 3.3136413,3.2766001 3.2797746,3.2109834 3.2797746,3.1136166 q 0,-0.160867 0.1248835,-0.2413004 0.1248836,-0.080434 0.3323172,-0.080434 0.1079502,0 0.205317,0.021167 0.097367,0.021167 0.2010836,0.06985 l -0.09525,0.2264837 q -0.084667,-0.035983 -0.1608669,-0.059267 -0.0762,-0.0254 -0.1545169,-0.0254 -0.1397002,0 -0.1397002,0.0762 0,0.027517 0.016933,0.0508 0.01905,0.021167 0.06985,0.046567 0.052917,0.0254 0.1545169,0.067733 0.099483,0.040217 0.1714503,0.084667 0.071967,0.042333 0.1100668,0.1079501 0.040217,0.0635 0.040217,0.167217 z"
         id="path315" />
      <path
         d="m 4.7169931,2.6881659 q 0,0.084667 -0.00635,0.1629836 -0.00423,0.078317 -0.00847,0.1100668 h 0.016933 q 0.055033,-0.0889 0.1418168,-0.1291168 0.086784,-0.040217 0.192617,-0.040217 0.1883836,0 0.3005671,0.1016002 0.1143002,0.099483 0.1143002,0.3217338 V 3.9687512 H 5.1530271 V 3.2935335 q 0,-0.2497671 -0.186267,-0.2497671 -0.1418169,0 -0.1968503,0.099483 -0.052917,0.097367 -0.052917,0.2815171 V 3.9687512 H 4.4016093 V 2.3600821 h 0.3153838 z"
         id="path317" />
    </g>
  </g>
</svg>
