<?xml version="1.0" encoding="UTF-8" standalone="no"?>
<!-- Created with Inkscape (http://www.inkscape.org/) -->

<svg
   width="512"
   height="512"
   viewBox="0 0 135.46666 135.46667"
   version="1.1"
   id="svg5"
   inkscape:version="1.2.2 (b0a8486541, 2022-12-01)"
   sodipodi:docname="sin-1.svg"
   xmlns:inkscape="http://www.inkscape.org/namespaces/inkscape"
   xmlns:sodipodi="http://sodipodi.sourceforge.net/DTD/sodipodi-0.dtd"
   xmlns="http://www.w3.org/2000/svg"
   xmlns:svg="http://www.w3.org/2000/svg">
  <sodipodi:namedview
     id="namedview7"
     pagecolor="#ffffff"
     bordercolor="#000000"
     borderopacity="0.25"
     inkscape:showpageshadow="2"
     inkscape:pageopacity="0.0"
     inkscape:pagecheckerboard="0"
     inkscape:deskcolor="#d1d1d1"
     inkscape:document-units="mm"
     showgrid="false"
     inkscape:zoom="0.74208053"
     inkscape:cx="396.8572"
     inkscape:cy="346.99738"
     inkscape:window-width="1920"
     inkscape:window-height="1009"
     inkscape:window-x="0"
     inkscape:window-y="35"
     inkscape:window-maximized="1"
     inkscape:current-layer="layer1" />
  <defs
     id="defs2" />
  <g
     inkscape:label="Layer 1"
     inkscape:groupmode="layer"
     id="layer1">
    <g
       aria-label="sin⁻¹"
       id="text470"
       style="font-weight:bold;font-size:59.9722px;-inkscape-font-specification:'sans-serif Bold';text-align:center;text-anchor:middle;stroke-width:0.264583">
      <path
         d="m 30.850466,83.026241 q 0,4.977693 -3.53836,7.676442 -3.478388,2.638776 -10.435163,2.638776 -3.418415,0 -5.877275,-0.479777 -2.4588603,-0.419806 -4.9177205,-1.439333 v -7.37658 q 2.6387768,1.199444 5.6973585,1.979082 3.058583,0.779639 5.397498,0.779639 2.638777,0 3.718277,-0.779639 1.139471,-0.779638 1.139471,-2.039055 0,-0.83961 -0.479777,-1.499305 -0.419806,-0.659694 -1.919111,-1.499305 -1.499305,-0.83961 -4.677831,-2.158999 Q 11.899251,77.508799 9.9201682,76.249383 7.9410857,74.929994 6.9815305,73.130828 6.0219753,71.27169 6.0219753,68.512969 q 0,-4.557887 3.5383597,-6.83683 3.53836,-2.278944 9.415635,-2.278944 3.058582,0 5.817303,0.599722 2.758722,0.599722 5.697359,1.979083 l -2.698749,6.417025 q -2.398888,-1.019528 -4.557887,-1.679222 -2.158999,-0.719666 -4.37797,-0.719666 -3.958165,0 -3.958165,2.158999 0,0.779639 0.479777,1.439333 0.53975,0.599722 1.979083,1.319388 1.499305,0.719666 4.37797,1.91911 2.818694,1.139472 4.857748,2.398888 2.039055,1.199444 3.118555,3.058583 1.139472,1.799165 1.139472,4.737803 z"
         id="path472" />
      <path
         d="m 42.30514,47.162867 q 1.979083,0 3.418416,0.959555 1.439332,0.899583 1.439332,3.418415 0,2.45886 -1.439332,3.418415 -1.439333,0.959555 -3.418416,0.959555 -2.039054,0 -3.478387,-0.959555 -1.379361,-0.959555 -1.379361,-3.418415 0,-2.518832 1.379361,-3.418415 1.439333,-0.959555 3.478387,-0.959555 z m 4.437943,12.83405 v 32.74482 h -8.935858 v -32.74482 z"
         id="path474" />
      <path
         d="m 74.690145,59.397195 q 5.277554,0 8.45608,2.878666 3.178527,2.818693 3.178527,9.115774 V 92.741737 H 77.388894 V 73.610606 q 0,-3.53836 -1.259416,-5.277553 -1.259416,-1.799166 -4.018137,-1.799166 -4.07811,0 -5.577415,2.818693 -1.499305,2.758721 -1.499305,7.976302 v 15.412855 h -8.935857 v -32.74482 h 6.83683 l 1.199444,4.198054 h 0.479778 q 1.559277,-2.518832 4.258026,-3.658304 2.758721,-1.139472 5.817303,-1.139472 z"
         id="path476" />
      <path
         d="m 92.921674,58.917417 v -4.078109 h 17.331966 v 4.078109 z"
         id="path478" />
      <path
         d="m 129.44469,42.125202 v 25.668101 h -6.95677 V 54.719364 q 0,-0.779639 0,-2.039055 0.06,-1.259416 0.11994,-2.398888 0.06,-1.199444 0.11995,-1.61925 -0.35984,0.479778 -1.0795,1.199444 -0.6597,0.659695 -1.13948,1.0795 l -2.27894,1.799166 -3.17853,-3.718276 8.81592,-6.896803 z"
         id="path480" />
    </g>
  </g>
</svg>
