<?xml version="1.0" encoding="UTF-8" standalone="no"?>
<!-- Created with Inkscape (http://www.inkscape.org/) -->

<svg
   width="512"
   height="512"
   viewBox="0 0 135.46666 135.46667"
   version="1.1"
   id="svg5"
   inkscape:version="1.2.2 (b0a8486541, 2022-12-01)"
   sodipodi:docname="sin.svg"
   xmlns:inkscape="http://www.inkscape.org/namespaces/inkscape"
   xmlns:sodipodi="http://sodipodi.sourceforge.net/DTD/sodipodi-0.dtd"
   xmlns="http://www.w3.org/2000/svg"
   xmlns:svg="http://www.w3.org/2000/svg">
  <sodipodi:namedview
     id="namedview7"
     pagecolor="#ffffff"
     bordercolor="#000000"
     borderopacity="0.25"
     inkscape:showpageshadow="2"
     inkscape:pageopacity="0.0"
     inkscape:pagecheckerboard="0"
     inkscape:deskcolor="#d1d1d1"
     inkscape:document-units="mm"
     showgrid="false"
     inkscape:zoom="0.74208053"
     inkscape:cx="396.8572"
     inkscape:cy="346.99738"
     inkscape:window-width="1920"
     inkscape:window-height="1009"
     inkscape:window-x="0"
     inkscape:window-y="35"
     inkscape:window-maximized="1"
     inkscape:current-layer="layer1" />
  <defs
     id="defs2" />
  <g
     inkscape:label="Layer 1"
     inkscape:groupmode="layer"
     id="layer1">
    <g
       aria-label="sin"
       id="text376"
       style="font-weight:bold;font-size:81.139px;-inkscape-font-specification:'sans-serif Bold';text-align:center;text-anchor:middle;stroke-width:0.264583">
      <path
         d="m 47.002317,85.015943 q 0,6.734537 -4.787201,10.385792 -4.706062,3.570116 -14.118186,3.570116 -4.624923,0 -7.951622,-0.649112 -3.326699,-0.567973 -6.653398,-1.947336 v -9.980097 q 3.570116,1.62278 7.708205,2.677587 4.138089,1.054807 7.30251,1.054807 3.570116,0 5.030618,-1.054807 1.541641,-1.054807 1.541641,-2.758726 0,-1.135946 -0.649112,-2.028475 -0.567973,-0.892529 -2.596448,-2.028475 -2.028475,-1.135946 -6.328842,-2.921004 -4.138089,-1.785058 -6.815676,-3.488977 -2.677587,-1.785058 -3.975811,-4.219228 -1.298224,-2.515309 -1.298224,-6.247703 0,-6.166564 4.787201,-9.249846 4.787201,-3.083282 12.738823,-3.083282 4.138089,0 7.870483,0.81139 3.732394,0.81139 7.708205,2.677587 l -3.651255,8.681873 q -3.24556,-1.379363 -6.166564,-2.271892 -2.921004,-0.973668 -5.923147,-0.973668 -5.355174,0 -5.355174,2.921004 0,1.054807 0.649112,1.947336 0.730251,0.81139 2.677587,1.785058 2.028475,0.973668 5.923147,2.596448 3.813533,1.541641 6.572259,3.24556 2.758726,1.62278 4.219228,4.138089 1.541641,2.43417 1.541641,6.409981 z"
         id="path378" />
      <path
         d="m 62.499844,36.494821 q 2.677587,0 4.624923,1.298224 1.947336,1.217085 1.947336,4.624923 0,3.326699 -1.947336,4.624923 -1.947336,1.298224 -4.624923,1.298224 -2.758726,0 -4.706062,-1.298224 -1.866197,-1.298224 -1.866197,-4.624923 0,-3.407838 1.866197,-4.624923 1.947336,-1.298224 4.706062,-1.298224 z M 68.50413,53.858567 V 98.160461 H 56.414419 V 53.858567 Z"
         id="path380" />
      <path
         d="m 106.31493,53.047177 q 7.14023,0 11.4406,3.894672 4.30036,3.813533 4.30036,12.333128 V 98.160461 H 109.96618 V 72.27712 q 0,-4.787201 -1.70392,-7.140232 -1.70392,-2.43417 -5.43631,-2.43417 -5.517453,0 -7.545928,3.813533 -2.028475,3.732394 -2.028475,10.791487 V 98.160461 H 81.161836 V 53.858567 h 9.249846 l 1.62278,5.67973 h 0.649112 q 2.109614,-3.407838 5.760869,-4.949479 3.732397,-1.541641 7.870487,-1.541641 z"
         id="path382" />
    </g>
  </g>
</svg>
