<?xml version="1.0" encoding="UTF-8" standalone="no"?>
<!-- Created with Inkscape (http://www.inkscape.org/) -->

<svg
   width="24"
   height="24"
   viewBox="0 0 6.3499999 6.35"
   version="1.1"
   id="svg5"
   inkscape:version="1.2.2 (b0a8486541, 2022-12-01)"
   sodipodi:docname="sinh.svg"
   xmlns:inkscape="http://www.inkscape.org/namespaces/inkscape"
   xmlns:sodipodi="http://sodipodi.sourceforge.net/DTD/sodipodi-0.dtd"
   xmlns="http://www.w3.org/2000/svg"
   xmlns:svg="http://www.w3.org/2000/svg">
  <sodipodi:namedview
     id="namedview7"
     pagecolor="#ffffff"
     bordercolor="#000000"
     borderopacity="0.25"
     inkscape:showpageshadow="2"
     inkscape:pageopacity="0.0"
     inkscape:pagecheckerboard="0"
     inkscape:deskcolor="#d1d1d1"
     inkscape:document-units="mm"
     showgrid="false"
     inkscape:zoom="23.7505"
     inkscape:cx="12.105008"
     inkscape:cy="10.841877"
     inkscape:window-width="1920"
     inkscape:window-height="1009"
     inkscape:window-x="0"
     inkscape:window-y="35"
     inkscape:window-maximized="1"
     inkscape:current-layer="layer1" />
  <defs
     id="defs2" />
  <g
     inkscape:label="Layer 1"
     inkscape:groupmode="layer"
     id="layer1">
    <g
       aria-label="sinh"
       id="text113"
       style="font-weight:bold;font-size:2.11667px;-inkscape-font-specification:'sans-serif Bold';text-align:center;text-anchor:middle;fill:#1a1a1a;stroke-width:0.264583">
      <path
         d="m 1.9282818,3.3612657 q 0,0.1756836 -0.1248835,0.2709337 -0.1227668,0.093133 -0.3683006,0.093133 -0.1206501,0 -0.2074336,-0.016933 -0.086783,-0.014817 -0.1735669,-0.0508 V 3.397249 q 0.093133,0.042333 0.2010836,0.06985 0.1079502,0.027517 0.1905003,0.027517 0.093133,0 0.1312335,-0.027517 0.040217,-0.027517 0.040217,-0.071967 0,-0.029633 -0.016933,-0.052917 -0.014817,-0.023283 -0.067733,-0.052917 -0.052917,-0.029633 -0.1651003,-0.0762 Q 1.2594141,3.166532 1.189564,3.122082 1.1197139,3.0755152 1.0858472,3.0120151 1.0519805,2.9463984 1.0519805,2.8490315 q 0,-0.1608669 0.1248835,-0.2413003 0.1248835,-0.080433 0.3323172,-0.080433 0.1079502,0 0.205317,0.021167 0.097367,0.021167 0.2010836,0.06985 l -0.09525,0.2264837 q -0.084667,-0.035983 -0.1608669,-0.059267 -0.0762,-0.0254 -0.1545169,-0.0254 -0.1397003,0 -0.1397003,0.0762 0,0.027517 0.016933,0.0508 0.01905,0.021167 0.06985,0.046567 0.052917,0.0254 0.1545169,0.067734 0.099483,0.040217 0.1714503,0.084667 0.071967,0.042333 0.1100668,0.1079501 0.040217,0.0635 0.040217,0.167217 z"
         id="path273" />
      <path
         d="m 2.3325653,2.0954971 q 0.06985,0 0.1206502,0.033867 0.0508,0.03175 0.0508,0.1206502 0,0.086783 -0.0508,0.1206501 -0.0508,0.033867 -0.1206502,0.033867 -0.071967,0 -0.1227669,-0.033867 -0.048683,-0.033867 -0.048683,-0.1206501 0,-0.0889 0.048683,-0.1206502 0.0508,-0.033867 0.1227669,-0.033867 z M 2.4891988,2.5484644 V 3.7041662 H 2.173815 V 2.5484644 Z"
         id="path275" />
      <path
         d="m 3.4755676,2.5272977 q 0.186267,0 0.2984505,0.1016002 0.1121835,0.099483 0.1121835,0.3217338 V 3.7041662 H 3.5708178 V 3.0289485 q 0,-0.1248835 -0.04445,-0.186267 -0.04445,-0.0635 -0.1418169,-0.0635 -0.1439335,0 -0.1968503,0.099483 -0.052917,0.097367 -0.052917,0.2815171 V 3.7041662 H 2.8194 V 2.5484644 h 0.2413003 l 0.042333,0.1481669 h 0.016933 q 0.055033,-0.0889 0.1502836,-0.1291169 0.097367,-0.040217 0.2053169,-0.040217 z"
         id="path277" />
      <path
         d="m 4.525435,2.4235809 q 0,0.084667 -0.00635,0.1629836 -0.00423,0.078317 -0.00847,0.1100668 h 0.016933 q 0.055033,-0.0889 0.1418169,-0.1291169 0.086783,-0.040217 0.1926169,-0.040217 0.1883836,0 0.3005672,0.1016002 0.1143001,0.099483 0.1143001,0.3217338 V 3.7041662 H 4.961469 V 3.0289485 q 0,-0.2497671 -0.1862669,-0.2497671 -0.1418169,0 -0.1968503,0.099483 Q 4.525435,2.9760317 4.525435,3.160182 V 3.7041662 H 4.2100512 V 2.0954971 H 4.525435 Z"
         id="path279" />
    </g>
  </g>
</svg>
