<?xml version="1.0" encoding="UTF-8" standalone="no"?>
<!-- Created with Inkscape (http://www.inkscape.org/) -->

<svg
   width="512"
   height="512"
   viewBox="0 0 135.46666 135.46667"
   version="1.1"
   id="svg5"
   inkscape:version="1.2.2 (b0a8486541, 2022-12-01)"
   sodipodi:docname="tan-1.svg"
   xmlns:inkscape="http://www.inkscape.org/namespaces/inkscape"
   xmlns:sodipodi="http://sodipodi.sourceforge.net/DTD/sodipodi-0.dtd"
   xmlns="http://www.w3.org/2000/svg"
   xmlns:svg="http://www.w3.org/2000/svg">
  <sodipodi:namedview
     id="namedview7"
     pagecolor="#ffffff"
     bordercolor="#000000"
     borderopacity="0.25"
     inkscape:showpageshadow="2"
     inkscape:pageopacity="0.0"
     inkscape:pagecheckerboard="0"
     inkscape:deskcolor="#d1d1d1"
     inkscape:document-units="mm"
     showgrid="false"
     inkscape:zoom="0.74208053"
     inkscape:cx="396.8572"
     inkscape:cy="346.99738"
     inkscape:window-width="1920"
     inkscape:window-height="1009"
     inkscape:window-x="0"
     inkscape:window-y="35"
     inkscape:window-maximized="1"
     inkscape:current-layer="layer1" />
  <defs
     id="defs2" />
  <g
     inkscape:label="Layer 1"
     inkscape:groupmode="layer"
     id="layer1">
    <g
       aria-label="tan⁻¹"
       id="text644"
       style="font-weight:bold;font-size:52.9167px;-inkscape-font-specification:'sans-serif Bold';text-align:center;text-anchor:middle;stroke-width:0.264583">
      <path
         d="m 21.537085,84.031679 q 1.322917,0 2.540001,-0.264584 1.217084,-0.264583 2.434168,-0.635 v 5.873753 q -1.27,0.529167 -3.175001,0.899584 -1.852085,0.423334 -4.074586,0.423334 -2.592918,0 -4.65667,-0.846667 -2.010834,-0.846668 -3.227918,-2.910419 -1.164168,-2.116668 -1.164168,-5.820837 V 66.833752 H 6.4558257 V 63.5 l 4.3391693,-2.645835 2.275418,-6.085421 h 5.027086 v 6.138337 h 8.096255 v 5.926671 h -8.096255 v 13.917091 q 0,1.640418 0.952501,2.487085 0.952501,0.793751 2.487085,0.793751 z"
         id="path646" />
      <path
         d="m 44.185432,60.324998 q 5.820836,0 8.890005,2.540001 3.122085,2.487085 3.122085,7.672921 v 19.261679 h -5.503336 l -1.534585,-3.915836 h -0.211667 q -1.852084,2.328335 -3.915835,3.386669 -2.063751,1.058334 -5.662087,1.058334 -3.862919,0 -6.40292,-2.222502 -2.540002,-2.275418 -2.540002,-6.932087 0,-4.603753 3.227919,-6.773338 3.227918,-2.222501 9.683755,-2.434168 l 5.027087,-0.15875 V 70.53792 q 0,-2.275418 -1.217084,-3.333752 -1.164168,-1.058334 -3.280836,-1.058334 -2.116668,0 -4.127502,0.635001 -2.010835,0.582084 -4.021669,1.481667 l -2.592918,-5.344586 q 2.328334,-1.217084 5.132919,-1.905001 2.857502,-0.687917 5.926671,-0.687917 z m 1.11125,16.192509 q -3.810002,0.105834 -5.29167,1.375835 -1.481667,1.27 -1.481667,3.333752 0,1.799167 1.058334,2.592918 1.058334,0.740834 2.751668,0.740834 2.540002,0 4.286253,-1.481668 1.746251,-1.534584 1.746251,-4.286253 v -2.381251 z"
         id="path648" />
      <path
         d="m 80.697957,60.377914 q 4.656669,0 7.461254,2.540002 2.804585,2.487085 2.804585,8.043338 V 89.799599 H 83.079208 V 72.919172 q 0,-3.122085 -1.111251,-4.65667 -1.11125,-1.587501 -3.545418,-1.587501 -3.598336,0 -4.921253,2.487085 -1.322918,2.434168 -1.322918,7.037921 V 89.799599 H 64.29378 V 60.907081 h 6.032504 l 1.058334,3.704169 h 0.423333 q 1.375834,-2.222501 3.757086,-3.227918 2.434168,-1.005418 5.13292,-1.005418 z"
         id="path650" />
      <path
         d="m 96.784613,59.954581 v -3.598336 h 15.292927 v 3.598336 z"
         id="path652" />
      <path
         d="m 129.01084,45.137905 v 22.648347 h -6.13833 v -11.53584 q 0,-0.687917 0,-1.799168 0.0529,-1.111251 0.10583,-2.116668 0.0529,-1.058334 0.10583,-1.428751 -0.3175,0.423334 -0.9525,1.058334 -0.58208,0.582084 -1.00542,0.952501 l -2.01083,1.587501 -2.80459,-3.280835 7.77876,-6.085421 z"
         id="path654" />
    </g>
  </g>
</svg>
