<?xml version="1.0" encoding="UTF-8" standalone="no"?>
<!-- Created with Inkscape (http://www.inkscape.org/) -->

<svg
   width="512"
   height="512"
   viewBox="0 0 135.46666 135.46667"
   version="1.1"
   id="svg5"
   inkscape:version="1.2.2 (b0a8486541, 2022-12-01)"
   sodipodi:docname="tan.svg"
   xmlns:inkscape="http://www.inkscape.org/namespaces/inkscape"
   xmlns:sodipodi="http://sodipodi.sourceforge.net/DTD/sodipodi-0.dtd"
   xmlns="http://www.w3.org/2000/svg"
   xmlns:svg="http://www.w3.org/2000/svg">
  <sodipodi:namedview
     id="namedview7"
     pagecolor="#ffffff"
     bordercolor="#000000"
     borderopacity="0.25"
     inkscape:showpageshadow="2"
     inkscape:pageopacity="0.0"
     inkscape:pagecheckerboard="0"
     inkscape:deskcolor="#d1d1d1"
     inkscape:document-units="mm"
     showgrid="false"
     inkscape:zoom="0.74208053"
     inkscape:cx="396.8572"
     inkscape:cy="346.99738"
     inkscape:window-width="1920"
     inkscape:window-height="1009"
     inkscape:window-x="0"
     inkscape:window-y="35"
     inkscape:window-maximized="1"
     inkscape:current-layer="layer1" />
  <defs
     id="defs2" />
  <g
     inkscape:label="Layer 1"
     inkscape:groupmode="layer"
     id="layer1">
    <g
       aria-label="tan"
       id="text341"
       style="font-weight:bold;font-size:81.1389px;-inkscape-font-specification:'sans-serif Bold';text-align:center;text-anchor:middle;stroke-width:0.264583">
      <path
         d="m 26.160222,86.490538 q 2.028473,0 3.894667,-0.405694 1.866195,-0.405695 3.73239,-0.973667 v 9.006418 q -1.947334,0.811389 -4.868334,1.379361 -2.839862,0.649112 -6.247696,0.649112 -3.975806,0 -7.140223,-1.298223 Q 12.447748,93.549623 10.581553,90.385206 8.7964973,87.13965 8.7964973,81.459927 V 60.120396 H 3.0356353 V 55.008645 L 9.6890252,50.9517 13.177998,41.620726 h 7.708195 v 9.412113 h 12.414252 v 9.087557 H 20.886193 v 21.339531 q 0,2.515306 1.460501,3.813528 1.4605,1.217083 3.813528,1.217083 z"
         id="path343" />
      <path
         d="m 60.887672,50.140311 q 8.925279,0 13.631335,3.894667 4.787195,3.813529 4.787195,11.765141 v 29.53456 H 70.867756 L 68.514728,89.3304 h -0.324555 q -2.839862,3.570112 -6.004279,5.19289 -3.164417,1.622778 -8.681862,1.622778 -5.92314,0 -9.817807,-3.407834 -3.894668,-3.488973 -3.894668,-10.629196 0,-7.059085 4.949473,-10.385779 4.949473,-3.407834 14.848419,-3.73239 l 7.708196,-0.243417 v -1.947333 q 0,-3.488973 -1.866195,-5.111751 -1.785056,-1.622778 -5.030612,-1.622778 -3.245556,0 -6.328834,0.973667 -3.083278,0.892528 -6.166557,2.271889 l -3.975806,-8.195029 q 3.570112,-1.866195 7.870474,-2.921 4.3815,-1.054806 9.087557,-1.054806 z m 1.703917,24.828504 q -5.842001,0.162277 -8.113891,2.109611 -2.271889,1.947334 -2.271889,5.111751 0,2.758722 1.622778,3.975806 1.622778,1.135944 4.219223,1.135944 3.894667,0 6.572251,-2.271889 2.677584,-2.353028 2.677584,-6.572251 v -3.65125 z"
         id="path345" />
      <path
         d="m 116.87352,50.22145 q 7.14022,0 11.44058,3.894667 4.30036,3.813528 4.30036,12.333113 v 28.885449 h -12.08969 v -25.88331 q 0,-4.787195 -1.70392,-7.140223 -1.70392,-2.434167 -5.43631,-2.434167 -5.51744,0 -7.54591,3.813528 -2.02848,3.73239 -2.02848,10.791474 V 95.334679 H 91.720458 v -44.30184 h 9.249832 l 1.62278,5.679723 h 0.64911 q 2.10961,-3.407834 5.76086,-4.949473 3.73239,-1.541639 7.87048,-1.541639 z"
         id="path347" />
    </g>
  </g>
</svg>
