<?xml version="1.0" encoding="UTF-8" standalone="no"?>
<!-- Created with Inkscape (http://www.inkscape.org/) -->

<svg
   width="24"
   height="24"
   viewBox="0 0 6.3499999 6.35"
   version="1.1"
   id="svg5"
   inkscape:version="1.2.2 (b0a8486541, 2022-12-01)"
   sodipodi:docname="tanh.svg"
   xmlns:inkscape="http://www.inkscape.org/namespaces/inkscape"
   xmlns:sodipodi="http://sodipodi.sourceforge.net/DTD/sodipodi-0.dtd"
   xmlns="http://www.w3.org/2000/svg"
   xmlns:svg="http://www.w3.org/2000/svg">
  <sodipodi:namedview
     id="namedview7"
     pagecolor="#ffffff"
     bordercolor="#000000"
     borderopacity="0.25"
     inkscape:showpageshadow="2"
     inkscape:pageopacity="0.0"
     inkscape:pagecheckerboard="0"
     inkscape:deskcolor="#d1d1d1"
     inkscape:document-units="mm"
     showgrid="false"
     inkscape:zoom="23.7505"
     inkscape:cx="12.105008"
     inkscape:cy="10.841877"
     inkscape:window-width="1920"
     inkscape:window-height="1009"
     inkscape:window-x="0"
     inkscape:window-y="35"
     inkscape:window-maximized="1"
     inkscape:current-layer="layer1" />
  <defs
     id="defs2" />
  <g
     inkscape:label="Layer 1"
     inkscape:groupmode="layer"
     id="layer1">
    <g
       aria-label="tanh"
       id="text347"
       style="font-weight:bold;font-size:2.11667px;-inkscape-font-specification:'sans-serif Bold';text-align:center;text-anchor:middle;fill:#1a1a1a;stroke-width:0.264583">
      <path
         d="m 1.3927642,3.7380342 q 0.052917,0 0.1016002,-0.010583 0.048683,-0.010583 0.097367,-0.0254 v 0.2349503 q -0.0508,0.021167 -0.1270002,0.035983 -0.074083,0.016933 -0.1629836,0.016933 -0.1037168,0 -0.1862669,-0.033867 Q 1.035047,3.9221845 0.98636359,3.8396343 0.93979686,3.7549675 0.93979686,3.6068006 V 3.0501165 H 0.78951329 V 2.9167663 L 0.96308022,2.8109328 1.054097,2.5675157 H 1.2551807 V 2.8130494 H 1.5790312 V 3.0501165 H 1.2551807 v 0.5566841 q 0,0.065617 0.0381,0.099483 0.0381,0.03175 0.099484,0.03175 z"
         id="path349" />
      <path
         d="m 2.298699,2.7897661 q 0.2328337,0 0.3556005,0.1016001 0.1248835,0.099483 0.1248835,0.3069172 V 3.9687512 H 2.5590494 L 2.4976659,3.8121176 h -0.00847 q -0.074083,0.093133 -0.1566336,0.1354669 -0.08255,0.042333 -0.2264837,0.042333 -0.1545169,0 -0.2561171,-0.0889 Q 1.7483648,3.810001 1.7483648,3.623734 q 0,-0.1841503 0.1291169,-0.2709337 0.1291168,-0.0889 0.3873505,-0.097367 l 0.2010837,-0.00635 v -0.0508 q 0,-0.091017 -0.048683,-0.1333503 -0.046567,-0.042333 -0.1312336,-0.042333 -0.084667,0 -0.1651002,0.0254 -0.080434,0.023283 -0.1608669,0.059267 L 1.856315,2.8934829 q 0.093133,-0.048683 0.2053169,-0.0762 0.1143002,-0.027517 0.2370671,-0.027517 z m 0.04445,0.6477009 q -0.1524002,0.00423 -0.211667,0.055033 -0.059267,0.0508 -0.059267,0.1333502 0,0.071967 0.042333,0.1037168 0.042333,0.029633 0.1100668,0.029633 0.1016002,0 0.1714503,-0.059267 0.06985,-0.061383 0.06985,-0.1714502 v -0.09525 z"
         id="path351" />
      <path
         d="m 3.7592013,2.7918827 q 0.186267,0 0.2984505,0.1016002 0.1121835,0.099483 0.1121835,0.3217338 V 3.9687512 H 3.8544514 V 3.2935335 q 0,-0.1248835 -0.04445,-0.186267 -0.04445,-0.0635 -0.1418169,-0.0635 -0.1439336,0 -0.1968503,0.099483 -0.052917,0.097367 -0.052917,0.2815171 V 3.9687512 H 3.1030336 V 2.8130494 H 3.344334 l 0.042333,0.1481669 h 0.016933 q 0.055033,-0.0889 0.1502835,-0.1291168 0.097367,-0.040217 0.205317,-0.040217 z"
         id="path353" />
      <path
         d="m 4.8090687,2.6881659 q 0,0.084667 -0.00635,0.1629836 -0.00423,0.078317 -0.00847,0.1100668 h 0.016933 q 0.055034,-0.0889 0.1418169,-0.1291168 0.086784,-0.040217 0.192617,-0.040217 0.1883836,0 0.3005671,0.1016002 0.1143002,0.099483 0.1143002,0.3217338 V 3.9687512 H 5.2451027 V 3.2935335 q 0,-0.2497671 -0.186267,-0.2497671 -0.1418169,0 -0.1968503,0.099483 -0.052917,0.097367 -0.052917,0.2815171 V 3.9687512 H 4.4936849 V 2.3600821 h 0.3153838 z"
         id="path355" />
    </g>
  </g>
</svg>
