<?xml version="1.0" encoding="UTF-8" standalone="no"?>
<!-- Created with Inkscape (http://www.inkscape.org/) -->

<svg
   width="24"
   height="24"
   viewBox="0 0 6.3499999 6.35"
   version="1.1"
   id="svg5"
   inkscape:version="1.2.2 (b0a8486541, 2022-12-01)"
   sodipodi:docname="trig_sin.svg"
   xmlns:inkscape="http://www.inkscape.org/namespaces/inkscape"
   xmlns:sodipodi="http://sodipodi.sourceforge.net/DTD/sodipodi-0.dtd"
   xmlns="http://www.w3.org/2000/svg"
   xmlns:svg="http://www.w3.org/2000/svg">
  <sodipodi:namedview
     id="namedview7"
     pagecolor="#ffffff"
     bordercolor="#000000"
     borderopacity="0.25"
     inkscape:showpageshadow="2"
     inkscape:pageopacity="0.0"
     inkscape:pagecheckerboard="0"
     inkscape:deskcolor="#d1d1d1"
     inkscape:document-units="mm"
     showgrid="false"
     inkscape:zoom="23.746577"
     inkscape:cx="13.075569"
     inkscape:cy="11.643784"
     inkscape:window-width="1920"
     inkscape:window-height="1009"
     inkscape:window-x="0"
     inkscape:window-y="35"
     inkscape:window-maximized="1"
     inkscape:current-layer="text1246" />
  <defs
     id="defs2" />
  <g
     inkscape:label="Layer 1"
     inkscape:groupmode="layer"
     id="layer1">
    <g
       aria-label="+/-"
       id="text646"
       style="font-weight:bold;font-size:3.52778px;-inkscape-font-specification:'sans-serif Bold';text-align:center;text-anchor:middle;fill:#1a1a1a;stroke-width:0.264583">
      <g
         aria-label="sin"
         id="text1246"
         style="font-size:3.52777px;stroke-width:0.0700042">
        <g
           aria-label="sin"
           id="text1282"
           style="stroke-width:0.0185219">
          <path
             d="m 2.2736546,3.5665823 q 0,0.2928049 -0.2081384,0.4515546 -0.2046107,0.1552219 -0.613832,0.1552219 -0.2010829,0 -0.3457215,-0.028222 Q 0.96132416,4.1204422 0.81668559,4.0604701 V 3.6265544 q 0.15522188,0.070555 0.33513811,0.1164164 0.1799163,0.045861 0.3174993,0.045861 0.1552219,0 0.2187218,-0.045861 0.067028,-0.045861 0.067028,-0.1199442 0,-0.049389 -0.028222,-0.088194 Q 1.7021559,3.4960269 1.6139616,3.4466381 1.5257674,3.3972494 1.3387956,3.3196384 1.1588793,3.2420275 1.0424629,3.1679443 0.92604646,3.0903334 0.86960214,2.9845003 0.81315782,2.8751394 0.81315782,2.712862 q 0,-0.2681105 0.20813838,-0.4021658 0.2081385,-0.1340553 0.5538599,-0.1340553 0.1799163,0 0.3421937,0.035278 0.1622775,0.035278 0.3351382,0.1164164 L 2.0937383,2.7058064 Q 1.9526275,2.6458343 1.8256278,2.6070289 1.6986281,2.5646956 1.5681006,2.5646956 q -0.2328328,0 -0.2328328,0.1269998 0,0.045861 0.028222,0.084666 0.03175,0.035278 0.1164165,0.077611 0.088194,0.042333 0.2575272,0.1128886 0.1658052,0.067028 0.2857493,0.1411108 0.1199442,0.070555 0.1834441,0.1799163 0.067028,0.1058331 0.067028,0.2786938 z"
             id="path1284" />
          <path
             d="m 2.9474578,1.4569758 q 0.1164164,0 0.2010829,0.056444 0.084666,0.052916 0.084666,0.2010829 0,0.1446385 -0.084666,0.2010828 -0.084666,0.056444 -0.2010829,0.056444 -0.1199442,0 -0.2046107,-0.056444 -0.081139,-0.056444 -0.081139,-0.2010828 0,-0.1481664 0.081139,-0.2010829 0.084666,-0.056444 0.2046107,-0.056444 z M 3.2085127,2.2119186 V 4.1380811 H 2.682875 V 2.2119186 Z"
             id="path1286" />
          <path
             d="m 4.8524547,2.1766409 q 0.3104438,0 0.4974156,0.169333 0.1869718,0.1658052 0.1869718,0.536221 V 4.1380811 H 5.0112044 V 3.0127224 q 0,-0.2081384 -0.074083,-0.3104437 -0.074083,-0.1058331 -0.2363606,-0.1058331 -0.2398883,0 -0.3280826,0.1658052 -0.088194,0.1622774 -0.088194,0.4691934 V 4.1380811 H 3.758846 V 2.2119186 h 0.4021658 l 0.070555,0.2469439 h 0.028222 Q 4.3515114,2.3106962 4.510261,2.2436686 4.6725385,2.1766409 4.8524547,2.1766409 Z"
             id="path1288" />
        </g>
      </g>
    </g>
  </g>
</svg>
