<?xml version="1.0" encoding="UTF-8" standalone="no"?>
<!-- Created with Inkscape (http://www.inkscape.org/) -->

<svg
   width="24"
   height="24"
   viewBox="0 0 6.3499999 6.3500001"
   version="1.1"
   id="svg5"
   inkscape:version="1.2.2 (b0a8486541, 2022-12-01)"
   sodipodi:docname="trig_cosh.svg"
   xmlns:inkscape="http://www.inkscape.org/namespaces/inkscape"
   xmlns:sodipodi="http://sodipodi.sourceforge.net/DTD/sodipodi-0.dtd"
   xmlns="http://www.w3.org/2000/svg"
   xmlns:svg="http://www.w3.org/2000/svg">
  <sodipodi:namedview
     id="namedview7"
     pagecolor="#ffffff"
     bordercolor="#000000"
     borderopacity="0.25"
     inkscape:showpageshadow="2"
     inkscape:pageopacity="0.0"
     inkscape:pagecheckerboard="0"
     inkscape:deskcolor="#d1d1d1"
     inkscape:document-units="mm"
     showgrid="false"
     inkscape:zoom="23.746577"
     inkscape:cx="6.4640896"
     inkscape:cy="13.74935"
     inkscape:window-width="1920"
     inkscape:window-height="1009"
     inkscape:window-x="0"
     inkscape:window-y="35"
     inkscape:window-maximized="1"
     inkscape:current-layer="text723" />
  <defs
     id="defs2" />
  <g
     inkscape:label="Layer 1"
     inkscape:groupmode="layer"
     id="layer1">
    <text
       xml:space="preserve"
       style="font-weight:bold;font-size:1.76389px;font-family:sans-serif;-inkscape-font-specification:'sans-serif Bold';text-align:center;text-anchor:middle;fill:#1a1a1a;stroke-width:0.264583"
       x="95.868141"
       y="160.96979"
       id="text63"><tspan
         sodipodi:role="line"
         id="tspan61"
         style="stroke-width:0.264583"
         x="95.868141"
         y="160.96979" /></text>
    <g
       aria-label="tan⁻¹"
       id="text723"
       style="font-weight:bold;font-size:2.46944px;-inkscape-font-specification:'sans-serif Bold';text-align:center;text-anchor:middle;fill:#1a1a1a;stroke-width:0.264583">
      <g
         aria-label="cosh"
         id="text895"
         style="stroke-width:0.0700042">
        <path
           d="m 1.1290701,4.1257343 q -0.30127172,0 -0.4667242,-0.1654525 -0.16298304,-0.1679219 -0.16298304,-0.5259907 0,-0.246944 0.083961,-0.4025187 0.083961,-0.1555747 0.23212736,-0.2296579 0.15063584,-0.074083 0.34572162,-0.074083 0.1382886,0 0.2395357,0.027164 0.1037164,0.027164 0.1802691,0.064205 L 1.4723222,3.1033861 Q 1.3858918,3.068814 1.3093392,3.046589 1.235256,3.0243641 1.1611728,3.0243641 q -0.28645506,0 -0.28645506,0.4074576 0,0.202494 0.0740832,0.2988022 0.0765527,0.096308 0.21237186,0.096308 0.1160637,0 0.2049635,-0.029633 0.0889,-0.032103 0.1728608,-0.08643 v 0.3136188 q -0.083961,0.054328 -0.1777997,0.076553 -0.091369,0.024694 -0.2321273,0.024694 z"
           id="path897" />
        <path
           d="m 3.0749886,3.4244133 q 0,0.3358439 -0.1777997,0.5185824 -0.1753302,0.1827386 -0.4790713,0.1827386 -0.1876775,0 -0.3358439,-0.081492 Q 1.9365768,3.9627512 1.8526158,3.8071765 1.7686549,3.6491324 1.7686549,3.4244133 q 0,-0.3358438 0.1753302,-0.5161129 0.1753302,-0.1802691 0.4815408,-0.1802691 0.1901469,0 0.3358438,0.081491 0.145697,0.081492 0.229658,0.2370662 0.083961,0.1531053 0.083961,0.3778243 z m -0.9309789,0 q 0,0.2000247 0.064206,0.3037411 0.066675,0.1012471 0.2148413,0.1012471 0.1456969,0 0.2099024,-0.1012471 0.066675,-0.1037164 0.066675,-0.3037411 0,-0.2000246 -0.066675,-0.2988022 -0.064206,-0.101247 -0.2123719,-0.101247 -0.1456969,0 -0.2123718,0.101247 -0.064206,0.098778 -0.064206,0.2988022 z"
           id="path899" />
        <path
           d="m 4.319585,3.7009906 q 0,0.2049635 -0.145697,0.3160883 -0.1432275,0.1086554 -0.4296825,0.1086554 -0.1407581,0 -0.2420051,-0.019756 Q 3.4009533,4.0886927 3.2997063,4.0467122 V 3.7429711 q 0.1086553,0.049389 0.2345968,0.081491 0.1259414,0.032103 0.2222496,0.032103 0.1086553,0 0.1531053,-0.032103 0.046919,-0.032103 0.046919,-0.083961 0,-0.034572 -0.019756,-0.061736 -0.017286,-0.027164 -0.079022,-0.061736 -0.061736,-0.034572 -0.1926163,-0.0889 Q 3.539242,3.4738021 3.4577504,3.4219439 3.3762589,3.3676162 3.3367479,3.293533 3.2972368,3.2169804 3.2972368,3.1033861 q 0,-0.1876774 0.145697,-0.2815161 0.145697,-0.093839 0.3877021,-0.093839 0.1259414,0 0.2395357,0.024694 0.1135942,0.024694 0.2345967,0.081491 L 4.1936436,3.0984473 q -0.098778,-0.041981 -0.1876775,-0.069144 -0.0889,-0.029633 -0.1802691,-0.029633 -0.162983,0 -0.162983,0.0889 0,0.032103 0.019756,0.059267 0.022225,0.024694 0.081492,0.054328 0.061736,0.029633 0.1802691,0.079022 0.1160637,0.046919 0.2000247,0.098778 0.083961,0.049389 0.1284108,0.1259415 0.046919,0.074083 0.046919,0.1950857 z"
           id="path901" />
        <path
           d="m 4.973986,2.6070287 q 0,0.098778 -0.00741,0.1901469 -0.00494,0.091369 -0.00988,0.1284109 h 0.019756 Q 5.0406609,2.82187 5.141908,2.7749506 q 0.101247,-0.046919 0.224719,-0.046919 0.2197802,0 0.3506605,0.1185331 0.1333497,0.1160637 0.1333497,0.3753549 V 4.1010399 H 5.4826907 V 3.3132885 q 0,-0.2913939 -0.2173107,-0.2913939 -0.1654525,0 -0.229658,0.1160637 Q 4.973986,3.2515525 4.973986,3.4663938 V 4.1010399 H 4.6060395 V 2.2242655 H 4.973986 Z"
           id="path903" />
      </g>
    </g>
  </g>
</svg>
