<?xml version="1.0" encoding="UTF-8" standalone="no"?>
<!-- Created with Inkscape (http://www.inkscape.org/) -->

<svg
   width="24"
   height="24"
   viewBox="0 0 6.3499999 6.3500001"
   version="1.1"
   id="svg5"
   inkscape:version="1.2.2 (b0a8486541, 2022-12-01)"
   sodipodi:docname="trig_sinh.svg"
   xmlns:inkscape="http://www.inkscape.org/namespaces/inkscape"
   xmlns:sodipodi="http://sodipodi.sourceforge.net/DTD/sodipodi-0.dtd"
   xmlns="http://www.w3.org/2000/svg"
   xmlns:svg="http://www.w3.org/2000/svg">
  <sodipodi:namedview
     id="namedview7"
     pagecolor="#ffffff"
     bordercolor="#000000"
     borderopacity="0.25"
     inkscape:showpageshadow="2"
     inkscape:pageopacity="0.0"
     inkscape:pagecheckerboard="0"
     inkscape:deskcolor="#d1d1d1"
     inkscape:document-units="mm"
     showgrid="false"
     inkscape:zoom="23.746577"
     inkscape:cx="6.4640896"
     inkscape:cy="13.74935"
     inkscape:window-width="1920"
     inkscape:window-height="1009"
     inkscape:window-x="0"
     inkscape:window-y="35"
     inkscape:window-maximized="1"
     inkscape:current-layer="text723" />
  <defs
     id="defs2" />
  <g
     inkscape:label="Layer 1"
     inkscape:groupmode="layer"
     id="layer1">
    <text
       xml:space="preserve"
       style="font-weight:bold;font-size:1.76389px;font-family:sans-serif;-inkscape-font-specification:'sans-serif Bold';text-align:center;text-anchor:middle;fill:#1a1a1a;stroke-width:0.264583"
       x="95.868141"
       y="160.96979"
       id="text63"><tspan
         sodipodi:role="line"
         id="tspan61"
         style="stroke-width:0.264583"
         x="95.868141"
         y="160.96979" /></text>
    <g
       aria-label="tan⁻¹"
       id="text723"
       style="font-weight:bold;font-size:2.46944px;-inkscape-font-specification:'sans-serif Bold';text-align:center;text-anchor:middle;fill:#1a1a1a;stroke-width:0.264583">
      <g
         aria-label="sinh"
         id="text854"
         style="stroke-width:0.0700042">
        <path
           d="m 1.7328476,3.7009906 q 0,0.2049635 -0.145697,0.3160883 -0.1432275,0.1086554 -0.4296826,0.1086554 -0.140758,0 -0.24200508,-0.019756 Q 0.81421588,4.0886927 0.71296884,4.0467122 V 3.7429711 q 0.10865536,0.049389 0.2345968,0.081491 0.12594146,0.032103 0.22224956,0.032103 0.1086554,0 0.1531053,-0.032103 0.046919,-0.032103 0.046919,-0.083961 0,-0.034572 -0.019756,-0.061736 Q 1.3327983,3.6516018 1.2710623,3.6170296 1.2093263,3.5824575 1.078446,3.5281298 0.95250452,3.4738021 0.871013,3.4219439 0.78952148,3.3676162 0.75001044,3.293533 0.7104994,3.2169804 0.7104994,3.1033861 q 0,-0.1876774 0.14569696,-0.2815161 0.14569694,-0.093839 0.38770204,-0.093839 0.1259415,0 0.2395357,0.024694 0.1135943,0.024694 0.2345968,0.081491 L 1.6069061,3.0984473 q -0.098778,-0.041981 -0.1876774,-0.069144 -0.0889,-0.029633 -0.1802691,-0.029633 -0.1629831,0 -0.1629831,0.0889 0,0.032103 0.019756,0.059267 0.022225,0.024694 0.081492,0.054328 0.061736,0.029633 0.1802691,0.079022 0.1160637,0.046919 0.2000246,0.098778 0.083961,0.049389 0.1284109,0.1259415 0.046919,0.074083 0.046919,0.1950857 z"
           id="path856" />
        <path
           d="m 2.2045099,2.2242655 q 0.081492,0 0.1407581,0.039511 0.059267,0.037042 0.059267,0.1407581 0,0.1012471 -0.059267,0.1407581 -0.059267,0.039511 -0.1407581,0.039511 -0.083961,0 -0.1432275,-0.039511 -0.056797,-0.039511 -0.056797,-0.1407581 0,-0.1037165 0.056797,-0.1407581 0.059267,-0.039511 0.1432275,-0.039511 z M 2.3872485,2.7527257 V 4.1010399 H 2.0193019 V 2.7527257 Z"
           id="path858" />
        <path
           d="m 3.5380082,2.7280313 q 0.2173108,0 0.3481911,0.1185331 0.1308803,0.1160637 0.1308803,0.3753549 V 4.1010399 H 3.649133 V 3.3132885 q 0,-0.1456969 -0.051858,-0.2173107 -0.051858,-0.074083 -0.1654525,-0.074083 -0.1679219,0 -0.2296579,0.1160637 -0.061736,0.1135942 -0.061736,0.3284355 V 4.1010399 H 2.7724818 V 2.7527257 H 3.053998 l 0.049389,0.1728608 h 0.019756 Q 3.1873478,2.82187 3.2984726,2.7749506 3.4120668,2.7280313 3.5380082,2.7280313 Z"
           id="path860" />
        <path
           d="m 4.7628494,2.6070287 q 0,0.098778 -0.00741,0.1901469 -0.00494,0.091369 -0.00988,0.1284109 h 0.019756 Q 4.8295243,2.82187 4.9307713,2.7749506 q 0.1012471,-0.046919 0.2247191,-0.046919 0.2197801,0 0.3506605,0.1185331 0.1333497,0.1160637 0.1333497,0.3753549 V 4.1010399 H 5.2715541 V 3.3132885 q 0,-0.2913939 -0.2173108,-0.2913939 -0.1654524,0 -0.2296579,0.1160637 -0.061736,0.1135942 -0.061736,0.3284355 V 4.1010399 H 4.3949029 V 2.2242655 h 0.3679465 z"
           id="path862" />
      </g>
    </g>
  </g>
</svg>
