<?xml version="1.0" encoding="UTF-8" standalone="no"?>
<!-- Created with Inkscape (http://www.inkscape.org/) -->

<svg
   width="24"
   height="24"
   viewBox="0 0 6.3499999 6.35"
   version="1.1"
   id="svg5"
   inkscape:version="1.2.2 (b0a8486541, 2022-12-01)"
   sodipodi:docname="trig_tan.svg"
   xmlns:inkscape="http://www.inkscape.org/namespaces/inkscape"
   xmlns:sodipodi="http://sodipodi.sourceforge.net/DTD/sodipodi-0.dtd"
   xmlns="http://www.w3.org/2000/svg"
   xmlns:svg="http://www.w3.org/2000/svg">
  <sodipodi:namedview
     id="namedview7"
     pagecolor="#ffffff"
     bordercolor="#000000"
     borderopacity="0.25"
     inkscape:showpageshadow="2"
     inkscape:pageopacity="0.0"
     inkscape:pagecheckerboard="0"
     inkscape:deskcolor="#d1d1d1"
     inkscape:document-units="mm"
     showgrid="false"
     inkscape:zoom="23.746577"
     inkscape:cx="13.075569"
     inkscape:cy="11.643784"
     inkscape:window-width="1920"
     inkscape:window-height="1009"
     inkscape:window-x="0"
     inkscape:window-y="35"
     inkscape:window-maximized="1"
     inkscape:current-layer="text1246" />
  <defs
     id="defs2" />
  <g
     inkscape:label="Layer 1"
     inkscape:groupmode="layer"
     id="layer1">
    <g
       aria-label="+/-"
       id="text646"
       style="font-weight:bold;font-size:3.52778px;-inkscape-font-specification:'sans-serif Bold';text-align:center;text-anchor:middle;fill:#1a1a1a;stroke-width:0.264583">
      <g
         aria-label="sin"
         id="text1246"
         style="font-size:3.52777px;stroke-width:0.0700042">
        <g
           aria-label="tan"
           id="text1282"
           style="stroke-width:0.0185219">
          <path
             d="m 1.3634898,3.7535541 q 0.088194,0 0.169333,-0.017639 0.081139,-0.017639 0.1622774,-0.042333 v 0.3915825 q -0.084666,0.035278 -0.2116662,0.059972 -0.1234719,0.028222 -0.2716383,0.028222 -0.1728607,0 -0.31044373,-0.056444 Q 0.76729671,4.0604701 0.686158,3.9228871 0.60854706,3.7817763 0.60854706,3.5348324 V 2.6070289 H 0.35807539 V 2.3847794 L 0.64735253,2.2083909 0.79904664,1.8026973 H 1.1341848 V 2.2119186 H 1.6739336 V 2.6070289 H 1.1341848 v 0.9278035 q 0,0.1093609 0.0635,0.1658052 0.0635,0.052917 0.1658051,0.052917 z"
             id="path1371" />
          <path
             d="m 2.8733755,2.1731132 q 0.3880547,0 0.5926653,0.1693329 0.2081385,0.1658052 0.2081385,0.5115267 V 4.1380811 H 3.3072912 L 3.2049858,3.8770261 h -0.014111 q -0.123472,0.1552219 -0.261055,0.2257773 -0.1375831,0.070555 -0.3774714,0.070555 -0.2575272,0 -0.4268602,-0.1481664 -0.169333,-0.1516941 -0.169333,-0.4621378 0,-0.306916 0.215194,-0.4515546 0.215194,-0.1481664 0.6455819,-0.1622774 l 0.3351382,-0.010583 v -0.084666 q 0,-0.1516941 -0.081139,-0.2222495 -0.077611,-0.070555 -0.2187218,-0.070555 -0.1411108,0 -0.275166,0.042333 -0.1340553,0.038806 -0.2681105,0.098778 L 2.1360715,2.3459739 Q 2.2912934,2.2648352 2.4782652,2.2189742 2.6687648,2.1731132 2.8733755,2.1731132 Z m 0.074083,1.0794976 q -0.2539994,0.00706 -0.352777,0.091722 -0.098777,0.084666 -0.098777,0.2222495 0,0.1199442 0.070555,0.1728608 0.070555,0.049389 0.183444,0.049389 0.169333,0 0.2857494,-0.098778 Q 3.1520693,3.5877489 3.1520693,3.4043049 V 3.2455553 Z"
             id="path1373" />
          <path
             d="m 5.3075371,2.1766409 q 0.3104438,0 0.4974156,0.169333 0.1869718,0.1658052 0.1869718,0.536221 V 4.1380811 H 5.4662868 V 3.0127224 q 0,-0.2081384 -0.074083,-0.3104437 -0.074083,-0.1058331 -0.2363606,-0.1058331 -0.2398884,0 -0.3280826,0.1658052 -0.088194,0.1622774 -0.088194,0.4691934 V 4.1380811 H 4.2139284 V 2.2119186 h 0.4021658 l 0.070555,0.2469439 h 0.028222 Q 4.8065938,2.3106962 4.9653434,2.2436686 5.1276208,2.1766409 5.3075371,2.1766409 Z"
             id="path1375" />
        </g>
      </g>
    </g>
  </g>
</svg>
