<?xml version="1.0" encoding="UTF-8" standalone="no"?>
<!-- Created with Inkscape (http://www.inkscape.org/) -->

<svg
   width="24"
   height="24"
   viewBox="0 0 6.3499999 6.3500001"
   version="1.1"
   id="svg5"
   inkscape:version="1.2.2 (b0a8486541, 2022-12-01)"
   sodipodi:docname="trig_tanh.svg"
   xmlns:inkscape="http://www.inkscape.org/namespaces/inkscape"
   xmlns:sodipodi="http://sodipodi.sourceforge.net/DTD/sodipodi-0.dtd"
   xmlns="http://www.w3.org/2000/svg"
   xmlns:svg="http://www.w3.org/2000/svg">
  <sodipodi:namedview
     id="namedview7"
     pagecolor="#ffffff"
     bordercolor="#000000"
     borderopacity="0.25"
     inkscape:showpageshadow="2"
     inkscape:pageopacity="0.0"
     inkscape:pagecheckerboard="0"
     inkscape:deskcolor="#d1d1d1"
     inkscape:document-units="mm"
     showgrid="false"
     inkscape:zoom="23.746577"
     inkscape:cx="6.4640896"
     inkscape:cy="13.74935"
     inkscape:window-width="1920"
     inkscape:window-height="1009"
     inkscape:window-x="0"
     inkscape:window-y="35"
     inkscape:window-maximized="1"
     inkscape:current-layer="text723" />
  <defs
     id="defs2" />
  <g
     inkscape:label="Layer 1"
     inkscape:groupmode="layer"
     id="layer1">
    <text
       xml:space="preserve"
       style="font-weight:bold;font-size:1.76389px;font-family:sans-serif;-inkscape-font-specification:'sans-serif Bold';text-align:center;text-anchor:middle;fill:#1a1a1a;stroke-width:0.264583"
       x="95.868141"
       y="160.96979"
       id="text63"><tspan
         sodipodi:role="line"
         id="tspan61"
         style="stroke-width:0.264583"
         x="95.868141"
         y="160.96979" /></text>
    <g
       aria-label="tan⁻¹"
       id="text723"
       style="font-weight:bold;font-size:2.46944px;-inkscape-font-specification:'sans-serif Bold';text-align:center;text-anchor:middle;fill:#1a1a1a;stroke-width:0.264583">
      <g
         aria-label="tanh"
         id="text936"
         style="stroke-width:0.0700042">
        <path
           d="m 1.0957319,3.8318709 q 0.061736,0 0.1185331,-0.012347 0.056797,-0.012347 0.1135942,-0.029633 v 0.2741079 q -0.059267,0.024694 -0.1481664,0.041981 -0.08643,0.019756 -0.19014686,0.019756 -0.12100255,0 -0.21731071,-0.039511 Q 0.67839651,4.0467122 0.62159939,3.950404 0.56727171,3.8516264 0.56727171,3.6787656 V 3.0293029 H 0.39194147 V 2.8737282 L 0.59443555,2.7502562 0.70062147,2.4662706 H 0.93521826 V 2.7527257 H 1.3130426 V 3.0293029 H 0.93521826 v 0.6494627 q 0,0.076553 0.0444499,0.1160637 0.0444499,0.037042 0.11606372,0.037042 z"
           id="path938" />
        <path
           d="m 2.1526522,2.7255618 q 0.2716384,0 0.4148659,0.1185331 Q 2.713215,2.9601586 2.713215,3.2021637 V 4.1010399 H 2.4563933 L 2.3847795,3.9183013 h -0.00988 q -0.08643,0.1086554 -0.1827386,0.1580442 -0.096308,0.049389 -0.2642301,0.049389 -0.1802691,0 -0.2988022,-0.1037165 -0.1185331,-0.1061859 -0.1185331,-0.3234966 0,-0.2148413 0.1506358,-0.3160883 0.1506358,-0.1037165 0.4519075,-0.1135943 l 0.2345968,-0.00741 v -0.059267 q 0,-0.1061859 -0.056797,-0.1555747 -0.054328,-0.049389 -0.1531053,-0.049389 -0.098778,0 -0.1926163,0.029633 -0.093839,0.027164 -0.1876774,0.069144 L 1.6365392,2.8465644 q 0.1086554,-0.056797 0.2395357,-0.0889 0.1333497,-0.032103 0.2765773,-0.032103 z m 0.051858,0.7556487 q -0.1777997,0.00494 -0.246944,0.064205 -0.069144,0.059267 -0.069144,0.1555747 0,0.083961 0.049389,0.1210026 0.049389,0.034572 0.1284109,0.034572 0.1185331,0 0.2000246,-0.069144 0.081491,-0.071614 0.081491,-0.2000246 V 3.4762716 Z"
           id="path940" />
        <path
           d="m 3.856566,2.7280313 q 0.2173107,0 0.348191,0.1185331 0.1308803,0.1160637 0.1308803,0.3753549 V 4.1010399 H 3.9676908 V 3.3132885 q 0,-0.1456969 -0.051858,-0.2173107 -0.051858,-0.074083 -0.1654524,-0.074083 -0.167922,0 -0.229658,0.1160637 -0.061736,0.1135942 -0.061736,0.3284355 V 4.1010399 H 3.0910396 V 2.7527257 h 0.2815161 l 0.049389,0.1728608 h 0.019756 Q 3.5059055,2.82187 3.6170303,2.7749506 3.7306245,2.7280313 3.856566,2.7280313 Z"
           id="path942" />
        <path
           d="m 5.0814072,2.6070287 q 0,0.098778 -0.00741,0.1901469 -0.00494,0.091369 -0.00988,0.1284109 h 0.019755 Q 5.148082,2.82187 5.2493291,2.7749506 q 0.101247,-0.046919 0.224719,-0.046919 0.2197802,0 0.3506605,0.1185331 0.1333498,0.1160637 0.1333498,0.3753549 V 4.1010399 H 5.5901118 V 3.3132885 q 0,-0.2913939 -0.2173107,-0.2913939 -0.1654525,0 -0.2296579,0.1160637 -0.061736,0.1135942 -0.061736,0.3284355 V 4.1010399 H 4.7134606 V 2.2242655 h 0.3679466 z"
           id="path944" />
      </g>
    </g>
  </g>
</svg>
