<?xml version="1.0" encoding="UTF-8" standalone="no"?>
<!-- Created with Inkscape (http://www.inkscape.org/) -->

<svg
   width="24"
   height="24"
   viewBox="0 0 6.3499999 6.3500001"
   version="1.1"
   id="svg5"
   inkscape:version="1.2.2 (b0a8486541, 2022-12-01)"
   sodipodi:docname="trig_asin.svg"
   xmlns:inkscape="http://www.inkscape.org/namespaces/inkscape"
   xmlns:sodipodi="http://sodipodi.sourceforge.net/DTD/sodipodi-0.dtd"
   xmlns="http://www.w3.org/2000/svg"
   xmlns:svg="http://www.w3.org/2000/svg">
  <sodipodi:namedview
     id="namedview7"
     pagecolor="#ffffff"
     bordercolor="#000000"
     borderopacity="0.25"
     inkscape:showpageshadow="2"
     inkscape:pageopacity="0.0"
     inkscape:pagecheckerboard="0"
     inkscape:deskcolor="#d1d1d1"
     inkscape:document-units="mm"
     showgrid="false"
     inkscape:zoom="23.746577"
     inkscape:cx="6.4640896"
     inkscape:cy="13.74935"
     inkscape:window-width="1920"
     inkscape:window-height="1009"
     inkscape:window-x="0"
     inkscape:window-y="35"
     inkscape:window-maximized="1"
     inkscape:current-layer="text723" />
  <defs
     id="defs2" />
  <g
     inkscape:label="Layer 1"
     inkscape:groupmode="layer"
     id="layer1">
    <text
       xml:space="preserve"
       style="font-weight:bold;font-size:1.76389px;font-family:sans-serif;-inkscape-font-specification:'sans-serif Bold';text-align:center;text-anchor:middle;fill:#1a1a1a;stroke-width:0.264583"
       x="95.868141"
       y="160.96979"
       id="text63"><tspan
         sodipodi:role="line"
         id="tspan61"
         style="stroke-width:0.264583"
         x="95.868141"
         y="160.96979" /></text>
    <g
       aria-label="tan⁻¹"
       id="text723"
       style="font-weight:bold;font-size:2.46944px;-inkscape-font-specification:'sans-serif Bold';text-align:center;text-anchor:middle;fill:#1a1a1a;stroke-width:0.264583">
      <g
         aria-label="sin⁻¹"
         id="text810"
         style="stroke-width:0.0700042">
        <path
           d="m 1.6562959,3.804707 q 0,0.2049635 -0.1456969,0.3160883 -0.1432276,0.1086554 -0.4296826,0.1086554 -0.14075808,0 -0.24200512,-0.019756 Q 0.73766424,4.1924091 0.6364172,4.1504286 V 3.8466875 q 0.10865536,0.049389 0.2345968,0.081492 0.12594144,0.032103 0.2222496,0.032103 0.1086554,0 0.1531053,-0.032103 0.046919,-0.032103 0.046919,-0.083961 0,-0.034572 -0.019756,-0.061736 Q 1.2562466,3.7553182 1.1945106,3.720746 1.1327746,3.6861739 1.0018943,3.6318462 0.87595288,3.5775185 0.79446136,3.5256603 0.71296984,3.4713326 0.6734588,3.3972494 q -0.039511,-0.076553 -0.039511,-0.1901469 0,-0.1876774 0.14569696,-0.2815162 0.14569696,-0.093839 0.38770208,-0.093839 0.1259414,0 0.2395357,0.024694 0.1135942,0.024694 0.2345968,0.081492 L 1.5303545,3.2021636 Q 1.4315769,3.1601831 1.342677,3.1330193 1.2537772,3.103386 1.1624079,3.103386 q -0.16298302,0 -0.16298302,0.0889 0,0.032103 0.0197555,0.059267 0.022225,0.024694 0.081492,0.054328 0.061736,0.029633 0.1802691,0.079022 0.1160637,0.046919 0.2000247,0.098778 0.083961,0.049389 0.1284109,0.1259414 0.046919,0.074083 0.046919,0.1950858 z"
           id="path812" />
        <path
           d="m 2.1279583,2.3279819 q 0.081491,0 0.1407581,0.039511 0.059266,0.037042 0.059266,0.1407581 0,0.101247 -0.059266,0.1407581 -0.059267,0.039511 -0.1407581,0.039511 -0.083961,0 -0.1432275,-0.039511 -0.056797,-0.039511 -0.056797,-0.1407581 0,-0.1037165 0.056797,-0.1407581 0.059267,-0.039511 0.1432275,-0.039511 z M 2.3106969,2.856442 V 4.2047563 H 1.9427503 V 2.856442 Z"
           id="path814" />
        <path
           d="m 3.4614566,2.8317476 q 0.2173107,0 0.348191,0.1185331 Q 3.940528,3.0663444 3.940528,3.3256356 V 4.2047563 H 3.5725814 V 3.4170049 q 0,-0.145697 -0.051858,-0.2173107 -0.051858,-0.074083 -0.1654525,-0.074083 -0.1679219,0 -0.2296579,0.1160637 -0.061736,0.1135942 -0.061736,0.3284355 V 4.2047563 H 2.6959302 V 2.856442 h 0.2815162 l 0.049389,0.1728608 h 0.019756 Q 3.1107961,2.9255863 3.2219209,2.878667 3.3355152,2.8317476 3.4614566,2.8317476 Z"
           id="path816" />
        <path
           d="M 4.2121653,2.8119921 V 2.6440702 h 0.7136682 v 0.1679219 z"
           id="path818" />
        <path
           d="M 5.7160524,2.1205489 V 3.1774692 H 5.4295973 V 2.6391313 q 0,-0.032103 0,-0.083961 0.00247,-0.051858 0.00494,-0.098778 0.00247,-0.049389 0.00494,-0.066675 -0.014817,0.019756 -0.04445,0.049389 -0.027164,0.027164 -0.046919,0.04445 L 5.2542671,2.5576398 5.1233868,2.4045345 5.4863944,2.1205489 Z"
           id="path820" />
      </g>
    </g>
  </g>
</svg>
