<?xml version="1.0" encoding="UTF-8" standalone="no"?>
<!-- Created with Inkscape (http://www.inkscape.org/) -->

<svg
   width="24"
   height="24"
   viewBox="0 0 6.3499999 6.3500001"
   version="1.1"
   id="svg5"
   inkscape:version="1.2.2 (b0a8486541, 2022-12-01)"
   sodipodi:docname="trig_acos.svg"
   xmlns:inkscape="http://www.inkscape.org/namespaces/inkscape"
   xmlns:sodipodi="http://sodipodi.sourceforge.net/DTD/sodipodi-0.dtd"
   xmlns="http://www.w3.org/2000/svg"
   xmlns:svg="http://www.w3.org/2000/svg">
  <sodipodi:namedview
     id="namedview7"
     pagecolor="#ffffff"
     bordercolor="#000000"
     borderopacity="0.25"
     inkscape:showpageshadow="2"
     inkscape:pageopacity="0.0"
     inkscape:pagecheckerboard="0"
     inkscape:deskcolor="#d1d1d1"
     inkscape:document-units="mm"
     showgrid="false"
     inkscape:zoom="23.746577"
     inkscape:cx="6.4640896"
     inkscape:cy="13.74935"
     inkscape:window-width="1920"
     inkscape:window-height="1009"
     inkscape:window-x="0"
     inkscape:window-y="35"
     inkscape:window-maximized="1"
     inkscape:current-layer="text723" />
  <defs
     id="defs2" />
  <g
     inkscape:label="Layer 1"
     inkscape:groupmode="layer"
     id="layer1">
    <text
       xml:space="preserve"
       style="font-weight:bold;font-size:1.76389px;font-family:sans-serif;-inkscape-font-specification:'sans-serif Bold';text-align:center;text-anchor:middle;fill:#1a1a1a;stroke-width:0.264583"
       x="95.868141"
       y="160.96979"
       id="text63"><tspan
         sodipodi:role="line"
         id="tspan61"
         style="stroke-width:0.264583"
         x="95.868141"
         y="160.96979" /></text>
    <g
       aria-label="tan⁻¹"
       id="text723"
       style="font-weight:bold;font-size:2.46944px;-inkscape-font-specification:'sans-serif Bold';text-align:center;text-anchor:middle;fill:#1a1a1a;stroke-width:0.264583">
      <g
         aria-label="cos⁻¹"
         id="text766"
         style="stroke-width:0.0700042">
        <path
           d="m 1.0525184,4.2294507 q -0.30127165,0 -0.46672413,-0.1654525 -0.16298304,-0.1679219 -0.16298304,-0.5259907 0,-0.246944 0.083961,-0.4025188 0.083961,-0.1555747 0.23212736,-0.2296579 0.15063583,-0.074083 0.34572155,-0.074083 0.1382887,0 0.2395357,0.027164 0.1037165,0.027164 0.1802691,0.064205 L 1.3957706,3.2071025 q -0.08643,-0.034572 -0.1629831,-0.056797 -0.074083,-0.022225 -0.1481664,-0.022225 -0.286455,0 -0.286455,0.4074576 0,0.2024941 0.0740832,0.2988023 0.0765526,0.096308 0.2123718,0.096308 0.1160637,0 0.2049636,-0.029633 0.0889,-0.032103 0.1728608,-0.08643 v 0.3136189 q -0.083961,0.054328 -0.1777997,0.076553 -0.091369,0.024694 -0.2321274,0.024694 z"
           id="path768" />
        <path
           d="m 2.998437,3.5281297 q 0,0.3358438 -0.1777997,0.5185824 -0.1753302,0.1827386 -0.4790714,0.1827386 -0.1876774,0 -0.3358438,-0.081492 -0.145697,-0.081491 -0.2296579,-0.2370662 -0.083961,-0.1580442 -0.083961,-0.3827632 0,-0.3358438 0.1753303,-0.516113 0.1753302,-0.1802691 0.4815408,-0.1802691 0.1901468,0 0.3358438,0.081492 0.145697,0.081492 0.2296579,0.2370663 0.083961,0.1531053 0.083961,0.3778243 z m -0.9309789,0 q 0,0.2000246 0.064205,0.3037411 0.066675,0.1012471 0.2148413,0.1012471 0.145697,0 0.2099024,-0.1012471 0.066675,-0.1037165 0.066675,-0.3037411 0,-0.2000246 -0.066675,-0.2988022 -0.064205,-0.1012471 -0.2123718,-0.1012471 -0.145697,0 -0.2123719,0.1012471 -0.064205,0.098778 -0.064205,0.2988022 z"
           id="path770" />
        <path
           d="m 4.2430334,3.804707 q 0,0.2049635 -0.145697,0.3160883 -0.1432275,0.1086554 -0.4296826,0.1086554 -0.140758,0 -0.2420051,-0.019756 -0.101247,-0.017286 -0.2024941,-0.059267 V 3.8466875 q 0.1086554,0.049389 0.2345968,0.081492 0.1259415,0.032103 0.2222496,0.032103 0.1086554,0 0.1531053,-0.032103 0.046919,-0.032103 0.046919,-0.083961 0,-0.034572 -0.019756,-0.061736 Q 3.8429841,3.7553182 3.7812481,3.720746 3.7195121,3.6861739 3.5886318,3.6318462 3.4626903,3.5775185 3.3811988,3.5256603 3.2997073,3.4713326 3.2601962,3.3972494 3.2206852,3.3206967 3.2206852,3.2071025 q 0,-0.1876774 0.145697,-0.2815162 0.1456969,-0.093839 0.387702,-0.093839 0.1259415,0 0.2395357,0.024694 0.1135943,0.024694 0.2345968,0.081492 L 4.1170919,3.2021636 q -0.098778,-0.041981 -0.1876774,-0.069144 -0.0889,-0.029633 -0.1802691,-0.029633 -0.1629831,0 -0.1629831,0.0889 0,0.032103 0.019756,0.059267 0.022225,0.024694 0.081492,0.054328 0.061736,0.029633 0.1802691,0.079022 0.1160637,0.046919 0.2000246,0.098778 0.083961,0.049389 0.1284109,0.1259414 0.046919,0.074083 0.046919,0.1950858 z"
           id="path772" />
        <path
           d="M 4.4233019,2.8119921 V 2.6440702 h 0.7136682 v 0.1679219 z"
           id="path774" />
        <path
           d="M 5.927189,2.1205489 V 3.1774692 H 5.640734 V 2.6391313 q 0,-0.032103 0,-0.083961 0.00247,-0.051858 0.00494,-0.098778 0.00247,-0.049389 0.00494,-0.066675 -0.014817,0.019756 -0.04445,0.049389 -0.027164,0.027164 -0.046919,0.04445 L 5.4654037,2.5576398 5.3345234,2.4045345 5.6975311,2.1205489 Z"
           id="path776" />
      </g>
    </g>
  </g>
</svg>
