<?xml version="1.0" encoding="UTF-8" standalone="no"?>
<!-- Created with Inkscape (http://www.inkscape.org/) -->

<svg
   width="24"
   height="24"
   viewBox="0 0 6.3499999 6.35"
   version="1.1"
   id="svg5"
   inkscape:version="1.2.2 (b0a8486541, 2022-12-01)"
   sodipodi:docname="trig_cos.svg"
   xmlns:inkscape="http://www.inkscape.org/namespaces/inkscape"
   xmlns:sodipodi="http://sodipodi.sourceforge.net/DTD/sodipodi-0.dtd"
   xmlns="http://www.w3.org/2000/svg"
   xmlns:svg="http://www.w3.org/2000/svg">
  <sodipodi:namedview
     id="namedview7"
     pagecolor="#ffffff"
     bordercolor="#000000"
     borderopacity="0.25"
     inkscape:showpageshadow="2"
     inkscape:pageopacity="0.0"
     inkscape:pagecheckerboard="0"
     inkscape:deskcolor="#d1d1d1"
     inkscape:document-units="mm"
     showgrid="false"
     inkscape:zoom="23.746577"
     inkscape:cx="13.075569"
     inkscape:cy="11.643784"
     inkscape:window-width="1920"
     inkscape:window-height="1009"
     inkscape:window-x="0"
     inkscape:window-y="35"
     inkscape:window-maximized="1"
     inkscape:current-layer="text646" />
  <defs
     id="defs2" />
  <g
     inkscape:label="Layer 1"
     inkscape:groupmode="layer"
     id="layer1">
    <g
       aria-label="+/-"
       id="text646"
       style="font-weight:bold;font-size:3.52778px;-inkscape-font-specification:'sans-serif Bold';text-align:center;text-anchor:middle;fill:#1a1a1a;stroke-width:0.264583">
      <g
         aria-label="cos"
         id="text1210"
         style="font-size:3.52777px;stroke-width:0.0700042">
        <path
           d="m 1.3458522,4.1733588 q -0.43038798,0 -0.66674858,-0.2363606 Q 0.4462708,3.6971098 0.4462708,3.1855832 q 0,-0.352777 0.11994418,-0.5750266 Q 0.68615916,2.3883071 0.89782537,2.282474 1.1130193,2.1766409 1.3917132,2.1766409 q 0.1975551,0 0.3421937,0.038805 0.1481663,0.038806 0.2575272,0.091722 L 1.8362122,2.712862 q -0.123472,-0.049389 -0.2328328,-0.081139 -0.1058331,-0.03175 -0.2116662,-0.03175 -0.40922135,0 -0.40922135,0.5820821 0,0.2892771 0.10583305,0.4268602 0.1093609,0.137583 0.3033883,0.137583 0.1658052,0 0.2928049,-0.042333 0.1269997,-0.045861 0.2469439,-0.123472 V 4.0287202 Q 1.8115178,4.1063311 1.6774625,4.1380811 1.5469351,4.1733588 1.3458522,4.1733588 Z"
           id="path1212" />
        <path
           d="m 4.1257347,3.1714721 q 0,0.4797767 -0.2539994,0.7408317 -0.2504717,0.261055 -0.6843874,0.261055 -0.2681106,0 -0.4797768,-0.1164164 Q 2.4994327,3.940526 2.3794885,3.7182764 2.2595444,3.4924992 2.2595444,3.1714721 q 0,-0.4797767 0.2504716,-0.737304 0.2504717,-0.2575272 0.6879152,-0.2575272 0.2716383,0 0.4797767,0.1164164 0.2081384,0.1164165 0.3280826,0.338666 0.1199442,0.2187217 0.1199442,0.5397488 z m -1.3299693,0 q 0,0.2857494 0.091722,0.4339157 0.09525,0.1446386 0.306916,0.1446386 0.2081384,0 0.2998605,-0.1446386 0.09525,-0.1481663 0.09525,-0.4339157 0,-0.2857494 -0.09525,-0.4268602 -0.091722,-0.1446386 -0.3033883,-0.1446386 -0.2081384,0 -0.3033882,0.1446386 -0.091722,0.1411108 -0.091722,0.4268602 z"
           id="path1214" />
        <path
           d="m 5.9037292,3.5665823 q 0,0.2928049 -0.2081384,0.4515546 -0.2046107,0.1552219 -0.613832,0.1552219 -0.2010829,0 -0.3457215,-0.028222 Q 4.5913987,4.1204422 4.4467602,4.0604701 V 3.6265544 q 0.1552218,0.070555 0.3351381,0.1164164 0.1799163,0.045861 0.3174993,0.045861 0.1552219,0 0.2187218,-0.045861 0.067028,-0.045861 0.067028,-0.1199442 0,-0.049389 -0.028222,-0.088194 Q 5.3322304,3.4960269 5.2440362,3.4466381 5.1558419,3.3972494 4.9688701,3.3196384 4.7889539,3.2420275 4.6725374,3.1679443 4.556121,3.0903334 4.4996767,2.9845003 4.4432324,2.8751394 4.4432324,2.712862 q 0,-0.2681105 0.2081384,-0.4021658 0.2081385,-0.1340553 0.5538599,-0.1340553 0.1799163,0 0.3421937,0.035278 0.1622774,0.035278 0.3351382,0.1164164 L 5.7238129,2.7058064 Q 5.5827021,2.6458343 5.4557024,2.6070289 5.3287027,2.5646956 5.1981752,2.5646956 q -0.2328328,0 -0.2328328,0.1269998 0,0.045861 0.028222,0.084666 0.03175,0.035278 0.1164164,0.077611 0.088194,0.042333 0.2575272,0.1128886 0.1658052,0.067028 0.2857494,0.1411108 0.1199442,0.070555 0.1834441,0.1799163 0.067028,0.1058331 0.067028,0.2786938 z"
           id="path1216" />
      </g>
    </g>
  </g>
</svg>
