<?xml version="1.0" encoding="UTF-8" standalone="no"?>
<!-- Created with Inkscape (http://www.inkscape.org/) -->

<svg
   width="24"
   height="24"
   viewBox="0 0 6.3499999 6.3500001"
   version="1.1"
   id="svg5"
   inkscape:version="1.2.2 (b0a8486541, 2022-12-01)"
   sodipodi:docname="trig_atan.svg"
   xmlns:inkscape="http://www.inkscape.org/namespaces/inkscape"
   xmlns:sodipodi="http://sodipodi.sourceforge.net/DTD/sodipodi-0.dtd"
   xmlns="http://www.w3.org/2000/svg"
   xmlns:svg="http://www.w3.org/2000/svg">
  <sodipodi:namedview
     id="namedview7"
     pagecolor="#ffffff"
     bordercolor="#000000"
     borderopacity="0.25"
     inkscape:showpageshadow="2"
     inkscape:pageopacity="0.0"
     inkscape:pagecheckerboard="0"
     inkscape:deskcolor="#d1d1d1"
     inkscape:document-units="mm"
     showgrid="false"
     inkscape:zoom="23.746577"
     inkscape:cx="6.4640896"
     inkscape:cy="13.74935"
     inkscape:window-width="1920"
     inkscape:window-height="1009"
     inkscape:window-x="0"
     inkscape:window-y="35"
     inkscape:window-maximized="1"
     inkscape:current-layer="layer1" />
  <defs
     id="defs2" />
  <g
     inkscape:label="Layer 1"
     inkscape:groupmode="layer"
     id="layer1">
    <text
       xml:space="preserve"
       style="font-weight:bold;font-size:1.76389px;font-family:sans-serif;-inkscape-font-specification:'sans-serif Bold';text-align:center;text-anchor:middle;fill:#1a1a1a;stroke-width:0.264583"
       x="95.868141"
       y="160.96979"
       id="text63"><tspan
         sodipodi:role="line"
         id="tspan61"
         style="stroke-width:0.264583"
         x="95.868141"
         y="160.96979" /></text>
    <g
       aria-label="tan⁻¹"
       id="text723"
       style="font-weight:bold;font-size:2.46944px;-inkscape-font-specification:'sans-serif Bold';text-align:center;text-anchor:middle;fill:#1a1a1a;stroke-width:0.264583">
      <path
         d="m 1.0191802,3.9355873 q 0.061736,0 0.1185331,-0.012347 0.056797,-0.012347 0.1135943,-0.029633 v 0.2741079 q -0.059267,0.024694 -0.1481664,0.04198 -0.08643,0.019756 -0.19014689,0.019756 -0.12100256,0 -0.21731072,-0.039511 Q 0.60184487,4.1504286 0.54504775,4.0541204 0.49072007,3.9553428 0.49072007,3.782482 V 3.1330193 H 0.31538983 V 2.9774446 L 0.51788391,2.8539726 0.62406983,2.569987 h 0.2345968 V 2.856442 H 1.2364909 V 3.1330193 H 0.85866663 V 3.782482 q 0,0.076553 0.0444499,0.1160637 0.0444499,0.037042 0.11606365,0.037042 z"
         id="path725" />
      <path
         d="m 2.0761005,2.8292782 q 0.2716384,0 0.4148659,0.1185331 0.145697,0.1160637 0.145697,0.3580688 V 4.2047563 H 2.3798416 L 2.3082279,4.0220177 h -0.00988 q -0.08643,0.1086554 -0.1827385,0.1580442 -0.096308,0.049389 -0.2642301,0.049389 -0.1802691,0 -0.2988023,-0.1037165 -0.1185331,-0.1061859 -0.1185331,-0.3234967 0,-0.2148412 0.1506359,-0.3160883 Q 1.7353178,3.3824327 2.0365895,3.372555 l 0.2345968,-0.00741 v -0.059267 q 0,-0.1061859 -0.056797,-0.1555747 -0.054328,-0.049389 -0.1531053,-0.049389 -0.098778,0 -0.1926163,0.029633 -0.093839,0.027164 -0.1876775,0.069144 L 1.5599876,2.9502807 q 0.1086553,-0.056797 0.2395356,-0.0889 0.1333498,-0.032103 0.2765773,-0.032103 z m 0.051858,0.7556486 q -0.1777997,0.00494 -0.246944,0.064206 -0.069144,0.059266 -0.069144,0.1555747 0,0.083961 0.049389,0.1210025 0.049389,0.034572 0.1284109,0.034572 0.1185331,0 0.2000247,-0.069144 0.081492,-0.071614 0.081492,-0.2000247 V 3.5799879 Z"
         id="path727" />
      <path
         d="m 3.7800143,2.8317476 q 0.2173108,0 0.3481911,0.1185331 0.1308803,0.1160637 0.1308803,0.3753549 V 4.2047563 H 3.8911391 V 3.4170049 q 0,-0.145697 -0.051858,-0.2173107 -0.051858,-0.074083 -0.1654525,-0.074083 -0.1679219,0 -0.2296579,0.1160637 -0.061736,0.1135942 -0.061736,0.3284355 V 4.2047563 H 3.0144879 V 2.856442 h 0.2815162 l 0.049389,0.1728608 h 0.019756 Q 3.4293539,2.9255863 3.5404787,2.878667 3.6540729,2.8317476 3.7800143,2.8317476 Z"
         id="path729" />
      <path
         d="M 4.5307231,2.8119921 V 2.6440702 h 0.7136681 v 0.1679219 z"
         id="path731" />
      <path
         d="M 6.0346101,2.1205489 V 3.1774692 H 5.7481551 V 2.6391313 q 0,-0.032103 0,-0.083961 0.00247,-0.051858 0.00494,-0.098778 0.00247,-0.049389 0.00494,-0.066675 -0.014817,0.019756 -0.04445,0.049389 -0.027164,0.027164 -0.046919,0.04445 L 5.5728248,2.5576398 5.4419445,2.4045345 5.8049522,2.1205489 Z"
         id="path733" />
    </g>
  </g>
</svg>
