<?xml version="1.0" encoding="UTF-8" standalone="no"?>
<!-- Created with Inkscape (http://www.inkscape.org/) -->

<svg
   width="24"
   height="24"
   viewBox="0 0 6.3499999 6.35"
   version="1.1"
   id="svg5"
   inkscape:version="1.2.2 (b0a8486541, 2022-12-01)"
   sodipodi:docname="trig_acosh.svg"
   xmlns:inkscape="http://www.inkscape.org/namespaces/inkscape"
   xmlns:sodipodi="http://sodipodi.sourceforge.net/DTD/sodipodi-0.dtd"
   xmlns="http://www.w3.org/2000/svg"
   xmlns:svg="http://www.w3.org/2000/svg">
  <sodipodi:namedview
     id="namedview7"
     pagecolor="#ffffff"
     bordercolor="#000000"
     borderopacity="0.25"
     inkscape:showpageshadow="2"
     inkscape:pageopacity="0.0"
     inkscape:pagecheckerboard="0"
     inkscape:deskcolor="#d1d1d1"
     inkscape:document-units="mm"
     showgrid="false"
     inkscape:zoom="23.746577"
     inkscape:cx="13.075569"
     inkscape:cy="11.643784"
     inkscape:window-width="1920"
     inkscape:window-height="1009"
     inkscape:window-x="0"
     inkscape:window-y="35"
     inkscape:window-maximized="1"
     inkscape:current-layer="text646" />
  <defs
     id="defs2" />
  <g
     inkscape:label="Layer 1"
     inkscape:groupmode="layer"
     id="layer1">
    <g
       aria-label="+/-"
       id="text646"
       style="font-weight:bold;font-size:3.52778px;-inkscape-font-specification:'sans-serif Bold';text-align:center;text-anchor:middle;fill:#1a1a1a;stroke-width:0.264583">
      <g
         aria-label="cosh⁻¹"
         id="text1073"
         style="font-size:2.11667px;stroke-width:0.0700042">
        <path
           d="m 0.66039832,4.0788182 q -0.25823373,0 -0.40005061,-0.1418169 -0.13970022,-0.1439335 -0.13970022,-0.4508507 0,-0.2116669 0.0719668,-0.3450171 0.0719668,-0.1333502 0.19896697,-0.1968503 0.12911686,-0.0635 0.29633378,-0.0635 0.11853352,0 0.20531698,0.023283 0.0889001,0.023283 0.1545169,0.055033 l -0.0931335,0.2434171 q -0.0740835,-0.029633 -0.13970021,-0.048683 -0.0635001,-0.01905 -0.1270002,-0.01905 -0.2455337,0 -0.2455337,0.3492506 0,0.1735669 0.0635001,0.256117 0.0656168,0.08255 0.18203361,0.08255 0.0994835,0 0.17568361,-0.0254 0.0762001,-0.027517 0.14816687,-0.074083 v 0.2688171 q -0.0719668,0.046567 -0.15240021,0.065617 -0.0783168,0.021167 -0.19896697,0.021167 z"
           id="path1075" />
        <path
           d="m 2.3283341,3.477684 q 0,0.2878671 -0.1524002,0.4445006 -0.1502836,0.1566336 -0.410634,0.1566336 -0.1608669,0 -0.2878671,-0.06985 Q 1.3525493,3.939118 1.2805825,3.8057678 1.2086157,3.6703009 1.2086157,3.477684 q 0,-0.2878671 0.1502836,-0.442384 0.1502835,-0.1545169 0.4127506,-0.1545169 0.1629836,0 0.2878671,0.06985 0.1248835,0.06985 0.1968503,0.2032003 0.071967,0.1312335 0.071967,0.3238505 z m -0.7979846,0 q 0,0.1714502 0.055033,0.2603504 0.05715,0.086783 0.1841502,0.086783 0.1248836,0 0.179917,-0.086783 0.05715,-0.0889 0.05715,-0.2603504 0,-0.1714503 -0.05715,-0.2561171 -0.055033,-0.086784 -0.1820336,-0.086784 -0.1248835,0 -0.1820336,0.086784 -0.055033,0.084667 -0.055033,0.2561171 z"
           id="path1077" />
        <path
           d="m 3.3951346,3.714751 q 0,0.1756836 -0.1248836,0.2709337 -0.1227668,0.093133 -0.3683005,0.093133 -0.1206502,0 -0.2074337,-0.016933 -0.086783,-0.014817 -0.1735669,-0.0508 V 3.7507344 q 0.093133,0.042333 0.2010836,0.06985 0.1079502,0.027517 0.1905003,0.027517 0.093133,0 0.1312336,-0.027517 0.040217,-0.027517 0.040217,-0.071967 0,-0.029633 -0.016933,-0.052917 Q 3.052234,3.6724176 2.9993173,3.6427842 2.9464005,3.6131508 2.834217,3.5665841 2.7262669,3.5200174 2.6564168,3.4755673 2.5865667,3.4290006 2.5526999,3.3655005 2.5188332,3.2998837 2.5188332,3.2025169 q 0,-0.1608669 0.1248835,-0.2413004 0.1248836,-0.080433 0.3323172,-0.080433 0.1079502,0 0.205317,0.021167 0.097367,0.021167 0.2010836,0.06985 l -0.09525,0.2264836 q -0.084667,-0.035983 -0.1608669,-0.059267 -0.0762,-0.0254 -0.1545169,-0.0254 -0.1397002,0 -0.1397002,0.0762 0,0.027517 0.016933,0.0508 0.01905,0.021167 0.06985,0.046567 0.052917,0.0254 0.1545169,0.067733 0.099483,0.040217 0.1714503,0.084667 0.071967,0.042333 0.1100668,0.1079502 0.040217,0.0635 0.040217,0.1672169 z"
           id="path1079" />
        <path
           d="m 3.9560517,2.7770662 q 0,0.084667 -0.00635,0.1629836 -0.00423,0.078317 -0.00847,0.1100669 h 0.016933 q 0.055033,-0.0889 0.1418168,-0.1291169 0.086784,-0.040217 0.192617,-0.040217 0.1883836,0 0.3005671,0.1016001 0.1143002,0.099483 0.1143002,0.3217338 V 4.0576515 H 4.3920857 V 3.3824338 q 0,-0.249767 -0.186267,-0.249767 -0.1418168,0 -0.1968503,0.099483 -0.052917,0.097367 -0.052917,0.2815171 V 4.0576515 H 3.6406679 V 2.4489824 h 0.3153838 z"
           id="path1081" />
        <path
           d="M 4.9403021,2.8638497 V 2.7199161 h 0.6117176 v 0.1439336 z"
           id="path1083" />
        <path
           d="M 6.2293525,2.2711821 V 3.1771168 H 5.9838188 v -0.461434 q 0,-0.027517 0,-0.071967 0.00212,-0.04445 0.00423,-0.084667 0.00212,-0.042333 0.00423,-0.05715 -0.0127,0.016933 -0.0381,0.042333 -0.023283,0.023283 -0.040217,0.0381 l -0.080433,0.0635 L 5.7213517,2.5145992 6.0325022,2.2711821 Z"
           id="path1085" />
      </g>
    </g>
  </g>
</svg>
