<?xml version="1.0" encoding="UTF-8" standalone="no"?>
<!-- Created with Inkscape (http://www.inkscape.org/) -->

<svg
   width="24"
   height="24"
   viewBox="0 0 6.3499999 6.35"
   version="1.1"
   id="svg5"
   inkscape:version="1.2.2 (b0a8486541, 2022-12-01)"
   sodipodi:docname="trig_atanh.svg"
   xmlns:inkscape="http://www.inkscape.org/namespaces/inkscape"
   xmlns:sodipodi="http://sodipodi.sourceforge.net/DTD/sodipodi-0.dtd"
   xmlns="http://www.w3.org/2000/svg"
   xmlns:svg="http://www.w3.org/2000/svg">
  <sodipodi:namedview
     id="namedview7"
     pagecolor="#ffffff"
     bordercolor="#000000"
     borderopacity="0.25"
     inkscape:showpageshadow="2"
     inkscape:pageopacity="0.0"
     inkscape:pagecheckerboard="0"
     inkscape:deskcolor="#d1d1d1"
     inkscape:document-units="mm"
     showgrid="false"
     inkscape:zoom="23.746577"
     inkscape:cx="13.075569"
     inkscape:cy="11.643784"
     inkscape:window-width="1920"
     inkscape:window-height="1009"
     inkscape:window-x="0"
     inkscape:window-y="35"
     inkscape:window-maximized="1"
     inkscape:current-layer="text646" />
  <defs
     id="defs2" />
  <g
     inkscape:label="Layer 1"
     inkscape:groupmode="layer"
     id="layer1">
    <g
       aria-label="+/-"
       id="text646"
       style="font-weight:bold;font-size:3.52778px;-inkscape-font-specification:'sans-serif Bold';text-align:center;text-anchor:middle;fill:#1a1a1a;stroke-width:0.264583">
      <g
         aria-label="tanh⁻¹"
         id="text1028"
         style="font-size:2.11667px;stroke-width:0.0700042">
        <path
           d="m 0.63182282,3.8269345 q 0.0529167,0 0.10160015,-0.010583 0.0486834,-0.010583 0.0973668,-0.0254 v 0.2349504 q -0.0508001,0.021167 -0.12700019,0.035983 -0.0740835,0.016933 -0.16298359,0.016933 -0.10371682,0 -0.18626695,-0.033867 Q 0.27410561,4.0110848 0.2254222,3.9285347 0.17885546,3.8438679 0.17885546,3.695701 V 3.1390168 H 0.0285719 V 3.0056666 l 0.17356693,-0.1058335 0.0910168,-0.243417 h 0.20108364 v 0.2455337 h 0.32385049 v 0.237067 H 0.49423928 V 3.695701 q 0,0.065617 0.0381,0.099483 0.0381001,0.03175 0.0994835,0.03175 z"
           id="path1030" />
        <path
           d="m 1.5377576,2.8786664 q 0.2328337,0 0.3556005,0.1016001 0.1248835,0.099484 0.1248835,0.3069172 V 4.0576515 H 1.798108 L 1.7367245,3.9010179 h -0.00847 q -0.074083,0.093133 -0.1566336,0.1354669 -0.08255,0.042333 -0.2264837,0.042333 -0.1545169,0 -0.256117,-0.0889 -0.1016002,-0.091017 -0.1016002,-0.2772838 0,-0.1841503 0.1291169,-0.2709337 0.1291168,-0.0889 0.3873506,-0.097367 l 0.2010836,-0.00635 v -0.0508 q 0,-0.091017 -0.048683,-0.1333502 -0.046567,-0.042333 -0.1312335,-0.042333 -0.084667,0 -0.1651003,0.0254 -0.080434,0.023283 -0.1608669,0.059267 L 1.0953736,2.9823832 q 0.093133,-0.048683 0.2053169,-0.0762 0.1143002,-0.027517 0.2370671,-0.027517 z m 0.04445,0.647701 q -0.1524002,0.00423 -0.2116669,0.055033 -0.059267,0.0508 -0.059267,0.1333502 0,0.071967 0.042333,0.1037168 0.042333,0.029633 0.1100668,0.029633 0.1016002,0 0.1714503,-0.059267 0.06985,-0.061383 0.06985,-0.1714502 v -0.09525 z"
           id="path1032" />
        <path
           d="m 2.9982599,2.8807831 q 0.186267,0 0.2984505,0.1016001 0.1121835,0.099483 0.1121835,0.3217338 V 4.0576515 H 3.0935101 V 3.3824338 q 0,-0.1248835 -0.04445,-0.1862669 -0.04445,-0.0635 -0.1418169,-0.0635 -0.1439335,0 -0.1968503,0.099483 -0.052917,0.097367 -0.052917,0.2815171 V 4.0576515 H 2.3420922 V 2.9019498 h 0.2413004 l 0.042333,0.1481669 h 0.016933 q 0.055033,-0.0889 0.1502835,-0.1291169 0.097367,-0.040217 0.205317,-0.040217 z"
           id="path1034" />
        <path
           d="m 4.0481273,2.7770662 q 0,0.084667 -0.00635,0.1629836 -0.00423,0.078317 -0.00847,0.1100669 h 0.016933 q 0.055033,-0.0889 0.1418168,-0.1291169 0.086784,-0.040217 0.192617,-0.040217 0.1883836,0 0.3005671,0.1016001 0.1143002,0.099483 0.1143002,0.3217338 V 4.0576515 H 4.4841613 V 3.3824338 q 0,-0.249767 -0.186267,-0.249767 -0.1418169,0 -0.1968503,0.099483 -0.052917,0.097367 -0.052917,0.2815171 V 4.0576515 H 3.7327435 V 2.4489824 h 0.3153838 z"
           id="path1036" />
        <path
           d="M 5.0323779,2.8638497 V 2.7199161 h 0.6117176 v 0.1439336 z"
           id="path1038" />
        <path
           d="M 6.3214283,2.2711821 V 3.1771168 H 6.0758946 v -0.461434 q 0,-0.027517 0,-0.071967 0.00212,-0.04445 0.00423,-0.084667 0.00212,-0.042333 0.00423,-0.05715 -0.0127,0.016933 -0.0381,0.042333 -0.023283,0.023283 -0.040217,0.0381 L 5.925611,2.6458327 5.8134275,2.5145992 6.124578,2.2711821 Z"
           id="path1040" />
      </g>
    </g>
  </g>
</svg>
