<?xml version="1.0" encoding="UTF-8" standalone="no"?>
<!-- Created with Inkscape (http://www.inkscape.org/) -->

<svg
   width="24"
   height="24"
   viewBox="0 0 6.3499999 6.35"
   version="1.1"
   id="svg5"
   inkscape:version="1.2.2 (b0a8486541, 2022-12-01)"
   sodipodi:docname="trig_asinh.svg"
   xmlns:inkscape="http://www.inkscape.org/namespaces/inkscape"
   xmlns:sodipodi="http://sodipodi.sourceforge.net/DTD/sodipodi-0.dtd"
   xmlns="http://www.w3.org/2000/svg"
   xmlns:svg="http://www.w3.org/2000/svg">
  <sodipodi:namedview
     id="namedview7"
     pagecolor="#ffffff"
     bordercolor="#000000"
     borderopacity="0.25"
     inkscape:showpageshadow="2"
     inkscape:pageopacity="0.0"
     inkscape:pagecheckerboard="0"
     inkscape:deskcolor="#d1d1d1"
     inkscape:document-units="mm"
     showgrid="false"
     inkscape:zoom="23.746577"
     inkscape:cx="13.075569"
     inkscape:cy="11.643784"
     inkscape:window-width="1920"
     inkscape:window-height="1009"
     inkscape:window-x="0"
     inkscape:window-y="35"
     inkscape:window-maximized="1"
     inkscape:current-layer="text646" />
  <defs
     id="defs2" />
  <g
     inkscape:label="Layer 1"
     inkscape:groupmode="layer"
     id="layer1">
    <g
       aria-label="+/-"
       id="text646"
       style="font-weight:bold;font-size:3.52778px;-inkscape-font-specification:'sans-serif Bold';text-align:center;text-anchor:middle;fill:#1a1a1a;stroke-width:0.264583">
      <g
         aria-label="sinh⁻¹"
         id="text1118"
         style="font-size:2.29306px;stroke-width:0.0700042">
        <path
           d="m 1.0114997,3.7597303 q 0,0.190324 -0.13529059,0.2935117 -0.13299748,0.1008946 -0.39899245,0.1008946 -0.13070442,0 -0.22471989,-0.018344 -0.0940155,-0.016051 -0.18803092,-0.055034 V 3.7987123 q 0.10089464,0.045861 0.2178407,0.075671 0.11694607,0.02981 0.20637541,0.02981 0.10089464,0 0.14216972,-0.02981 0.0435681,-0.02981 0.0435681,-0.077964 0,-0.032103 -0.0183445,-0.057327 Q 0.64002392,3.7138691 0.58269742,3.6817663 0.52537092,3.6496634 0.40383874,3.5992161 0.28689267,3.5487688 0.21122169,3.5006145 0.13555071,3.4501672 0.09886175,3.3813754 0.06217279,3.3102905 0.06217279,3.2048098 q 0,-0.1742726 0.13529054,-0.2614089 0.13529054,-0.087136 0.36001043,-0.087136 0.11694606,0 0.22242683,0.022931 0.10548076,0.022931 0.2178407,0.075671 L 0.89455359,3.2002236 Q 0.80283119,3.1612416 0.72028103,3.136018 0.63773086,3.1085012 0.55288764,3.1085012 q -0.15134196,0 -0.15134196,0.08255 0,0.02981 0.0183445,0.055033 0.0206375,0.022931 0.075671,0.050447 0.0573265,0.027517 0.16739338,0.073378 0.10777383,0.043568 0.18573787,0.091722 0.077964,0.045861 0.11923912,0.1169461 0.0435682,0.068792 0.0435682,0.1811517 z"
           id="path1131" />
        <path
           d="m 1.4494735,2.3884804 q 0.075671,0 0.1307044,0.036689 0.055033,0.034396 0.055033,0.1307045 0,0.094015 -0.055033,0.1307044 -0.055033,0.036689 -0.1307044,0.036689 -0.077964,0 -0.1329975,-0.036689 -0.05274,-0.036689 -0.05274,-0.1307044 0,-0.096309 0.05274,-0.1307045 0.055033,-0.036689 0.1329975,-0.036689 z M 1.6191599,2.8791952 V 4.131206 H 1.277494 V 2.8791952 Z"
           id="path1133" />
        <path
           d="m 2.6877267,2.8562646 q 0.2017893,0 0.3233215,0.1100669 0.1215322,0.1077738 0.1215322,0.3485452 V 4.131206 H 2.7909144 V 3.3997199 q 0,-0.1352906 -0.048154,-0.2017893 -0.048154,-0.068792 -0.153635,-0.068792 -0.1559281,0 -0.2132546,0.1077738 -0.057326,0.1054808 -0.057326,0.304977 V 4.131206 H 1.9768781 V 2.8791952 h 0.2614088 l 0.045861,0.1605142 h 0.018344 q 0.05962,-0.096309 0.1628073,-0.1398766 0.1054807,-0.043568 0.2224268,-0.043568 z"
           id="path1135" />
        <path
           d="m 3.8250834,2.7439047 q 0,0.091722 -0.00688,0.1765656 -0.00459,0.084843 -0.00917,0.1192391 h 0.018344 q 0.05962,-0.096309 0.1536351,-0.1398766 0.094015,-0.043568 0.2086684,-0.043568 0.2040824,0 0.3256146,0.1100669 0.1238252,0.1077738 0.1238252,0.3485452 V 4.131206 H 4.2974538 V 3.3997199 q 0,-0.2705811 -0.2017893,-0.2705811 -0.1536351,0 -0.2132546,0.1077738 -0.057326,0.1054808 -0.057326,0.304977 V 4.131206 H 3.4834174 V 2.3884804 h 0.341666 z"
           id="path1137" />
        <path
           d="M 4.8913554,2.8379202 V 2.6819921 h 0.6626944 v 0.1559281 z"
           id="path1139" />
        <path
           d="M 6.2878274,2.1958633 V 3.177293 H 6.0218324 V 2.677406 q 0,-0.02981 0,-0.077964 0.00229,-0.048154 0.00459,-0.091722 0.00229,-0.045861 0.00459,-0.061913 -0.013758,0.018344 -0.041275,0.045861 -0.025224,0.025224 -0.043568,0.041275 L 5.8590251,2.601735 5.7374929,2.4595652 6.0745728,2.1958633 Z"
           id="path1141" />
      </g>
    </g>
  </g>
</svg>
