<?xml version="1.0" encoding="UTF-8" standalone="no"?>
<!-- Created with Inkscape (http://www.inkscape.org/) -->

<svg
   width="512"
   height="512"
   viewBox="0 0 135.46666 135.46667"
   version="1.1"
   id="svg5"
   inkscape:version="1.2.2 (b0a8486541, 2022-12-01)"
   sodipodi:docname="%.svg"
   xml:space="preserve"
   xmlns:inkscape="http://www.inkscape.org/namespaces/inkscape"
   xmlns:sodipodi="http://sodipodi.sourceforge.net/DTD/sodipodi-0.dtd"
   xmlns="http://www.w3.org/2000/svg"
   xmlns:svg="http://www.w3.org/2000/svg"><sodipodi:namedview
     id="namedview7"
     pagecolor="#ffffff"
     bordercolor="#000000"
     borderopacity="0.25"
     inkscape:showpageshadow="2"
     inkscape:pageopacity="0.0"
     inkscape:pagecheckerboard="0"
     inkscape:deskcolor="#d1d1d1"
     inkscape:document-units="mm"
     showgrid="false"
     inkscape:zoom="0.74208053"
     inkscape:cx="396.8572"
     inkscape:cy="346.99738"
     inkscape:window-width="1920"
     inkscape:window-height="1009"
     inkscape:window-x="0"
     inkscape:window-y="35"
     inkscape:window-maximized="1"
     inkscape:current-layer="text644" /><defs
     id="defs2" /><g
     inkscape:label="Layer 1"
     inkscape:groupmode="layer"
     id="layer1"><g
       aria-label="tan⁻¹"
       id="text644"
       style="font-weight:bold;font-size:52.9167px;-inkscape-font-specification:'sans-serif Bold';text-align:center;text-anchor:middle;stroke-width:0.264583"><g
         aria-label="%"
         id="text1318"
         style="stroke-width:0.0700042"><path
           d="m 54.424785,48.339365 q 4.445002,0 6.72042,3.122085 2.328335,3.069168 2.328335,8.678338 0,5.60917 -2.169584,8.784172 -2.169585,3.122086 -6.879171,3.122086 -4.339169,0 -6.614588,-3.122086 -2.275418,-3.175002 -2.275418,-8.784172 0,-5.60917 2.116668,-8.678338 2.116668,-3.122085 6.773338,-3.122085 z M 81.253551,48.868532 60.298538,86.651054 H 54.107285 L 75.062297,48.868532 Z m -26.77585,4.868336 q -2.434168,0 -2.434168,6.455837 0,6.508754 2.434168,6.508754 2.487085,0 2.487085,-6.508754 0,-6.455837 -2.487085,-6.455837 z m 26.405433,9.683756 q 4.445003,0 6.720421,3.122085 2.328334,3.069168 2.328334,8.678339 0,5.60917 -2.169584,8.784171 -2.169585,3.122086 -6.879171,3.122086 -4.339169,0 -6.614587,-3.122086 -2.275418,-3.175001 -2.275418,-8.784171 0,-5.609171 2.116668,-8.678339 2.116668,-3.122085 6.773337,-3.122085 z m 0.05292,5.397503 q -2.434168,0 -2.434168,6.455837 0,6.508754 2.434168,6.508754 2.487085,0 2.487085,-6.508754 0,-6.455837 -2.487085,-6.455837 z"
           id="path1320" /></g></g></g></svg>
