<?xml version="1.0" encoding="UTF-8" standalone="no"?>
<!-- Created with Inkscape (http://www.inkscape.org/) -->

<svg
   width="512"
   height="512"
   viewBox="0 0 135.46666 135.46667"
   version="1.1"
   id="svg5"
   inkscape:version="1.2.2 (b0a8486541, 2022-12-01)"
   sodipodi:docname="10^x.svg"
   xmlns:inkscape="http://www.inkscape.org/namespaces/inkscape"
   xmlns:sodipodi="http://sodipodi.sourceforge.net/DTD/sodipodi-0.dtd"
   xmlns="http://www.w3.org/2000/svg"
   xmlns:svg="http://www.w3.org/2000/svg">
  <sodipodi:namedview
     id="namedview7"
     pagecolor="#ffffff"
     bordercolor="#000000"
     borderopacity="0.25"
     inkscape:showpageshadow="2"
     inkscape:pageopacity="0.0"
     inkscape:pagecheckerboard="0"
     inkscape:deskcolor="#d1d1d1"
     inkscape:document-units="mm"
     showgrid="false"
     inkscape:zoom="0.74208053"
     inkscape:cx="396.8572"
     inkscape:cy="346.99738"
     inkscape:window-width="1920"
     inkscape:window-height="1009"
     inkscape:window-x="0"
     inkscape:window-y="35"
     inkscape:window-maximized="1"
     inkscape:current-layer="text644" />
  <defs
     id="defs2" />
  <g
     inkscape:label="Layer 1"
     inkscape:groupmode="layer"
     id="layer1">
    <g
       aria-label="tan⁻¹"
       id="text644"
       style="font-weight:bold;font-size:52.9167px;-inkscape-font-specification:'sans-serif Bold';text-align:center;text-anchor:middle;stroke-width:0.264583">
      <g
         aria-label="10^x"
         id="text952"
         style="stroke-width:0.0700042">
        <path
           d="M 27.463685,86.651054 H 19.473263 V 64.796458 q 0,-1.375834 0.05292,-3.598336 0.105833,-2.222501 0.15875,-3.915835 -0.264584,0.3175 -1.164167,1.164167 -0.846668,0.793751 -1.587501,1.428751 l -4.33917,3.492502 -3.8629187,-4.815419 12.1708407,-9.683756 h 6.561671 z"
           id="path954" />
        <path
           d="m 64.187899,67.759793 q 0,6.08542 -1.322917,10.42459 -1.270001,4.339169 -4.18042,6.667504 -2.857501,2.328334 -7.725838,2.328334 -6.826254,0 -10.001256,-5.132919 -3.175001,-5.185837 -3.175001,-14.287509 0,-6.138337 1.27,-10.477506 1.270001,-4.33917 4.18042,-6.667504 2.910418,-2.328335 7.725837,-2.328335 6.773338,0 10.001256,5.13292 3.227919,5.13292 3.227919,14.340425 z m -18.467928,0 q 0,6.455837 1.111251,9.736673 1.111251,3.227918 4.127502,3.227918 2.963336,0 4.127503,-3.227918 1.164167,-3.227919 1.164167,-9.736673 0,-6.455837 -1.164167,-9.736672 -1.164167,-3.280836 -4.127503,-3.280836 -3.016251,0 -4.127502,3.280836 -1.111251,3.280835 -1.111251,9.736672 z"
           id="path956" />
        <path
           d="M 67.362927,73.210213 78.6871,48.656865 h 3.704169 L 95.19711,73.210213 H 89.005856 L 80.697935,56.59437 73.448347,73.210213 Z"
           id="path958" />
        <path
           d="M 106.46839,71.887296 97.155052,57.758537 h 8.942918 l 5.60917,9.207506 5.66209,-9.207506 h 8.94292 l -9.41917,14.128759 9.84251,14.763758 h -8.94293 l -6.08542,-9.895422 -6.08542,9.895422 h -8.942918 z"
           id="path960" />
      </g>
    </g>
  </g>
</svg>
