<?xml version="1.0" encoding="UTF-8" standalone="no"?>
<!-- Created with Inkscape (http://www.inkscape.org/) -->

<svg
   width="512"
   height="512"
   viewBox="0 0 135.46666 135.46667"
   version="1.1"
   id="svg5"
   inkscape:version="1.2.2 (b0a8486541, 2022-12-01)"
   sodipodi:docname="e^x.svg"
   xmlns:inkscape="http://www.inkscape.org/namespaces/inkscape"
   xmlns:sodipodi="http://sodipodi.sourceforge.net/DTD/sodipodi-0.dtd"
   xmlns="http://www.w3.org/2000/svg"
   xmlns:svg="http://www.w3.org/2000/svg">
  <sodipodi:namedview
     id="namedview7"
     pagecolor="#ffffff"
     bordercolor="#000000"
     borderopacity="0.25"
     inkscape:showpageshadow="2"
     inkscape:pageopacity="0.0"
     inkscape:pagecheckerboard="0"
     inkscape:deskcolor="#d1d1d1"
     inkscape:document-units="mm"
     showgrid="false"
     inkscape:zoom="0.74208053"
     inkscape:cx="396.8572"
     inkscape:cy="346.99738"
     inkscape:window-width="1920"
     inkscape:window-height="1009"
     inkscape:window-x="0"
     inkscape:window-y="35"
     inkscape:window-maximized="1"
     inkscape:current-layer="text644" />
  <defs
     id="defs2" />
  <g
     inkscape:label="Layer 1"
     inkscape:groupmode="layer"
     id="layer1">
    <g
       aria-label="tan⁻¹"
       id="text644"
       style="font-weight:bold;font-size:52.9167px;-inkscape-font-specification:'sans-serif Bold';text-align:center;text-anchor:middle;stroke-width:0.264583">
      <g
         aria-label="e^x"
         id="text891"
         style="stroke-width:0.0700042">
        <path
           d="m 36.644767,57.044159 q 5.979587,0 9.472089,3.439585 3.492502,3.386669 3.492502,9.683756 v 3.810002 H 30.98268 q 0.105833,3.333752 1.957918,5.238754 1.905001,1.905001 5.238753,1.905001 2.804585,0 5.080003,-0.529167 2.275418,-0.582084 4.709586,-1.746251 v 6.08542 q -2.116668,1.058334 -4.497919,1.534584 -2.328335,0.529167 -5.662087,0.529167 -4.339169,0 -7.672921,-1.587501 -3.333752,-1.640417 -5.238753,-4.921253 -1.905001,-3.280835 -1.905001,-8.255005 0,-5.080003 1.693334,-8.413755 1.746251,-3.386668 4.815419,-5.080003 3.069169,-1.693334 7.143755,-1.693334 z m 0.05292,5.60917 q -2.275418,0 -3.810002,1.481667 -1.481667,1.481668 -1.746251,4.603753 h 11.05959 q -0.05292,-2.645835 -1.375834,-4.339169 -1.322918,-1.746251 -4.127503,-1.746251 z"
           id="path893" />
        <path
           d="M 53.10184,73.025002 64.426013,48.471654 h 3.704169 L 80.936023,73.025002 H 74.744769 L 66.436848,56.409158 59.18726,73.025002 Z"
           id="path895" />
        <path
           d="M 92.207306,71.702084 82.893967,57.573326 h 8.942922 l 5.60917,9.207505 5.662091,-9.207505 h 8.94292 l -9.41917,14.128758 9.8425,14.763759 h -8.94292 l -6.085421,-9.895422 -6.085421,9.895422 h -8.942922 z"
           id="path897" />
      </g>
    </g>
  </g>
</svg>
