<?xml version="1.0" encoding="UTF-8" standalone="no"?>
<!-- Created with Inkscape (http://www.inkscape.org/) -->

<svg
   width="512"
   height="512"
   viewBox="0 0 135.46666 135.46667"
   version="1.1"
   id="svg5"
   inkscape:version="1.2.2 (b0a8486541, 2022-12-01)"
   sodipodi:docname="log.svg"
   xml:space="preserve"
   xmlns:inkscape="http://www.inkscape.org/namespaces/inkscape"
   xmlns:sodipodi="http://sodipodi.sourceforge.net/DTD/sodipodi-0.dtd"
   xmlns="http://www.w3.org/2000/svg"
   xmlns:svg="http://www.w3.org/2000/svg"><sodipodi:namedview
     id="namedview7"
     pagecolor="#ffffff"
     bordercolor="#000000"
     borderopacity="0.25"
     inkscape:showpageshadow="2"
     inkscape:pageopacity="0.0"
     inkscape:pagecheckerboard="0"
     inkscape:deskcolor="#d1d1d1"
     inkscape:document-units="mm"
     showgrid="false"
     inkscape:zoom="0.74208053"
     inkscape:cx="396.8572"
     inkscape:cy="346.99738"
     inkscape:window-width="1920"
     inkscape:window-height="1009"
     inkscape:window-x="0"
     inkscape:window-y="35"
     inkscape:window-maximized="1"
     inkscape:current-layer="g1422" /><defs
     id="defs2" /><g
     inkscape:label="Layer 1"
     inkscape:groupmode="layer"
     id="layer1"><g
       aria-label="tan⁻¹"
       id="text644"
       style="font-weight:bold;font-size:52.9167px;-inkscape-font-specification:'sans-serif Bold';text-align:center;text-anchor:middle;stroke-width:0.264583"><g
         style="fill:#e3e3e3"
         id="g1422"
         transform="matrix(0.07132139,0,0,0.05246367,30.732886,90.938089)"><g
           aria-label="log"
           transform="scale(0.85766846,1.1659517)"
           id="text1826"
           style="font-size:865.074px;fill:#1a1a1a;stroke-width:1.14442"><path
             d="M 127.78973,-154.42874 H -1.1062905 V -811.88496 H 127.78973 Z"
             id="path1828" /><path
             d="m 691.81824,-391.45901 q 0,117.65006 -62.28533,181.66553 -61.42025,64.01548 -167.82435,64.01548 -65.74562,0 -117.65006,-28.54744 -51.03936,-28.54744 -80.45188,-83.0471 -29.41251,-55.36474 -29.41251,-134.08647 0,-117.65006 61.42025,-180.80046 61.42025,-63.1504 168.68942,-63.1504 66.6107,0 117.65007,28.54744 51.03936,28.54744 80.45188,83.0471 29.41251,53.63459 29.41251,132.35632 z m -326.13289,0 q 0,70.07099 22.49193,106.4041 23.35699,35.46803 75.26143,35.46803 51.03937,0 73.53129,-35.46803 23.357,-36.33311 23.357,-106.4041 0,-70.07099 -23.357,-104.67395 -22.49192,-35.46803 -74.39636,-35.46803 -51.03937,0 -74.39636,35.46803 -22.49193,34.60296 -22.49193,104.67395 z"
             id="path1830" /><path
             d="m 951.33999,-635.40987 q 87.37251,0 136.68171,69.20592 h 3.4603 l 10.3809,-60.55518 h 108.9993 v 473.19546 q 0,101.213658 -59.6901,153.98317 -59.6901,52.769512 -176.47511,52.769512 -50.17429,0 -93.42799,-6.055517 -42.38863,-6.055518 -83.0471,-21.62685 V -77.437158 q 87.37247,36.333107 184.26075,36.333107 99.48355,0 99.48355,-107.269169 v -9.51582 q 0,-14.70625 0.865,-30.27759 1.7302,-15.57133 2.5953,-27.68236 h -3.4603 q -24.2221,37.19818 -57.96,53.63458 -33.73788,16.43641 -76.12651,16.43641 -83.91217,0 -131.49124,-64.01548 -46.714,-64.88054 -46.714,-179.93538 0,-115.91992 48.44415,-180.80046 48.44414,-64.88055 133.22139,-64.88055 z m 40.65848,104.67395 q -90.83277,0 -90.83277,142.73721 0,141.00705 92.56291,141.00705 49.30919,0 72.66619,-27.68236 24.2221,-28.54745 24.2221,-98.61844 v -15.57133 q 0,-76.12651 -23.357,-108.99932 -23.357,-32.87281 -75.26143,-32.87281 z"
             id="path1832" /></g></g></g></g></svg>
