<?xml version="1.0" encoding="UTF-8" standalone="no"?>
<!-- Created with Inkscape (http://www.inkscape.org/) -->

<svg
   width="512"
   height="512"
   viewBox="0 0 135.46666 135.46667"
   version="1.1"
   id="svg5"
   inkscape:version="1.2.2 (b0a8486541, 2022-12-01)"
   sodipodi:docname="n!.svg"
   xml:space="preserve"
   xmlns:inkscape="http://www.inkscape.org/namespaces/inkscape"
   xmlns:sodipodi="http://sodipodi.sourceforge.net/DTD/sodipodi-0.dtd"
   xmlns="http://www.w3.org/2000/svg"
   xmlns:svg="http://www.w3.org/2000/svg"><sodipodi:namedview
     id="namedview7"
     pagecolor="#ffffff"
     bordercolor="#000000"
     borderopacity="0.25"
     inkscape:showpageshadow="2"
     inkscape:pageopacity="0.0"
     inkscape:pagecheckerboard="0"
     inkscape:deskcolor="#d1d1d1"
     inkscape:document-units="mm"
     showgrid="false"
     inkscape:zoom="0.74208053"
     inkscape:cx="396.8572"
     inkscape:cy="346.99738"
     inkscape:window-width="1920"
     inkscape:window-height="1009"
     inkscape:window-x="0"
     inkscape:window-y="35"
     inkscape:window-maximized="1"
     inkscape:current-layer="text644" /><defs
     id="defs2" /><g
     inkscape:label="Layer 1"
     inkscape:groupmode="layer"
     id="layer1"><g
       aria-label="tan⁻¹"
       id="text644"
       style="font-weight:bold;font-size:52.9167px;-inkscape-font-specification:'sans-serif Bold';text-align:center;text-anchor:middle;stroke-width:0.264583"><g
         aria-label="n!"
         id="text1348"
         style="stroke-width:0.0700042"><path
           d="m 62.785632,56.858955 q 4.65667,0 7.461255,2.540002 2.804585,2.487085 2.804585,8.043338 V 86.28064 H 65.166884 V 69.400213 q 0,-3.122085 -1.111251,-4.65667 -1.11125,-1.587501 -3.545419,-1.587501 -3.598335,0 -4.921253,2.487085 -1.322917,2.434168 -1.322917,7.037921 V 86.28064 H 46.381456 V 57.388122 h 6.032504 l 1.058334,3.704169 h 0.423333 q 1.375834,-2.222501 3.757086,-3.227918 2.434168,-1.005418 5.132919,-1.005418 z"
           id="path1350" /><path
           d="M 87.762294,73.739382 H 81.465207 L 80.142289,48.498117 h 8.942922 z m -7.725838,8.837089 q 0,-2.434168 1.322917,-3.386669 1.322918,-1.005417 3.227919,-1.005417 1.852084,0 3.175002,1.005417 1.322917,0.952501 1.322917,3.386669 0,2.328334 -1.322917,3.386668 -1.322918,1.005418 -3.175002,1.005418 -1.905001,0 -3.227919,-1.005418 -1.322917,-1.058334 -1.322917,-3.386668 z"
           id="path1352" /></g></g></g></svg>
