<?xml version="1.0" encoding="UTF-8" standalone="no"?>
<!-- Created with Inkscape (http://www.inkscape.org/) -->

<svg
   width="24"
   height="24"
   viewBox="0 0 6.3499999 6.35"
   version="1.1"
   id="svg5"
   inkscape:version="1.2.2 (b0a8486541, 2022-12-01)"
   sodipodi:docname="opr_divide.svg"
   xmlns:inkscape="http://www.inkscape.org/namespaces/inkscape"
   xmlns:sodipodi="http://sodipodi.sourceforge.net/DTD/sodipodi-0.dtd"
   xmlns="http://www.w3.org/2000/svg"
   xmlns:svg="http://www.w3.org/2000/svg">
  <sodipodi:namedview
     id="namedview7"
     pagecolor="#ffffff"
     bordercolor="#000000"
     borderopacity="0.25"
     inkscape:showpageshadow="2"
     inkscape:pageopacity="0.0"
     inkscape:pagecheckerboard="0"
     inkscape:deskcolor="#d1d1d1"
     inkscape:document-units="mm"
     showgrid="false"
     inkscape:zoom="29.14723"
     inkscape:cx="13.191648"
     inkscape:cy="11.236059"
     inkscape:window-width="1920"
     inkscape:window-height="1009"
     inkscape:window-x="0"
     inkscape:window-y="35"
     inkscape:window-maximized="1"
     inkscape:current-layer="layer1" />
  <defs
     id="defs2" />
  <g
     inkscape:label="Layer 1"
     inkscape:groupmode="layer"
     id="layer1">
    <text
       xml:space="preserve"
       style="font-weight:bold;font-size:4.9389px;font-family:sans-serif;-inkscape-font-specification:'sans-serif Bold';text-align:center;text-anchor:middle;fill:#1a1a1a;stroke-width:0.264583"
       x="3.1750011"
       y="4.4986253"
       id="text766"><tspan
         sodipodi:role="line"
         id="tspan764"
         style="stroke-width:0.264583"
         x="3.1750011"
         y="4.4986253" /></text>
    <path
       id="rect877"
       style="fill:#1a1a1a;stroke-width:0.21715"
       d="m 1.9205284,2.9250386 h 2.5089431 c 0.1362514,0 0.2459413,0.1096898 0.2459413,0.2459413 v 0.00804 c 0,0.1362515 -0.1096899,0.2459413 -0.2459413,0.2459413 H 1.9205284 c -0.1362514,0 -0.2459413,-0.1096898 -0.2459413,-0.2459413 v -0.00804 c 0,-0.1362515 0.1096899,-0.2459413 0.2459413,-0.2459413 z" />
    <path
       id="path931"
       style="fill:#1a1a1a;stroke-width:0.264583"
       d="M 3.652662,2.2807274 A 0.47766209,0.47567999 0 0 1 3.175,2.7564074 0.47766209,0.47567999 0 0 1 2.6973379,2.2807274 0.47766209,0.47567999 0 0 1 3.175,1.8050474 a 0.47766209,0.47567999 0 0 1 0.477662,0.47568 z" />
    <path
       id="path931-3"
       style="fill:#1a1a1a;stroke-width:0.264583"
       d="M 3.652662,4.0842333 A 0.47766209,0.47567999 0 0 1 3.175,4.5599133 0.47766209,0.47567999 0 0 1 2.6973379,4.0842333 0.47766209,0.47567999 0 0 1 3.175,3.6085533 a 0.47766209,0.47567999 0 0 1 0.477662,0.47568 z" />
  </g>
</svg>
