<?xml version="1.0" encoding="UTF-8" standalone="no"?>
<!-- Created with Inkscape (http://www.inkscape.org/) -->

<svg
   width="24"
   height="24"
   viewBox="0 0 6.3499999 6.3500001"
   version="1.1"
   id="svg5"
   inkscape:version="1.2.2 (b0a8486541, 2022-12-01)"
   sodipodi:docname="opr_n_factorial.svg"
   xmlns:inkscape="http://www.inkscape.org/namespaces/inkscape"
   xmlns:sodipodi="http://sodipodi.sourceforge.net/DTD/sodipodi-0.dtd"
   xmlns="http://www.w3.org/2000/svg"
   xmlns:svg="http://www.w3.org/2000/svg">
  <sodipodi:namedview
     id="namedview7"
     pagecolor="#ffffff"
     bordercolor="#000000"
     borderopacity="0.25"
     inkscape:showpageshadow="2"
     inkscape:pageopacity="0.0"
     inkscape:pagecheckerboard="0"
     inkscape:deskcolor="#d1d1d1"
     inkscape:document-units="mm"
     showgrid="false"
     inkscape:zoom="23.746577"
     inkscape:cx="11.980674"
     inkscape:cy="13.74935"
     inkscape:window-width="1920"
     inkscape:window-height="1009"
     inkscape:window-x="0"
     inkscape:window-y="35"
     inkscape:window-maximized="1"
     inkscape:current-layer="layer1" />
  <defs
     id="defs2" />
  <g
     inkscape:label="Layer 1"
     inkscape:groupmode="layer"
     id="layer1">
    <text
       xml:space="preserve"
       style="font-weight:bold;font-size:1.76389px;font-family:sans-serif;-inkscape-font-specification:'sans-serif Bold';text-align:center;text-anchor:middle;fill:#1a1a1a;stroke-width:0.264583"
       x="95.868141"
       y="160.96979"
       id="text63"><tspan
         sodipodi:role="line"
         id="tspan61"
         style="stroke-width:0.264583"
         x="95.868141"
         y="160.96979" /></text>
    <g
       aria-label="n!"
       id="text385"
       style="font-weight:bold;font-size:3.52777px;-inkscape-font-specification:'sans-serif Bold';text-align:center;text-anchor:middle;fill:#1a1a1a;stroke-width:0.264583">
      <path
         d="m 2.8451541,2.4500431 q 0.3104437,0 0.4974156,0.169333 0.1869718,0.1658052 0.1869718,0.5362211 V 4.4114833 H 3.0039037 V 3.2861246 q 0,-0.2081384 -0.074083,-0.3104437 Q 2.8557374,2.8698478 2.69346,2.8698478 q -0.2398884,0 -0.3280826,0.1658052 -0.088194,0.1622774 -0.088194,0.4691934 V 4.4114833 H 1.7515454 V 2.4853208 h 0.4021658 l 0.070555,0.2469439 h 0.028222 Q 2.3442107,2.5840984 2.5029604,2.5170708 2.6652378,2.4500431 2.8451541,2.4500431 Z"
         id="path387" />
      <path
         d="M 4.5102602,3.5754018 H 4.0904555 L 4.0022613,1.8926555 H 4.5984544 Z M 3.9952057,4.1645394 q 0,-0.1622774 0.088194,-0.2257773 0.088194,-0.067028 0.215194,-0.067028 0.1234719,0 0.2116662,0.067028 0.088194,0.0635 0.088194,0.2257773 0,0.1552219 -0.088194,0.2257773 -0.088194,0.067028 -0.2116662,0.067028 -0.1269998,0 -0.215194,-0.067028 -0.088194,-0.070555 -0.088194,-0.2257773 z"
         id="path389" />
    </g>
  </g>
</svg>
