<?xml version="1.0" encoding="UTF-8" standalone="no"?>
<!-- Created with Inkscape (http://www.inkscape.org/) -->

<svg
   width="24"
   height="24"
   viewBox="0 0 6.3499999 6.3500001"
   version="1.1"
   id="svg5"
   inkscape:version="1.2.2 (b0a8486541, 2022-12-01)"
   sodipodi:docname="opr_e_pow_x.svg"
   xmlns:inkscape="http://www.inkscape.org/namespaces/inkscape"
   xmlns:sodipodi="http://sodipodi.sourceforge.net/DTD/sodipodi-0.dtd"
   xmlns="http://www.w3.org/2000/svg"
   xmlns:svg="http://www.w3.org/2000/svg">
  <sodipodi:namedview
     id="namedview7"
     pagecolor="#ffffff"
     bordercolor="#000000"
     borderopacity="0.25"
     inkscape:showpageshadow="2"
     inkscape:pageopacity="0.0"
     inkscape:pagecheckerboard="0"
     inkscape:deskcolor="#d1d1d1"
     inkscape:document-units="mm"
     showgrid="false"
     inkscape:zoom="23.746577"
     inkscape:cx="11.980674"
     inkscape:cy="13.74935"
     inkscape:window-width="1920"
     inkscape:window-height="1009"
     inkscape:window-x="0"
     inkscape:window-y="35"
     inkscape:window-maximized="1"
     inkscape:current-layer="layer1" />
  <defs
     id="defs2" />
  <g
     inkscape:label="Layer 1"
     inkscape:groupmode="layer"
     id="layer1">
    <text
       xml:space="preserve"
       style="font-weight:bold;font-size:1.76389px;font-family:sans-serif;-inkscape-font-specification:'sans-serif Bold';text-align:center;text-anchor:middle;fill:#1a1a1a;stroke-width:0.264583"
       x="95.868141"
       y="160.96979"
       id="text63"><tspan
         sodipodi:role="line"
         id="tspan61"
         style="stroke-width:0.264583"
         x="95.868141"
         y="160.96979" /></text>
    <g
       aria-label="ex"
       id="text529"
       style="font-weight:bold;font-size:3.52777px;-inkscape-font-specification:'sans-serif Bold';text-align:center;text-anchor:middle;fill:#1a1a1a;stroke-width:0.264583">
      <path
         d="m 2.4651251,2.5274777 q 0.398638,0 0.6314709,0.229305 0.2328328,0.2257773 0.2328328,0.645582 V 3.6563641 H 2.0876537 q 0.00706,0.2222495 0.1305275,0.3492492 0.1269998,0.1269998 0.3492493,0.1269998 0.1869718,0 0.3386659,-0.035278 0.1516941,-0.038806 0.3139715,-0.1164165 v 0.4056936 q -0.1411108,0.070555 -0.2998604,0.1023053 -0.1552219,0.035278 -0.3774714,0.035278 -0.2892772,0 -0.5115267,-0.1058331 Q 1.8089599,4.3090016 1.6819602,4.0902798 1.5549605,3.8715581 1.5549605,3.5399477 q 0,-0.3386659 0.1128886,-0.5609155 Q 1.7842655,2.753255 1.9888762,2.6403663 2.1934868,2.5274777 2.4651251,2.5274777 Z m 0.00353,0.3739436 q -0.1516941,0 -0.2539994,0.098778 -0.098778,0.098778 -0.1164165,0.306916 H 2.835541 Q 2.8320132,3.1307264 2.743819,3.0178377 2.6556247,2.9014213 2.4686529,2.9014213 Z"
         id="path533" />
      <path
         d="M 3.916801,2.4380487 3.5132241,1.8258042 H 3.9007497 L 4.143813,2.224795 4.3891694,1.8258042 H 4.776695 L 4.368532,2.4380487 4.7950394,3.0778098 H 4.4075139 L 4.143813,2.6490094 3.8801122,3.0778098 H 3.4925867 Z"
         style="font-size:65%;baseline-shift:super"
         id="path535" />
    </g>
  </g>
</svg>
