<?xml version="1.0" encoding="UTF-8" standalone="no"?>
<!-- Created with Inkscape (http://www.inkscape.org/) -->

<svg
   width="512"
   height="512"
   viewBox="0 0 135.46666 135.46667"
   version="1.1"
   id="svg5"
   inkscape:version="1.2.2 (b0a8486541, 2022-12-01)"
   sodipodi:docname="x^3.svg"
   xmlns:inkscape="http://www.inkscape.org/namespaces/inkscape"
   xmlns:sodipodi="http://sodipodi.sourceforge.net/DTD/sodipodi-0.dtd"
   xmlns="http://www.w3.org/2000/svg"
   xmlns:svg="http://www.w3.org/2000/svg">
  <sodipodi:namedview
     id="namedview7"
     pagecolor="#ffffff"
     bordercolor="#000000"
     borderopacity="0.25"
     inkscape:showpageshadow="2"
     inkscape:pageopacity="0.0"
     inkscape:pagecheckerboard="0"
     inkscape:deskcolor="#d1d1d1"
     inkscape:document-units="mm"
     showgrid="false"
     inkscape:zoom="0.74208053"
     inkscape:cx="396.8572"
     inkscape:cy="346.99738"
     inkscape:window-width="1920"
     inkscape:window-height="1009"
     inkscape:window-x="0"
     inkscape:window-y="35"
     inkscape:window-maximized="1"
     inkscape:current-layer="text644" />
  <defs
     id="defs2" />
  <g
     inkscape:label="Layer 1"
     inkscape:groupmode="layer"
     id="layer1">
    <g
       aria-label="tan⁻¹"
       id="text644"
       style="font-weight:bold;font-size:52.9167px;-inkscape-font-specification:'sans-serif Bold';text-align:center;text-anchor:middle;stroke-width:0.264583">
      <g
         aria-label="x³"
         id="text822"
         style="stroke-width:0.0700042">
        <path
           d="M 53.392934,75.538548 44.079595,61.40979 h 8.942922 l 5.60917,9.207505 5.662087,-9.207505 h 8.942922 l -9.419172,14.128758 9.842506,14.763759 h -8.942923 l -6.08542,-9.895422 -6.08542,9.895422 h -8.942922 z"
           id="path824" />
        <path
           d="m 83.661238,45.164363 q 3.227918,0 5.344586,1.640418 2.116668,1.587501 2.116668,4.339169 0,1.799168 -1.058334,3.122085 -1.005417,1.270001 -3.333752,2.010835 v 0.3175 q 2.645835,0.529167 3.862919,2.063751 1.270001,1.481668 1.270001,3.333752 0,3.122086 -2.275418,4.921253 -2.275418,1.799168 -7.090838,1.799168 -3.757085,0 -7.03792,-1.799168 v -4.921253 q 1.693334,1.005418 3.386668,1.693335 1.746251,0.635 3.598336,0.635 3.704169,0 3.704169,-2.751668 0,-1.058334 -0.899584,-1.905001 -0.899584,-0.846667 -3.386669,-0.846667 h -2.910418 v -4.127503 h 2.381251 q 2.698752,0 3.439585,-0.846667 0.793751,-0.899584 0.793751,-1.957918 0,-1.005417 -0.635,-1.640418 -0.635001,-0.635 -1.957918,-0.635 -1.217084,0 -2.328335,0.47625 -1.058334,0.476251 -2.540002,1.534585 l -2.592918,-3.651253 q 1.587501,-1.217084 3.545419,-2.010834 1.957918,-0.793751 4.603753,-0.793751 z"
           id="path826" />
      </g>
    </g>
  </g>
</svg>
